STARTFONT 2.1
FONT -Yamche-Regular-R-Regular--10-10-75-75-c-80-iso10646-1
SIZE 10 75 75
FONTBOUNDINGBOX 7 9 0 -1
STARTPROPERTIES 9
FAMILY_NAME Yamche
WEIGHT_NAME Regular
FONT_VERSION 1.02
FOUNDRY Made with Bits'n'Picas by Kreative Software
FONT_ASCENT 9
FONT_DESCENT 1
CAP_HEIGHT 8
POINT_SIZE 8
X_HEIGHT 5
ENDPROPERTIES
CHARS 2919
STARTCHAR U+0020
ENCODING 32
SWIDTH 428 0
DWIDTH 3 0
BBX 0 0 0 0
BITMAP
ENDCHAR
STARTCHAR U+0021
ENCODING 33
SWIDTH 285 0
DWIDTH 2 0
BBX 1 7 0 0
BITMAP
80
80
80
80
80
00
80
ENDCHAR
STARTCHAR U+0022
ENCODING 34
SWIDTH 571 0
DWIDTH 4 0
BBX 3 2 0 5
BITMAP
A0
A0
ENDCHAR
STARTCHAR U+0023
ENCODING 35
SWIDTH 857 0
DWIDTH 6 0
BBX 5 7 0 0
BITMAP
50
F8
50
50
F8
50
50
ENDCHAR
STARTCHAR U+0024
ENCODING 36
SWIDTH 857 0
DWIDTH 6 0
BBX 5 7 0 0
BITMAP
20
78
A0
70
28
F0
20
ENDCHAR
STARTCHAR U+0025
ENCODING 37
SWIDTH 857 0
DWIDTH 6 0
BBX 5 7 0 0
BITMAP
40
A8
50
20
50
A8
10
ENDCHAR
STARTCHAR U+0026
ENCODING 38
SWIDTH 857 0
DWIDTH 6 0
BBX 5 7 0 0
BITMAP
40
A0
A0
40
A8
90
68
ENDCHAR
STARTCHAR U+0027
ENCODING 39
SWIDTH 285 0
DWIDTH 2 0
BBX 1 2 0 5
BITMAP
80
80
ENDCHAR
STARTCHAR U+0028
ENCODING 40
SWIDTH 428 0
DWIDTH 3 0
BBX 2 7 0 0
BITMAP
40
80
80
80
80
80
40
ENDCHAR
STARTCHAR U+0029
ENCODING 41
SWIDTH 428 0
DWIDTH 3 0
BBX 2 7 0 0
BITMAP
80
40
40
40
40
40
80
ENDCHAR
STARTCHAR U+002A
ENCODING 42
SWIDTH 857 0
DWIDTH 6 0
BBX 5 7 0 0
BITMAP
20
A8
70
20
70
A8
20
ENDCHAR
STARTCHAR U+002B
ENCODING 43
SWIDTH 857 0
DWIDTH 6 0
BBX 5 5 0 1
BITMAP
20
20
F8
20
20
ENDCHAR
STARTCHAR U+002C
ENCODING 44
SWIDTH 571 0
DWIDTH 4 0
BBX 2 2 0 -1
BITMAP
40
80
ENDCHAR
STARTCHAR U+002D
ENCODING 45
SWIDTH 857 0
DWIDTH 6 0
BBX 5 1 0 3
BITMAP
F8
ENDCHAR
STARTCHAR U+002E
ENCODING 46
SWIDTH 571 0
DWIDTH 4 0
BBX 1 1 1 0
BITMAP
80
ENDCHAR
STARTCHAR U+002F
ENCODING 47
SWIDTH 571 0
DWIDTH 4 0
BBX 3 7 0 0
BITMAP
20
20
40
40
40
80
80
ENDCHAR
STARTCHAR U+0030
ENCODING 48
SWIDTH 714 0
DWIDTH 5 0
BBX 4 7 0 0
BITMAP
60
90
B0
D0
90
90
60
ENDCHAR
STARTCHAR U+0031
ENCODING 49
SWIDTH 571 0
DWIDTH 4 0
BBX 2 7 0 0
BITMAP
C0
40
40
40
40
40
40
ENDCHAR
STARTCHAR U+0032
ENCODING 50
SWIDTH 714 0
DWIDTH 5 0
BBX 4 7 0 0
BITMAP
E0
10
10
60
80
80
F0
ENDCHAR
STARTCHAR U+0033
ENCODING 51
SWIDTH 714 0
DWIDTH 5 0
BBX 4 7 0 0
BITMAP
E0
10
10
60
10
10
E0
ENDCHAR
STARTCHAR U+0034
ENCODING 52
SWIDTH 714 0
DWIDTH 5 0
BBX 4 7 0 0
BITMAP
90
90
90
90
70
10
10
ENDCHAR
STARTCHAR U+0035
ENCODING 53
SWIDTH 714 0
DWIDTH 5 0
BBX 4 7 0 0
BITMAP
F0
80
80
E0
10
10
E0
ENDCHAR
STARTCHAR U+0036
ENCODING 54
SWIDTH 714 0
DWIDTH 5 0
BBX 4 7 0 0
BITMAP
60
80
80
E0
90
90
60
ENDCHAR
STARTCHAR U+0037
ENCODING 55
SWIDTH 714 0
DWIDTH 5 0
BBX 4 7 0 0
BITMAP
F0
10
10
20
40
40
40
ENDCHAR
STARTCHAR U+0038
ENCODING 56
SWIDTH 714 0
DWIDTH 5 0
BBX 4 7 0 0
BITMAP
60
90
90
60
90
90
60
ENDCHAR
STARTCHAR U+0039
ENCODING 57
SWIDTH 714 0
DWIDTH 5 0
BBX 4 7 0 0
BITMAP
60
90
90
70
10
10
60
ENDCHAR
STARTCHAR U+003A
ENCODING 58
SWIDTH 571 0
DWIDTH 4 0
BBX 1 5 1 1
BITMAP
80
00
00
00
80
ENDCHAR
STARTCHAR U+003B
ENCODING 59
SWIDTH 571 0
DWIDTH 4 0
BBX 2 6 0 0
BITMAP
40
00
00
00
40
80
ENDCHAR
STARTCHAR U+003C
ENCODING 60
SWIDTH 571 0
DWIDTH 4 0
BBX 3 5 0 1
BITMAP
20
40
80
40
20
ENDCHAR
STARTCHAR U+003D
ENCODING 61
SWIDTH 857 0
DWIDTH 6 0
BBX 5 3 0 2
BITMAP
F8
00
F8
ENDCHAR
STARTCHAR U+003E
ENCODING 62
SWIDTH 571 0
DWIDTH 4 0
BBX 3 5 0 1
BITMAP
80
40
20
40
80
ENDCHAR
STARTCHAR U+003F
ENCODING 63
SWIDTH 714 0
DWIDTH 5 0
BBX 4 7 0 0
BITMAP
E0
10
20
40
40
00
40
ENDCHAR
STARTCHAR U+0040
ENCODING 64
SWIDTH 1000 0
DWIDTH 7 0
BBX 6 7 0 0
BITMAP
30
48
98
A8
90
44
38
ENDCHAR
STARTCHAR U+0041
ENCODING 65
SWIDTH 714 0
DWIDTH 5 0
BBX 4 7 0 0
BITMAP
60
90
90
F0
90
90
90
ENDCHAR
STARTCHAR U+0042
ENCODING 66
SWIDTH 714 0
DWIDTH 5 0
BBX 4 7 0 0
BITMAP
E0
90
90
E0
90
90
E0
ENDCHAR
STARTCHAR U+0043
ENCODING 67
SWIDTH 714 0
DWIDTH 5 0
BBX 4 7 0 0
BITMAP
70
80
80
80
80
80
70
ENDCHAR
STARTCHAR U+0044
ENCODING 68
SWIDTH 714 0
DWIDTH 5 0
BBX 4 7 0 0
BITMAP
E0
90
90
90
90
90
E0
ENDCHAR
STARTCHAR U+0045
ENCODING 69
SWIDTH 571 0
DWIDTH 4 0
BBX 3 7 0 0
BITMAP
E0
80
80
E0
80
80
E0
ENDCHAR
STARTCHAR U+0046
ENCODING 70
SWIDTH 571 0
DWIDTH 4 0
BBX 3 7 0 0
BITMAP
E0
80
80
E0
80
80
80
ENDCHAR
STARTCHAR U+0047
ENCODING 71
SWIDTH 714 0
DWIDTH 5 0
BBX 4 7 0 0
BITMAP
70
80
80
B0
90
90
60
ENDCHAR
STARTCHAR U+0048
ENCODING 72
SWIDTH 714 0
DWIDTH 5 0
BBX 4 7 0 0
BITMAP
90
90
90
F0
90
90
90
ENDCHAR
STARTCHAR U+0049
ENCODING 73
SWIDTH 285 0
DWIDTH 2 0
BBX 1 7 0 0
BITMAP
80
80
80
80
80
80
80
ENDCHAR
STARTCHAR U+004A
ENCODING 74
SWIDTH 571 0
DWIDTH 4 0
BBX 3 7 0 0
BITMAP
20
20
20
20
20
20
C0
ENDCHAR
STARTCHAR U+004B
ENCODING 75
SWIDTH 714 0
DWIDTH 5 0
BBX 4 7 0 0
BITMAP
90
A0
A0
C0
A0
A0
90
ENDCHAR
STARTCHAR U+004C
ENCODING 76
SWIDTH 571 0
DWIDTH 4 0
BBX 3 7 0 0
BITMAP
80
80
80
80
80
80
E0
ENDCHAR
STARTCHAR U+004D
ENCODING 77
SWIDTH 857 0
DWIDTH 6 0
BBX 5 7 0 0
BITMAP
88
D8
D8
A8
A8
88
88
ENDCHAR
STARTCHAR U+004E
ENCODING 78
SWIDTH 714 0
DWIDTH 5 0
BBX 4 7 0 0
BITMAP
90
D0
D0
B0
B0
90
90
ENDCHAR
STARTCHAR U+004F
ENCODING 79
SWIDTH 714 0
DWIDTH 5 0
BBX 4 7 0 0
BITMAP
60
90
90
90
90
90
60
ENDCHAR
STARTCHAR U+0050
ENCODING 80
SWIDTH 714 0
DWIDTH 5 0
BBX 4 7 0 0
BITMAP
E0
90
90
E0
80
80
80
ENDCHAR
STARTCHAR U+0051
ENCODING 81
SWIDTH 714 0
DWIDTH 5 0
BBX 4 7 0 0
BITMAP
60
90
90
90
90
A0
50
ENDCHAR
STARTCHAR U+0052
ENCODING 82
SWIDTH 714 0
DWIDTH 5 0
BBX 4 7 0 0
BITMAP
E0
90
90
E0
A0
90
90
ENDCHAR
STARTCHAR U+0053
ENCODING 83
SWIDTH 714 0
DWIDTH 5 0
BBX 4 7 0 0
BITMAP
70
80
80
60
10
10
E0
ENDCHAR
STARTCHAR U+0054
ENCODING 84
SWIDTH 857 0
DWIDTH 6 0
BBX 5 7 0 0
BITMAP
F8
20
20
20
20
20
20
ENDCHAR
STARTCHAR U+0055
ENCODING 85
SWIDTH 714 0
DWIDTH 5 0
BBX 4 7 0 0
BITMAP
90
90
90
90
90
90
60
ENDCHAR
STARTCHAR U+0056
ENCODING 86
SWIDTH 857 0
DWIDTH 6 0
BBX 5 7 0 0
BITMAP
88
88
50
50
50
20
20
ENDCHAR
STARTCHAR U+0057
ENCODING 87
SWIDTH 857 0
DWIDTH 6 0
BBX 5 7 0 0
BITMAP
88
A8
A8
A8
50
50
50
ENDCHAR
STARTCHAR U+0058
ENCODING 88
SWIDTH 857 0
DWIDTH 6 0
BBX 5 7 0 0
BITMAP
88
50
50
20
50
50
88
ENDCHAR
STARTCHAR U+0059
ENCODING 89
SWIDTH 857 0
DWIDTH 6 0
BBX 5 7 0 0
BITMAP
88
50
50
20
20
20
20
ENDCHAR
STARTCHAR U+005A
ENCODING 90
SWIDTH 714 0
DWIDTH 5 0
BBX 4 7 0 0
BITMAP
F0
10
20
60
40
80
F0
ENDCHAR
STARTCHAR U+005B
ENCODING 91
SWIDTH 428 0
DWIDTH 3 0
BBX 2 7 0 0
BITMAP
C0
80
80
80
80
80
C0
ENDCHAR
STARTCHAR U+005C
ENCODING 92
SWIDTH 571 0
DWIDTH 4 0
BBX 3 7 0 0
BITMAP
80
80
40
40
40
20
20
ENDCHAR
STARTCHAR U+005D
ENCODING 93
SWIDTH 428 0
DWIDTH 3 0
BBX 2 7 0 0
BITMAP
C0
40
40
40
40
40
C0
ENDCHAR
STARTCHAR U+005E
ENCODING 94
SWIDTH 571 0
DWIDTH 4 0
BBX 3 2 0 5
BITMAP
40
A0
ENDCHAR
STARTCHAR U+005F
ENCODING 95
SWIDTH 714 0
DWIDTH 5 0
BBX 4 1 0 0
BITMAP
F0
ENDCHAR
STARTCHAR U+0060
ENCODING 96
SWIDTH 428 0
DWIDTH 3 0
BBX 2 2 0 5
BITMAP
40
80
ENDCHAR
STARTCHAR U+0061
ENCODING 97
SWIDTH 714 0
DWIDTH 5 0
BBX 4 5 0 0
BITMAP
E0
10
70
90
70
ENDCHAR
STARTCHAR U+0062
ENCODING 98
SWIDTH 714 0
DWIDTH 5 0
BBX 4 7 0 0
BITMAP
80
80
E0
90
90
90
E0
ENDCHAR
STARTCHAR U+0063
ENCODING 99
SWIDTH 714 0
DWIDTH 5 0
BBX 4 5 0 0
BITMAP
70
80
80
80
70
ENDCHAR
STARTCHAR U+0064
ENCODING 100
SWIDTH 714 0
DWIDTH 5 0
BBX 4 7 0 0
BITMAP
10
10
70
90
90
90
70
ENDCHAR
STARTCHAR U+0065
ENCODING 101
SWIDTH 714 0
DWIDTH 5 0
BBX 4 5 0 0
BITMAP
60
90
F0
80
70
ENDCHAR
STARTCHAR U+0066
ENCODING 102
SWIDTH 571 0
DWIDTH 4 0
BBX 3 7 0 0
BITMAP
20
40
E0
40
40
40
40
ENDCHAR
STARTCHAR U+0067
ENCODING 103
SWIDTH 714 0
DWIDTH 5 0
BBX 4 6 0 -1
BITMAP
70
90
90
70
10
E0
ENDCHAR
STARTCHAR U+0068
ENCODING 104
SWIDTH 714 0
DWIDTH 5 0
BBX 4 7 0 0
BITMAP
80
80
E0
90
90
90
90
ENDCHAR
STARTCHAR U+0069
ENCODING 105
SWIDTH 285 0
DWIDTH 2 0
BBX 1 7 0 0
BITMAP
80
00
80
80
80
80
80
ENDCHAR
STARTCHAR U+006A
ENCODING 106
SWIDTH 571 0
DWIDTH 4 0
BBX 3 8 0 -1
BITMAP
20
00
20
20
20
20
20
C0
ENDCHAR
STARTCHAR U+006B
ENCODING 107
SWIDTH 714 0
DWIDTH 5 0
BBX 4 7 0 0
BITMAP
80
80
90
A0
C0
A0
90
ENDCHAR
STARTCHAR U+006C
ENCODING 108
SWIDTH 571 0
DWIDTH 4 0
BBX 2 7 0 0
BITMAP
C0
40
40
40
40
40
40
ENDCHAR
STARTCHAR U+006D
ENCODING 109
SWIDTH 857 0
DWIDTH 6 0
BBX 5 5 0 0
BITMAP
F0
A8
A8
A8
A8
ENDCHAR
STARTCHAR U+006E
ENCODING 110
SWIDTH 714 0
DWIDTH 5 0
BBX 4 5 0 0
BITMAP
E0
90
90
90
90
ENDCHAR
STARTCHAR U+006F
ENCODING 111
SWIDTH 714 0
DWIDTH 5 0
BBX 4 5 0 0
BITMAP
60
90
90
90
60
ENDCHAR
STARTCHAR U+0070
ENCODING 112
SWIDTH 714 0
DWIDTH 5 0
BBX 4 6 0 -1
BITMAP
E0
90
90
E0
80
80
ENDCHAR
STARTCHAR U+0071
ENCODING 113
SWIDTH 714 0
DWIDTH 5 0
BBX 4 6 0 -1
BITMAP
70
90
90
70
10
10
ENDCHAR
STARTCHAR U+0072
ENCODING 114
SWIDTH 571 0
DWIDTH 4 0
BBX 3 5 0 0
BITMAP
A0
C0
80
80
80
ENDCHAR
STARTCHAR U+0073
ENCODING 115
SWIDTH 714 0
DWIDTH 5 0
BBX 4 5 0 0
BITMAP
70
80
60
10
E0
ENDCHAR
STARTCHAR U+0074
ENCODING 116
SWIDTH 571 0
DWIDTH 4 0
BBX 3 6 0 0
BITMAP
40
E0
40
40
40
20
ENDCHAR
STARTCHAR U+0075
ENCODING 117
SWIDTH 714 0
DWIDTH 5 0
BBX 4 5 0 0
BITMAP
90
90
90
90
70
ENDCHAR
STARTCHAR U+0076
ENCODING 118
SWIDTH 857 0
DWIDTH 6 0
BBX 5 5 0 0
BITMAP
88
88
50
50
20
ENDCHAR
STARTCHAR U+0077
ENCODING 119
SWIDTH 857 0
DWIDTH 6 0
BBX 5 5 0 0
BITMAP
88
A8
A8
50
50
ENDCHAR
STARTCHAR U+0078
ENCODING 120
SWIDTH 857 0
DWIDTH 6 0
BBX 5 5 0 0
BITMAP
88
50
20
50
88
ENDCHAR
STARTCHAR U+0079
ENCODING 121
SWIDTH 714 0
DWIDTH 5 0
BBX 4 6 0 -1
BITMAP
90
90
90
70
10
E0
ENDCHAR
STARTCHAR U+007A
ENCODING 122
SWIDTH 714 0
DWIDTH 5 0
BBX 4 5 0 0
BITMAP
F0
10
60
80
F0
ENDCHAR
STARTCHAR U+007B
ENCODING 123
SWIDTH 571 0
DWIDTH 4 0
BBX 3 7 0 0
BITMAP
20
40
40
80
40
40
20
ENDCHAR
STARTCHAR U+007C
ENCODING 124
SWIDTH 285 0
DWIDTH 2 0
BBX 1 7 0 0
BITMAP
80
80
80
80
80
80
80
ENDCHAR
STARTCHAR U+007D
ENCODING 125
SWIDTH 571 0
DWIDTH 4 0
BBX 3 7 0 0
BITMAP
80
40
40
20
40
40
80
ENDCHAR
STARTCHAR U+007E
ENCODING 126
SWIDTH 1000 0
DWIDTH 7 0
BBX 6 2 0 3
BITMAP
64
98
ENDCHAR
STARTCHAR U+00A0
ENCODING 160
SWIDTH 428 0
DWIDTH 3 0
BBX 0 0 0 0
BITMAP
ENDCHAR
STARTCHAR U+00A1
ENCODING 161
SWIDTH 285 0
DWIDTH 2 0
BBX 1 7 0 0
BITMAP
80
00
80
80
80
80
80
ENDCHAR
STARTCHAR U+00A2
ENCODING 162
SWIDTH 857 0
DWIDTH 6 0
BBX 5 7 0 0
BITMAP
08
70
98
A0
C8
70
80
ENDCHAR
STARTCHAR U+00A3
ENCODING 163
SWIDTH 714 0
DWIDTH 5 0
BBX 4 7 0 0
BITMAP
20
50
40
F0
20
40
F0
ENDCHAR
STARTCHAR U+00A6
ENCODING 166
SWIDTH 285 0
DWIDTH 2 0
BBX 1 7 0 0
BITMAP
80
80
80
00
80
80
80
ENDCHAR
STARTCHAR U+00A8
ENCODING 168
SWIDTH 571 0
DWIDTH 4 0
BBX 3 1 0 6
BITMAP
A0
ENDCHAR
STARTCHAR U+00A9
ENCODING 169
SWIDTH 1142 0
DWIDTH 8 0
BBX 7 7 0 0
BITMAP
38
44
BA
A2
BA
44
38
ENDCHAR
STARTCHAR U+00AB
ENCODING 171
SWIDTH 714 0
DWIDTH 5 0
BBX 4 3 0 2
BITMAP
50
A0
50
ENDCHAR
STARTCHAR U+00AE
ENCODING 174
SWIDTH 1142 0
DWIDTH 8 0
BBX 7 7 0 0
BITMAP
38
74
AA
B2
AA
44
38
ENDCHAR
STARTCHAR U+00B0
ENCODING 176
SWIDTH 571 0
DWIDTH 4 0
BBX 3 3 0 4
BITMAP
40
A0
40
ENDCHAR
STARTCHAR U+00B1
ENCODING 177
SWIDTH 857 0
DWIDTH 6 0
BBX 5 7 0 0
BITMAP
20
20
F8
20
20
00
F8
ENDCHAR
STARTCHAR U+00B7
ENCODING 183
SWIDTH 285 0
DWIDTH 2 0
BBX 1 1 0 3
BITMAP
80
ENDCHAR
STARTCHAR U+00BB
ENCODING 187
SWIDTH 714 0
DWIDTH 5 0
BBX 4 3 0 2
BITMAP
A0
50
A0
ENDCHAR
STARTCHAR U+00BF
ENCODING 191
SWIDTH 714 0
DWIDTH 5 0
BBX 4 7 0 0
BITMAP
20
00
20
20
40
80
70
ENDCHAR
STARTCHAR U+00C0
ENCODING 192
SWIDTH 714 0
DWIDTH 5 0
BBX 4 8 0 0
BITMAP
40
20
60
90
90
F0
90
90
ENDCHAR
STARTCHAR U+00C1
ENCODING 193
SWIDTH 714 0
DWIDTH 5 0
BBX 4 8 0 0
BITMAP
20
40
60
90
90
F0
90
90
ENDCHAR
STARTCHAR U+00C2
ENCODING 194
SWIDTH 714 0
DWIDTH 5 0
BBX 4 8 0 0
BITMAP
20
50
00
60
90
F0
90
90
ENDCHAR
STARTCHAR U+00C3
ENCODING 195
SWIDTH 714 0
DWIDTH 5 0
BBX 4 8 0 0
BITMAP
50
A0
60
90
90
F0
90
90
ENDCHAR
STARTCHAR U+00C4
ENCODING 196
SWIDTH 714 0
DWIDTH 5 0
BBX 4 8 0 0
BITMAP
50
00
60
90
90
F0
90
90
ENDCHAR
STARTCHAR U+00C5
ENCODING 197
SWIDTH 714 0
DWIDTH 5 0
BBX 4 8 0 0
BITMAP
20
50
20
60
90
F0
90
90
ENDCHAR
STARTCHAR U+00C6
ENCODING 198
SWIDTH 857 0
DWIDTH 6 0
BBX 5 7 0 0
BITMAP
78
A0
A0
B8
E0
A0
B8
ENDCHAR
STARTCHAR U+00C7
ENCODING 199
SWIDTH 714 0
DWIDTH 5 0
BBX 4 7 0 0
BITMAP
70
80
80
80
70
20
40
ENDCHAR
STARTCHAR U+00C8
ENCODING 200
SWIDTH 714 0
DWIDTH 5 0
BBX 4 8 0 0
BITMAP
40
20
F0
80
F0
80
80
F0
ENDCHAR
STARTCHAR U+00C9
ENCODING 201
SWIDTH 714 0
DWIDTH 5 0
BBX 4 8 0 0
BITMAP
20
40
F0
80
F0
80
80
F0
ENDCHAR
STARTCHAR U+00CA
ENCODING 202
SWIDTH 714 0
DWIDTH 5 0
BBX 4 8 0 0
BITMAP
20
50
F0
80
F0
80
80
F0
ENDCHAR
STARTCHAR U+00CB
ENCODING 203
SWIDTH 714 0
DWIDTH 5 0
BBX 4 8 0 0
BITMAP
50
00
F0
80
F0
80
80
F0
ENDCHAR
STARTCHAR U+00CC
ENCODING 204
SWIDTH 428 0
DWIDTH 3 0
BBX 2 8 0 0
BITMAP
80
40
00
40
40
40
40
40
ENDCHAR
STARTCHAR U+00CD
ENCODING 205
SWIDTH 428 0
DWIDTH 3 0
BBX 2 8 0 0
BITMAP
40
80
00
80
80
80
80
80
ENDCHAR
STARTCHAR U+00CE
ENCODING 206
SWIDTH 571 0
DWIDTH 4 0
BBX 3 8 0 0
BITMAP
40
A0
00
40
40
40
40
40
ENDCHAR
STARTCHAR U+00CF
ENCODING 207
SWIDTH 571 0
DWIDTH 4 0
BBX 3 7 0 0
BITMAP
A0
00
40
40
40
40
40
ENDCHAR
STARTCHAR U+00D0
ENCODING 208
SWIDTH 857 0
DWIDTH 6 0
BBX 5 7 0 0
BITMAP
70
48
48
E8
48
48
70
ENDCHAR
STARTCHAR U+00D1
ENCODING 209
SWIDTH 857 0
DWIDTH 6 0
BBX 5 8 0 0
BITMAP
28
50
88
C8
A8
A8
98
88
ENDCHAR
STARTCHAR U+00D2
ENCODING 210
SWIDTH 714 0
DWIDTH 5 0
BBX 4 8 0 0
BITMAP
40
20
60
90
90
90
90
60
ENDCHAR
STARTCHAR U+00D3
ENCODING 211
SWIDTH 714 0
DWIDTH 5 0
BBX 4 8 0 0
BITMAP
20
40
60
90
90
90
90
60
ENDCHAR
STARTCHAR U+00D4
ENCODING 212
SWIDTH 714 0
DWIDTH 5 0
BBX 4 8 0 0
BITMAP
20
50
60
90
90
90
90
60
ENDCHAR
STARTCHAR U+00D5
ENCODING 213
SWIDTH 714 0
DWIDTH 5 0
BBX 4 8 0 0
BITMAP
50
A0
60
90
90
90
90
60
ENDCHAR
STARTCHAR U+00D6
ENCODING 214
SWIDTH 714 0
DWIDTH 5 0
BBX 4 8 0 0
BITMAP
50
00
60
90
90
90
90
60
ENDCHAR
STARTCHAR U+00D7
ENCODING 215
SWIDTH 571 0
DWIDTH 4 0
BBX 3 3 0 2
BITMAP
A0
40
A0
ENDCHAR
STARTCHAR U+00D8
ENCODING 216
SWIDTH 1000 0
DWIDTH 7 0
BBX 6 6 0 0
BITMAP
34
48
58
68
48
B0
ENDCHAR
STARTCHAR U+00D9
ENCODING 217
SWIDTH 714 0
DWIDTH 5 0
BBX 4 8 0 0
BITMAP
80
40
90
90
90
90
90
60
ENDCHAR
STARTCHAR U+00DA
ENCODING 218
SWIDTH 714 0
DWIDTH 5 0
BBX 4 8 0 0
BITMAP
10
20
90
90
90
90
90
60
ENDCHAR
STARTCHAR U+00DB
ENCODING 219
SWIDTH 714 0
DWIDTH 5 0
BBX 4 8 0 0
BITMAP
20
50
90
90
90
90
90
60
ENDCHAR
STARTCHAR U+00DC
ENCODING 220
SWIDTH 714 0
DWIDTH 5 0
BBX 4 8 0 0
BITMAP
50
00
90
90
90
90
90
60
ENDCHAR
STARTCHAR U+00DD
ENCODING 221
SWIDTH 857 0
DWIDTH 6 0
BBX 5 8 0 0
BITMAP
10
20
88
50
50
20
20
20
ENDCHAR
STARTCHAR U+00DE
ENCODING 222
SWIDTH 571 0
DWIDTH 4 0
BBX 4 7 0 0
BITMAP
80
E0
90
90
E0
80
80
ENDCHAR
STARTCHAR U+00DF
ENCODING 223
SWIDTH 714 0
DWIDTH 5 0
BBX 4 7 0 0
BITMAP
60
90
90
A0
90
90
A0
ENDCHAR
STARTCHAR U+00E0
ENCODING 224
SWIDTH 714 0
DWIDTH 5 0
BBX 4 7 0 0
BITMAP
40
20
E0
10
70
90
70
ENDCHAR
STARTCHAR U+00E1
ENCODING 225
SWIDTH 714 0
DWIDTH 5 0
BBX 4 7 0 0
BITMAP
20
40
E0
10
70
90
70
ENDCHAR
STARTCHAR U+00E2
ENCODING 226
SWIDTH 714 0
DWIDTH 5 0
BBX 4 7 0 0
BITMAP
20
50
E0
10
70
90
70
ENDCHAR
STARTCHAR U+00E3
ENCODING 227
SWIDTH 857 0
DWIDTH 6 0
BBX 5 7 0 0
BITMAP
28
50
E0
10
70
90
70
ENDCHAR
STARTCHAR U+00E4
ENCODING 228
SWIDTH 714 0
DWIDTH 5 0
BBX 4 7 0 0
BITMAP
50
00
E0
10
70
90
70
ENDCHAR
STARTCHAR U+00E5
ENCODING 229
SWIDTH 714 0
DWIDTH 5 0
BBX 4 7 0 0
BITMAP
20
50
E0
10
70
90
70
ENDCHAR
STARTCHAR U+00E6
ENCODING 230
SWIDTH 857 0
DWIDTH 6 0
BBX 5 5 0 0
BITMAP
D0
28
78
A0
58
ENDCHAR
STARTCHAR U+00E7
ENCODING 231
SWIDTH 714 0
DWIDTH 5 0
BBX 4 5 0 0
BITMAP
70
80
80
70
C0
ENDCHAR
STARTCHAR U+00E8
ENCODING 232
SWIDTH 714 0
DWIDTH 5 0
BBX 4 7 0 0
BITMAP
40
20
60
90
F0
80
70
ENDCHAR
STARTCHAR U+00E9
ENCODING 233
SWIDTH 714 0
DWIDTH 5 0
BBX 4 7 0 0
BITMAP
20
40
60
90
F0
80
70
ENDCHAR
STARTCHAR U+00EA
ENCODING 234
SWIDTH 714 0
DWIDTH 5 0
BBX 4 7 0 0
BITMAP
20
50
60
90
F0
80
70
ENDCHAR
STARTCHAR U+00EB
ENCODING 235
SWIDTH 714 0
DWIDTH 5 0
BBX 4 7 0 0
BITMAP
50
00
60
90
F0
80
70
ENDCHAR
STARTCHAR U+00EC
ENCODING 236
SWIDTH 428 0
DWIDTH 3 0
BBX 2 7 0 0
BITMAP
80
40
00
40
40
40
40
ENDCHAR
STARTCHAR U+00ED
ENCODING 237
SWIDTH 428 0
DWIDTH 3 0
BBX 2 7 0 0
BITMAP
40
80
00
80
80
80
80
ENDCHAR
STARTCHAR U+00EE
ENCODING 238
SWIDTH 571 0
DWIDTH 4 0
BBX 3 7 0 0
BITMAP
40
A0
00
40
40
40
40
ENDCHAR
STARTCHAR U+00EF
ENCODING 239
SWIDTH 571 0
DWIDTH 4 0
BBX 3 6 0 0
BITMAP
A0
00
40
40
40
40
ENDCHAR
STARTCHAR U+00F0
ENCODING 240
SWIDTH 714 0
DWIDTH 5 0
BBX 4 7 0 0
BITMAP
A0
40
A0
10
70
90
60
ENDCHAR
STARTCHAR U+00F1
ENCODING 241
SWIDTH 714 0
DWIDTH 5 0
BBX 4 8 0 0
BITMAP
50
A0
00
E0
90
90
90
90
ENDCHAR
STARTCHAR U+00F2
ENCODING 242
SWIDTH 714 0
DWIDTH 5 0
BBX 4 7 0 0
BITMAP
40
20
60
90
90
90
60
ENDCHAR
STARTCHAR U+00F3
ENCODING 243
SWIDTH 714 0
DWIDTH 5 0
BBX 4 7 0 0
BITMAP
20
40
60
90
90
90
60
ENDCHAR
STARTCHAR U+00F4
ENCODING 244
SWIDTH 714 0
DWIDTH 5 0
BBX 4 7 0 0
BITMAP
20
50
60
90
90
90
60
ENDCHAR
STARTCHAR U+00F5
ENCODING 245
SWIDTH 714 0
DWIDTH 5 0
BBX 4 7 0 0
BITMAP
50
A0
60
90
90
90
60
ENDCHAR
STARTCHAR U+00F6
ENCODING 246
SWIDTH 714 0
DWIDTH 5 0
BBX 4 7 0 0
BITMAP
50
00
60
90
90
90
60
ENDCHAR
STARTCHAR U+00F7
ENCODING 247
SWIDTH 857 0
DWIDTH 6 0
BBX 5 5 0 1
BITMAP
20
00
F8
00
20
ENDCHAR
STARTCHAR U+00F8
ENCODING 248
SWIDTH 1000 0
DWIDTH 7 0
BBX 6 5 0 0
BITMAP
34
58
68
48
B0
ENDCHAR
STARTCHAR U+00F9
ENCODING 249
SWIDTH 714 0
DWIDTH 5 0
BBX 4 8 0 0
BITMAP
40
20
00
90
90
90
90
70
ENDCHAR
STARTCHAR U+00FA
ENCODING 250
SWIDTH 714 0
DWIDTH 5 0
BBX 4 8 0 0
BITMAP
20
40
00
90
90
90
90
70
ENDCHAR
STARTCHAR U+00FB
ENCODING 251
SWIDTH 714 0
DWIDTH 5 0
BBX 4 8 0 0
BITMAP
20
50
00
90
90
90
90
70
ENDCHAR
STARTCHAR U+00FC
ENCODING 252
SWIDTH 714 0
DWIDTH 5 0
BBX 4 7 0 0
BITMAP
50
00
90
90
90
90
70
ENDCHAR
STARTCHAR U+00FD
ENCODING 253
SWIDTH 714 0
DWIDTH 5 0
BBX 4 9 0 -1
BITMAP
20
40
00
90
90
90
70
10
E0
ENDCHAR
STARTCHAR U+00FE
ENCODING 254
SWIDTH 571 0
DWIDTH 4 0
BBX 4 7 0 -1
BITMAP
80
E0
90
90
E0
80
80
ENDCHAR
STARTCHAR U+00FF
ENCODING 255
SWIDTH 714 0
DWIDTH 5 0
BBX 4 8 0 -1
BITMAP
50
00
90
90
90
70
10
E0
ENDCHAR
STARTCHAR U+2010
ENCODING 8208
SWIDTH 571 0
DWIDTH 4 0
BBX 3 1 0 3
BITMAP
E0
ENDCHAR
STARTCHAR U+2011
ENCODING 8209
SWIDTH 571 0
DWIDTH 4 0
BBX 3 1 0 3
BITMAP
E0
ENDCHAR
STARTCHAR U+2012
ENCODING 8210
SWIDTH 714 0
DWIDTH 5 0
BBX 4 1 0 3
BITMAP
F0
ENDCHAR
STARTCHAR U+2013
ENCODING 8211
SWIDTH 571 0
DWIDTH 4 0
BBX 3 1 0 3
BITMAP
E0
ENDCHAR
STARTCHAR U+2014
ENCODING 8212
SWIDTH 1142 0
DWIDTH 8 0
BBX 7 1 0 3
BITMAP
FE
ENDCHAR
STARTCHAR U+2015
ENCODING 8213
SWIDTH 1142 0
DWIDTH 8 0
BBX 7 1 0 3
BITMAP
FE
ENDCHAR
STARTCHAR U+2016
ENCODING 8214
SWIDTH 571 0
DWIDTH 4 0
BBX 3 7 0 0
BITMAP
A0
A0
A0
A0
A0
A0
A0
ENDCHAR
STARTCHAR U+2017
ENCODING 8215
SWIDTH 571 0
DWIDTH 4 0
BBX 3 3 0 0
BITMAP
E0
00
E0
ENDCHAR
STARTCHAR U+2018
ENCODING 8216
SWIDTH 428 0
DWIDTH 3 0
BBX 2 2 0 5
BITMAP
40
80
ENDCHAR
STARTCHAR U+2019
ENCODING 8217
SWIDTH 428 0
DWIDTH 3 0
BBX 2 2 0 5
BITMAP
40
80
ENDCHAR
STARTCHAR U+201A
ENCODING 8218
SWIDTH 428 0
DWIDTH 3 0
BBX 2 2 0 -1
BITMAP
40
80
ENDCHAR
STARTCHAR U+201B
ENCODING 8219
SWIDTH 428 0
DWIDTH 3 0
BBX 2 2 1 5
BITMAP
80
40
ENDCHAR
STARTCHAR U+201C
ENCODING 8220
SWIDTH 714 0
DWIDTH 5 0
BBX 4 2 0 5
BITMAP
50
A0
ENDCHAR
STARTCHAR U+201D
ENCODING 8221
SWIDTH 714 0
DWIDTH 5 0
BBX 4 2 0 5
BITMAP
50
A0
ENDCHAR
STARTCHAR U+201E
ENCODING 8222
SWIDTH 714 0
DWIDTH 5 0
BBX 4 2 0 -1
BITMAP
50
A0
ENDCHAR
STARTCHAR U+201F
ENCODING 8223
SWIDTH 714 0
DWIDTH 5 0
BBX 4 2 1 5
BITMAP
A0
50
ENDCHAR
STARTCHAR U+2022
ENCODING 8226
SWIDTH 428 0
DWIDTH 3 0
BBX 2 2 0 3
BITMAP
C0
C0
ENDCHAR
STARTCHAR U+2023
ENCODING 8227
SWIDTH 428 0
DWIDTH 3 0
BBX 2 3 0 2
BITMAP
80
C0
80
ENDCHAR
STARTCHAR U+2024
ENCODING 8228
SWIDTH 285 0
DWIDTH 2 0
BBX 1 1 0 1
BITMAP
80
ENDCHAR
STARTCHAR U+2025
ENCODING 8229
SWIDTH 571 0
DWIDTH 4 0
BBX 3 1 0 3
BITMAP
A0
ENDCHAR
STARTCHAR U+2026
ENCODING 8230
SWIDTH 857 0
DWIDTH 6 0
BBX 5 1 0 3
BITMAP
A8
ENDCHAR
STARTCHAR U+2027
ENCODING 8231
SWIDTH 285 0
DWIDTH 2 0
BBX 1 1 0 3
BITMAP
80
ENDCHAR
STARTCHAR U+2190
ENCODING 8592
SWIDTH 1142 0
DWIDTH 8 0
BBX 7 3 0 2
BITMAP
40
FE
40
ENDCHAR
STARTCHAR U+2191
ENCODING 8593
SWIDTH 1142 0
DWIDTH 8 0
BBX 3 7 2 0
BITMAP
40
E0
40
40
40
40
40
ENDCHAR
STARTCHAR U+2192
ENCODING 8594
SWIDTH 1142 0
DWIDTH 8 0
BBX 7 3 0 2
BITMAP
04
FE
04
ENDCHAR
STARTCHAR U+2193
ENCODING 8595
SWIDTH 1142 0
DWIDTH 8 0
BBX 3 7 2 0
BITMAP
40
40
40
40
40
E0
40
ENDCHAR
STARTCHAR U+2194
ENCODING 8596
SWIDTH 1142 0
DWIDTH 8 0
BBX 7 3 0 2
BITMAP
44
FE
44
ENDCHAR
STARTCHAR U+2195
ENCODING 8597
SWIDTH 1142 0
DWIDTH 8 0
BBX 3 7 2 0
BITMAP
40
E0
40
40
40
E0
40
ENDCHAR
STARTCHAR U+2196
ENCODING 8598
SWIDTH 1142 0
DWIDTH 8 0
BBX 5 5 1 1
BITMAP
E0
C0
A0
10
08
ENDCHAR
STARTCHAR U+2197
ENCODING 8599
SWIDTH 1142 0
DWIDTH 8 0
BBX 5 5 1 1
BITMAP
38
18
28
40
80
ENDCHAR
STARTCHAR U+2198
ENCODING 8600
SWIDTH 1142 0
DWIDTH 8 0
BBX 5 5 1 1
BITMAP
80
40
28
18
38
ENDCHAR
STARTCHAR U+2199
ENCODING 8601
SWIDTH 1142 0
DWIDTH 8 0
BBX 5 5 1 1
BITMAP
08
10
A0
C0
E0
ENDCHAR
STARTCHAR U+2460
ENCODING 9312
SWIDTH 1142 0
DWIDTH 8 0
BBX 7 7 0 0
BITMAP
7C
EE
CE
EE
EE
EE
7C
ENDCHAR
STARTCHAR U+2461
ENCODING 9313
SWIDTH 1142 0
DWIDTH 8 0
BBX 7 7 0 0
BITMAP
7C
CE
F6
EE
DE
C6
7C
ENDCHAR
STARTCHAR U+2462
ENCODING 9314
SWIDTH 1142 0
DWIDTH 8 0
BBX 7 7 0 0
BITMAP
7C
C6
F6
EE
F6
CE
7C
ENDCHAR
STARTCHAR U+2463
ENCODING 9315
SWIDTH 1142 0
DWIDTH 8 0
BBX 7 7 0 0
BITMAP
7C
EE
DE
D6
C6
F6
7C
ENDCHAR
STARTCHAR U+2464
ENCODING 9316
SWIDTH 1142 0
DWIDTH 8 0
BBX 7 7 0 0
BITMAP
7C
C6
DE
C6
F6
CE
7C
ENDCHAR
STARTCHAR U+2465
ENCODING 9317
SWIDTH 1142 0
DWIDTH 8 0
BBX 7 7 0 0
BITMAP
7C
E6
DE
C6
D6
CE
7C
ENDCHAR
STARTCHAR U+2466
ENCODING 9318
SWIDTH 1142 0
DWIDTH 8 0
BBX 7 7 0 0
BITMAP
7C
C6
F6
EE
EE
EE
7C
ENDCHAR
STARTCHAR U+2467
ENCODING 9319
SWIDTH 1142 0
DWIDTH 8 0
BBX 7 7 0 0
BITMAP
7C
E6
D6
EE
D6
CE
7C
ENDCHAR
STARTCHAR U+2468
ENCODING 9320
SWIDTH 1142 0
DWIDTH 8 0
BBX 7 7 0 0
BITMAP
7C
E6
D6
C6
F6
CE
7C
ENDCHAR
STARTCHAR U+24EA
ENCODING 9450
SWIDTH 1142 0
DWIDTH 8 0
BBX 7 7 0 0
BITMAP
7C
E6
D6
D6
D6
CE
7C
ENDCHAR
STARTCHAR U+25A0
ENCODING 9632
SWIDTH 1142 0
DWIDTH 8 0
BBX 7 7 0 0
BITMAP
FE
FE
FE
FE
FE
FE
FE
ENDCHAR
STARTCHAR U+25A1
ENCODING 9633
SWIDTH 1142 0
DWIDTH 8 0
BBX 7 7 0 0
BITMAP
FE
82
82
82
82
82
FE
ENDCHAR
STARTCHAR U+25A2
ENCODING 9634
SWIDTH 1142 0
DWIDTH 8 0
BBX 7 7 0 0
BITMAP
7C
82
82
82
82
82
7C
ENDCHAR
STARTCHAR U+25A3
ENCODING 9635
SWIDTH 1142 0
DWIDTH 8 0
BBX 7 7 0 0
BITMAP
FE
82
BA
BA
BA
82
FE
ENDCHAR
STARTCHAR U+25A4
ENCODING 9636
SWIDTH 1142 0
DWIDTH 8 0
BBX 7 7 0 0
BITMAP
FE
82
FE
82
FE
82
FE
ENDCHAR
STARTCHAR U+25A5
ENCODING 9637
SWIDTH 1142 0
DWIDTH 8 0
BBX 7 7 0 0
BITMAP
FE
AA
AA
AA
AA
AA
FE
ENDCHAR
STARTCHAR U+25A6
ENCODING 9638
SWIDTH 1142 0
DWIDTH 8 0
BBX 7 7 0 0
BITMAP
FE
AA
FE
AA
FE
AA
FE
ENDCHAR
STARTCHAR U+25A7
ENCODING 9639
SWIDTH 1142 0
DWIDTH 8 0
BBX 7 7 0 0
BITMAP
FE
CA
A6
92
CA
A6
FE
ENDCHAR
STARTCHAR U+25A8
ENCODING 9640
SWIDTH 1142 0
DWIDTH 8 0
BBX 7 7 0 0
BITMAP
FE
A6
CA
92
A6
CA
FE
ENDCHAR
STARTCHAR U+25A9
ENCODING 9641
SWIDTH 1142 0
DWIDTH 8 0
BBX 7 7 0 0
BITMAP
FE
D6
AA
D6
AA
D6
FE
ENDCHAR
STARTCHAR U+25AA
ENCODING 9642
SWIDTH 1142 0
DWIDTH 8 0
BBX 3 3 2 2
BITMAP
E0
E0
E0
ENDCHAR
STARTCHAR U+25AB
ENCODING 9643
SWIDTH 1142 0
DWIDTH 8 0
BBX 3 3 2 2
BITMAP
E0
A0
E0
ENDCHAR
STARTCHAR U+25B2
ENCODING 9650
SWIDTH 1142 0
DWIDTH 8 0
BBX 7 7 0 0
BITMAP
10
38
38
7C
7C
FE
FE
ENDCHAR
STARTCHAR U+25B3
ENCODING 9651
SWIDTH 1142 0
DWIDTH 8 0
BBX 7 7 0 0
BITMAP
10
28
28
44
44
82
FE
ENDCHAR
STARTCHAR U+25B6
ENCODING 9654
SWIDTH 1142 0
DWIDTH 8 0
BBX 7 7 0 0
BITMAP
C0
F0
FC
FE
FC
F0
C0
ENDCHAR
STARTCHAR U+25B7
ENCODING 9655
SWIDTH 1142 0
DWIDTH 8 0
BBX 7 7 0 0
BITMAP
C0
B0
8C
82
8C
B0
C0
ENDCHAR
STARTCHAR U+25BC
ENCODING 9660
SWIDTH 1142 0
DWIDTH 8 0
BBX 7 7 0 0
BITMAP
FE
FE
7C
7C
38
38
10
ENDCHAR
STARTCHAR U+25BD
ENCODING 9661
SWIDTH 1142 0
DWIDTH 8 0
BBX 7 7 0 0
BITMAP
FE
82
44
44
28
28
10
ENDCHAR
STARTCHAR U+25C0
ENCODING 9664
SWIDTH 1142 0
DWIDTH 8 0
BBX 7 7 0 0
BITMAP
06
1E
7E
FE
7E
1E
06
ENDCHAR
STARTCHAR U+25C1
ENCODING 9665
SWIDTH 1142 0
DWIDTH 8 0
BBX 7 7 0 0
BITMAP
06
1A
62
82
62
1A
06
ENDCHAR
STARTCHAR U+25C6
ENCODING 9670
SWIDTH 1142 0
DWIDTH 8 0
BBX 7 7 0 0
BITMAP
10
38
7C
FE
7C
38
10
ENDCHAR
STARTCHAR U+25C7
ENCODING 9671
SWIDTH 1142 0
DWIDTH 8 0
BBX 7 7 0 0
BITMAP
10
28
44
82
44
28
10
ENDCHAR
STARTCHAR U+25C8
ENCODING 9672
SWIDTH 1142 0
DWIDTH 8 0
BBX 7 7 0 0
BITMAP
10
28
54
BA
54
28
10
ENDCHAR
STARTCHAR U+25C9
ENCODING 9673
SWIDTH 1142 0
DWIDTH 8 0
BBX 7 7 0 0
BITMAP
38
44
BA
BA
BA
44
38
ENDCHAR
STARTCHAR U+25CB
ENCODING 9675
SWIDTH 1142 0
DWIDTH 8 0
BBX 7 7 0 0
BITMAP
38
44
82
82
82
44
38
ENDCHAR
STARTCHAR U+25CC
ENCODING 9676
SWIDTH 1142 0
DWIDTH 8 0
BBX 7 7 0 0
BITMAP
10
44
00
82
00
44
10
ENDCHAR
STARTCHAR U+25CD
ENCODING 9677
SWIDTH 1142 0
DWIDTH 8 0
BBX 7 7 0 0
BITMAP
38
6C
AA
AA
AA
6C
38
ENDCHAR
STARTCHAR U+25CE
ENCODING 9678
SWIDTH 1142 0
DWIDTH 8 0
BBX 7 7 0 0
BITMAP
38
44
92
AA
92
44
38
ENDCHAR
STARTCHAR U+25CF
ENCODING 9679
SWIDTH 1142 0
DWIDTH 8 0
BBX 7 7 0 0
BITMAP
38
7C
FE
FE
FE
7C
38
ENDCHAR
STARTCHAR U+25D0
ENCODING 9680
SWIDTH 1142 0
DWIDTH 8 0
BBX 7 7 0 0
BITMAP
38
74
F2
F2
F2
74
38
ENDCHAR
STARTCHAR U+25D1
ENCODING 9681
SWIDTH 1142 0
DWIDTH 8 0
BBX 7 7 0 0
BITMAP
38
5C
9E
9E
9E
5C
38
ENDCHAR
STARTCHAR U+25D2
ENCODING 9682
SWIDTH 1142 0
DWIDTH 8 0
BBX 7 7 0 0
BITMAP
38
44
82
FE
FE
7C
38
ENDCHAR
STARTCHAR U+25D3
ENCODING 9683
SWIDTH 1142 0
DWIDTH 8 0
BBX 7 7 0 0
BITMAP
38
7C
FE
FE
82
44
38
ENDCHAR
STARTCHAR U+25D4
ENCODING 9684
SWIDTH 1142 0
DWIDTH 8 0
BBX 7 7 0 0
BITMAP
38
5C
9E
9E
82
44
38
ENDCHAR
STARTCHAR U+25D5
ENCODING 9685
SWIDTH 1142 0
DWIDTH 8 0
BBX 7 7 0 0
BITMAP
38
5C
9E
FE
FE
7C
38
ENDCHAR
STARTCHAR U+25D6
ENCODING 9686
SWIDTH 1142 0
DWIDTH 8 0
BBX 4 7 0 0
BITMAP
30
70
F0
F0
F0
70
30
ENDCHAR
STARTCHAR U+25D7
ENCODING 9687
SWIDTH 1142 0
DWIDTH 8 0
BBX 4 7 3 0
BITMAP
C0
E0
F0
F0
F0
E0
C0
ENDCHAR
STARTCHAR U+25D8
ENCODING 9688
SWIDTH 1142 0
DWIDTH 8 0
BBX 7 7 0 0
BITMAP
FE
C6
82
82
82
C6
FE
ENDCHAR
STARTCHAR U+25D9
ENCODING 9689
SWIDTH 1142 0
DWIDTH 8 0
BBX 7 7 0 0
BITMAP
FE
C6
BA
BA
BA
C6
FE
ENDCHAR
STARTCHAR U+25DA
ENCODING 9690
SWIDTH 1142 0
DWIDTH 8 0
BBX 7 4 0 3
BITMAP
FE
C6
BA
BA
ENDCHAR
STARTCHAR U+25DB
ENCODING 9691
SWIDTH 1142 0
DWIDTH 8 0
BBX 7 4 0 0
BITMAP
BA
BA
C6
FE
ENDCHAR
STARTCHAR U+25DC
ENCODING 9692
SWIDTH 1142 0
DWIDTH 8 0
BBX 4 4 0 3
BITMAP
30
40
80
80
ENDCHAR
STARTCHAR U+25DD
ENCODING 9693
SWIDTH 1142 0
DWIDTH 8 0
BBX 4 4 3 3
BITMAP
C0
20
10
10
ENDCHAR
STARTCHAR U+25DE
ENCODING 9694
SWIDTH 1142 0
DWIDTH 8 0
BBX 4 4 3 0
BITMAP
10
10
20
C0
ENDCHAR
STARTCHAR U+25DF
ENCODING 9695
SWIDTH 1142 0
DWIDTH 8 0
BBX 4 4 0 0
BITMAP
80
80
40
30
ENDCHAR
STARTCHAR U+25E0
ENCODING 9696
SWIDTH 1142 0
DWIDTH 8 0
BBX 7 4 0 3
BITMAP
38
44
82
82
ENDCHAR
STARTCHAR U+25E1
ENCODING 9697
SWIDTH 1142 0
DWIDTH 8 0
BBX 7 4 0 0
BITMAP
82
82
44
38
ENDCHAR
STARTCHAR U+25E2
ENCODING 9698
SWIDTH 1142 0
DWIDTH 8 0
BBX 7 7 0 0
BITMAP
02
06
0E
1E
3E
7E
FE
ENDCHAR
STARTCHAR U+25E3
ENCODING 9699
SWIDTH 1142 0
DWIDTH 8 0
BBX 7 7 0 0
BITMAP
80
C0
E0
F0
F8
FC
FE
ENDCHAR
STARTCHAR U+25E4
ENCODING 9700
SWIDTH 1142 0
DWIDTH 8 0
BBX 7 7 0 0
BITMAP
FE
FC
F8
F0
E0
C0
80
ENDCHAR
STARTCHAR U+25E5
ENCODING 9701
SWIDTH 1142 0
DWIDTH 8 0
BBX 7 7 0 0
BITMAP
FE
7E
3E
1E
0E
06
02
ENDCHAR
STARTCHAR U+25E7
ENCODING 9703
SWIDTH 1142 0
DWIDTH 8 0
BBX 7 7 0 0
BITMAP
FE
F2
F2
F2
F2
F2
FE
ENDCHAR
STARTCHAR U+25E8
ENCODING 9704
SWIDTH 1142 0
DWIDTH 8 0
BBX 7 7 0 0
BITMAP
FE
9E
9E
9E
9E
9E
FE
ENDCHAR
STARTCHAR U+25E9
ENCODING 9705
SWIDTH 1142 0
DWIDTH 8 0
BBX 7 7 0 0
BITMAP
FE
FE
FA
F2
E2
C2
FE
ENDCHAR
STARTCHAR U+25EA
ENCODING 9706
SWIDTH 1142 0
DWIDTH 8 0
BBX 7 7 0 0
BITMAP
FE
86
8E
9E
BE
FE
FE
ENDCHAR
STARTCHAR U+25EB
ENCODING 9707
SWIDTH 1142 0
DWIDTH 8 0
BBX 7 7 0 0
BITMAP
FE
92
92
92
92
92
FE
ENDCHAR
STARTCHAR U+25EC
ENCODING 9708
SWIDTH 1142 0
DWIDTH 8 0
BBX 7 7 0 0
BITMAP
10
28
28
44
54
82
FE
ENDCHAR
STARTCHAR U+25ED
ENCODING 9709
SWIDTH 1142 0
DWIDTH 8 0
BBX 7 7 0 0
BITMAP
10
38
38
74
74
F2
FE
ENDCHAR
STARTCHAR U+25EE
ENCODING 9710
SWIDTH 1142 0
DWIDTH 8 0
BBX 7 7 0 0
BITMAP
10
38
38
5C
5C
9E
FE
ENDCHAR
STARTCHAR U+25EF
ENCODING 9711
SWIDTH 1142 0
DWIDTH 8 0
BBX 7 7 0 0
BITMAP
38
44
82
82
82
44
38
ENDCHAR
STARTCHAR U+25F0
ENCODING 9712
SWIDTH 1142 0
DWIDTH 8 0
BBX 7 7 0 0
BITMAP
FE
92
92
F2
82
82
FE
ENDCHAR
STARTCHAR U+25F1
ENCODING 9713
SWIDTH 1142 0
DWIDTH 8 0
BBX 7 7 0 0
BITMAP
FE
82
82
F2
92
92
FE
ENDCHAR
STARTCHAR U+25F2
ENCODING 9714
SWIDTH 1142 0
DWIDTH 8 0
BBX 7 7 0 0
BITMAP
FE
82
82
9E
92
92
FE
ENDCHAR
STARTCHAR U+25F3
ENCODING 9715
SWIDTH 1142 0
DWIDTH 8 0
BBX 7 7 0 0
BITMAP
FE
92
92
9E
82
82
FE
ENDCHAR
STARTCHAR U+25F4
ENCODING 9716
SWIDTH 1142 0
DWIDTH 8 0
BBX 7 7 0 0
BITMAP
38
54
92
F2
82
44
38
ENDCHAR
STARTCHAR U+25F5
ENCODING 9717
SWIDTH 1142 0
DWIDTH 8 0
BBX 7 7 0 0
BITMAP
38
44
82
F2
92
54
38
ENDCHAR
STARTCHAR U+25F6
ENCODING 9718
SWIDTH 1142 0
DWIDTH 8 0
BBX 7 7 0 0
BITMAP
38
44
82
9E
92
54
38
ENDCHAR
STARTCHAR U+25F7
ENCODING 9719
SWIDTH 1142 0
DWIDTH 8 0
BBX 7 7 0 0
BITMAP
38
54
92
9E
82
44
38
ENDCHAR
STARTCHAR U+25F8
ENCODING 9720
SWIDTH 1142 0
DWIDTH 8 0
BBX 7 7 0 0
BITMAP
FE
84
88
90
A0
C0
80
ENDCHAR
STARTCHAR U+25F9
ENCODING 9721
SWIDTH 1142 0
DWIDTH 8 0
BBX 7 7 0 0
BITMAP
FE
42
22
12
0A
06
02
ENDCHAR
STARTCHAR U+25FA
ENCODING 9722
SWIDTH 1142 0
DWIDTH 8 0
BBX 7 7 0 0
BITMAP
80
C0
A0
90
88
84
FE
ENDCHAR
STARTCHAR U+25FB
ENCODING 9723
SWIDTH 1142 0
DWIDTH 8 0
BBX 5 5 1 1
BITMAP
F8
88
88
88
F8
ENDCHAR
STARTCHAR U+25FC
ENCODING 9724
SWIDTH 1142 0
DWIDTH 8 0
BBX 5 5 1 1
BITMAP
F8
F8
F8
F8
F8
ENDCHAR
STARTCHAR U+25FD
ENCODING 9725
SWIDTH 1142 0
DWIDTH 8 0
BBX 3 3 2 2
BITMAP
E0
A0
E0
ENDCHAR
STARTCHAR U+25FE
ENCODING 9726
SWIDTH 1142 0
DWIDTH 8 0
BBX 3 3 2 2
BITMAP
E0
E0
E0
ENDCHAR
STARTCHAR U+25FF
ENCODING 9727
SWIDTH 1142 0
DWIDTH 8 0
BBX 7 7 0 0
BITMAP
02
06
0A
12
22
42
FE
ENDCHAR
STARTCHAR U+2610
ENCODING 9744
SWIDTH 1142 0
DWIDTH 8 0
BBX 7 7 0 0
BITMAP
FE
82
82
82
82
82
FE
ENDCHAR
STARTCHAR U+2611
ENCODING 9745
SWIDTH 1142 0
DWIDTH 8 0
BBX 7 7 0 0
BITMAP
FE
82
86
AA
92
82
FE
ENDCHAR
STARTCHAR U+2612
ENCODING 9746
SWIDTH 1142 0
DWIDTH 8 0
BBX 7 7 0 0
BITMAP
FE
82
AA
92
AA
82
FE
ENDCHAR
STARTCHAR U+2639
ENCODING 9785
SWIDTH 1142 0
DWIDTH 8 0
BBX 5 5 1 1
BITMAP
50
50
00
70
88
ENDCHAR
STARTCHAR U+263A
ENCODING 9786
SWIDTH 1142 0
DWIDTH 8 0
BBX 5 5 1 1
BITMAP
50
50
00
88
70
ENDCHAR
STARTCHAR U+263B
ENCODING 9787
SWIDTH 1142 0
DWIDTH 8 0
BBX 7 7 0 0
BITMAP
7C
D6
D6
FE
BA
C6
7C
ENDCHAR
STARTCHAR U+2660
ENCODING 9824
SWIDTH 1142 0
DWIDTH 8 0
BBX 7 7 0 0
BITMAP
10
38
7C
FE
FE
10
38
ENDCHAR
STARTCHAR U+2661
ENCODING 9825
SWIDTH 1142 0
DWIDTH 8 0
BBX 7 6 0 0
BITMAP
6C
92
82
44
28
10
ENDCHAR
STARTCHAR U+2662
ENCODING 9826
SWIDTH 1142 0
DWIDTH 8 0
BBX 7 7 0 0
BITMAP
10
28
44
82
44
28
10
ENDCHAR
STARTCHAR U+2663
ENCODING 9827
SWIDTH 1142 0
DWIDTH 8 0
BBX 7 7 0 0
BITMAP
38
38
FE
FE
FE
10
38
ENDCHAR
STARTCHAR U+2664
ENCODING 9828
SWIDTH 1142 0
DWIDTH 8 0
BBX 7 7 0 0
BITMAP
10
28
44
82
EE
10
38
ENDCHAR
STARTCHAR U+2665
ENCODING 9829
SWIDTH 1142 0
DWIDTH 8 0
BBX 7 6 0 0
BITMAP
6C
FE
FE
7C
38
10
ENDCHAR
STARTCHAR U+2666
ENCODING 9830
SWIDTH 1142 0
DWIDTH 8 0
BBX 7 7 0 0
BITMAP
10
38
7C
FE
7C
38
10
ENDCHAR
STARTCHAR U+2667
ENCODING 9831
SWIDTH 1142 0
DWIDTH 8 0
BBX 7 7 0 0
BITMAP
38
28
EE
82
EE
10
38
ENDCHAR
STARTCHAR U+2669
ENCODING 9833
SWIDTH 571 0
DWIDTH 4 0
BBX 3 7 0 0
BITMAP
20
20
20
20
20
E0
C0
ENDCHAR
STARTCHAR U+266A
ENCODING 9834
SWIDTH 857 0
DWIDTH 6 0
BBX 5 7 0 0
BITMAP
20
30
28
28
20
E0
C0
ENDCHAR
STARTCHAR U+266B
ENCODING 9835
SWIDTH 1142 0
DWIDTH 8 0
BBX 7 7 0 0
BITMAP
3E
22
22
22
22
EE
CC
ENDCHAR
STARTCHAR U+266C
ENCODING 9836
SWIDTH 1142 0
DWIDTH 8 0
BBX 7 7 0 0
BITMAP
3E
22
3E
22
22
EE
CC
ENDCHAR
STARTCHAR U+266D
ENCODING 9837
SWIDTH 571 0
DWIDTH 4 0
BBX 3 7 0 0
BITMAP
80
80
E0
A0
A0
C0
80
ENDCHAR
STARTCHAR U+266E
ENCODING 9838
SWIDTH 571 0
DWIDTH 4 0
BBX 3 7 0 0
BITMAP
80
A0
E0
A0
E0
A0
20
ENDCHAR
STARTCHAR U+266F
ENCODING 9839
SWIDTH 857 0
DWIDTH 6 0
BBX 5 7 0 0
BITMAP
10
58
70
D8
70
D0
40
ENDCHAR
STARTCHAR U+2680
ENCODING 9856
SWIDTH 1142 0
DWIDTH 8 0
BBX 7 7 0 0
BITMAP
FE
FE
FE
EE
FE
FE
FE
ENDCHAR
STARTCHAR U+2681
ENCODING 9857
SWIDTH 1142 0
DWIDTH 8 0
BBX 7 7 0 0
BITMAP
FE
FA
FE
FE
FE
BE
FE
ENDCHAR
STARTCHAR U+2682
ENCODING 9858
SWIDTH 1142 0
DWIDTH 8 0
BBX 7 7 0 0
BITMAP
FE
FA
FE
EE
FE
BE
FE
ENDCHAR
STARTCHAR U+2683
ENCODING 9859
SWIDTH 1142 0
DWIDTH 8 0
BBX 7 7 0 0
BITMAP
FE
BA
FE
FE
FE
BA
FE
ENDCHAR
STARTCHAR U+2684
ENCODING 9860
SWIDTH 1142 0
DWIDTH 8 0
BBX 7 7 0 0
BITMAP
FE
BA
FE
EE
FE
BA
FE
ENDCHAR
STARTCHAR U+2685
ENCODING 9861
SWIDTH 1142 0
DWIDTH 8 0
BBX 7 7 0 0
BITMAP
FE
BA
FE
BA
FE
BA
FE
ENDCHAR
STARTCHAR U+3001
ENCODING 12289
SWIDTH 1142 0
DWIDTH 8 0
BBX 2 3 0 0
BITMAP
80
40
40
ENDCHAR
STARTCHAR U+3002
ENCODING 12290
SWIDTH 1142 0
DWIDTH 8 0
BBX 3 3 0 0
BITMAP
40
A0
40
ENDCHAR
STARTCHAR U+3003
ENCODING 12291
SWIDTH 714 0
DWIDTH 5 0
BBX 4 4 0 1
BITMAP
50
50
A0
A0
ENDCHAR
STARTCHAR U+3007
ENCODING 12295
SWIDTH 1142 0
DWIDTH 8 0
BBX 7 7 0 0
BITMAP
38
44
82
82
82
44
38
ENDCHAR
STARTCHAR U+3008
ENCODING 12296
SWIDTH 571 0
DWIDTH 4 0
BBX 3 7 0 0
BITMAP
20
20
40
80
40
20
20
ENDCHAR
STARTCHAR U+3009
ENCODING 12297
SWIDTH 571 0
DWIDTH 4 0
BBX 3 7 0 0
BITMAP
80
80
40
20
40
80
80
ENDCHAR
STARTCHAR U+300A
ENCODING 12298
SWIDTH 857 0
DWIDTH 6 0
BBX 5 7 0 0
BITMAP
28
28
50
A0
50
28
28
ENDCHAR
STARTCHAR U+300B
ENCODING 12299
SWIDTH 857 0
DWIDTH 6 0
BBX 5 7 0 0
BITMAP
A0
A0
50
28
50
A0
A0
ENDCHAR
STARTCHAR U+300C
ENCODING 12300
SWIDTH 571 0
DWIDTH 4 0
BBX 3 4 0 3
BITMAP
E0
80
80
80
ENDCHAR
STARTCHAR U+300D
ENCODING 12301
SWIDTH 571 0
DWIDTH 4 0
BBX 3 4 0 0
BITMAP
20
20
20
E0
ENDCHAR
STARTCHAR U+300E
ENCODING 12302
SWIDTH 714 0
DWIDTH 5 0
BBX 4 5 0 2
BITMAP
F0
90
B0
A0
E0
ENDCHAR
STARTCHAR U+300F
ENCODING 12303
SWIDTH 714 0
DWIDTH 5 0
BBX 4 5 0 0
BITMAP
70
50
D0
90
F0
ENDCHAR
STARTCHAR U+3010
ENCODING 12304
SWIDTH 571 0
DWIDTH 4 0
BBX 3 7 0 0
BITMAP
E0
C0
80
80
80
C0
E0
ENDCHAR
STARTCHAR U+3011
ENCODING 12305
SWIDTH 571 0
DWIDTH 4 0
BBX 3 7 0 0
BITMAP
E0
60
20
20
20
60
E0
ENDCHAR
STARTCHAR U+301C
ENCODING 12316
SWIDTH 1142 0
DWIDTH 8 0
BBX 7 3 0 2
BITMAP
60
92
0C
ENDCHAR
STARTCHAR U+3041
ENCODING 12353
SWIDTH 1142 0
DWIDTH 8 0
BBX 6 6 0 0
BITMAP
78
20
78
AC
B4
68
ENDCHAR
STARTCHAR U+3042
ENCODING 12354
SWIDTH 1142 0
DWIDTH 8 0
BBX 7 7 0 0
BITMAP
20
FC
20
7C
AA
B2
64
ENDCHAR
STARTCHAR U+3043
ENCODING 12355
SWIDTH 1142 0
DWIDTH 8 0
BBX 5 5 1 0
BITMAP
90
88
88
A8
40
ENDCHAR
STARTCHAR U+3044
ENCODING 12356
SWIDTH 1142 0
DWIDTH 8 0
BBX 7 6 0 0
BITMAP
84
84
82
82
A2
40
ENDCHAR
STARTCHAR U+3045
ENCODING 12357
SWIDTH 1142 0
DWIDTH 8 0
BBX 5 6 1 0
BITMAP
70
00
F0
08
08
70
ENDCHAR
STARTCHAR U+3046
ENCODING 12358
SWIDTH 1142 0
DWIDTH 8 0
BBX 6 7 0 0
BITMAP
78
00
F8
04
04
08
70
ENDCHAR
STARTCHAR U+3047
ENCODING 12359
SWIDTH 1142 0
DWIDTH 8 0
BBX 6 6 0 0
BITMAP
30
00
78
30
50
8C
ENDCHAR
STARTCHAR U+3048
ENCODING 12360
SWIDTH 1142 0
DWIDTH 8 0
BBX 7 7 0 0
BITMAP
78
00
FC
08
30
50
8E
ENDCHAR
STARTCHAR U+3049
ENCODING 12361
SWIDTH 1142 0
DWIDTH 8 0
BBX 7 6 0 0
BITMAP
20
F4
22
78
A4
68
ENDCHAR
STARTCHAR U+304A
ENCODING 12362
SWIDTH 1142 0
DWIDTH 8 0
BBX 7 7 0 0
BITMAP
24
FA
20
7C
A2
A2
6C
ENDCHAR
STARTCHAR U+304B
ENCODING 12363
SWIDTH 1142 0
DWIDTH 8 0
BBX 7 7 0 0
BITMAP
44
F2
4A
48
48
88
B0
ENDCHAR
STARTCHAR U+304C
ENCODING 12364
SWIDTH 1142 0
DWIDTH 8 0
BBX 7 7 0 0
BITMAP
46
F4
4A
48
48
88
B0
ENDCHAR
STARTCHAR U+304D
ENCODING 12365
SWIDTH 1142 0
DWIDTH 8 0
BBX 7 7 0 0
BITMAP
7C
10
FE
08
74
80
78
ENDCHAR
STARTCHAR U+304E
ENCODING 12366
SWIDTH 1142 0
DWIDTH 8 0
BBX 7 7 0 0
BITMAP
7A
14
FC
08
74
80
78
ENDCHAR
STARTCHAR U+304F
ENCODING 12367
SWIDTH 1142 0
DWIDTH 8 0
BBX 5 7 1 0
BITMAP
08
10
60
80
60
10
08
ENDCHAR
STARTCHAR U+3050
ENCODING 12368
SWIDTH 1142 0
DWIDTH 8 0
BBX 7 7 0 0
BITMAP
08
10
62
84
60
10
08
ENDCHAR
STARTCHAR U+3051
ENCODING 12369
SWIDTH 1142 0
DWIDTH 8 0
BBX 7 7 0 0
BITMAP
84
BE
84
84
84
84
98
ENDCHAR
STARTCHAR U+3052
ENCODING 12370
SWIDTH 1142 0
DWIDTH 8 0
BBX 7 7 0 0
BITMAP
8A
BE
88
88
88
88
B0
ENDCHAR
STARTCHAR U+3053
ENCODING 12371
SWIDTH 1142 0
DWIDTH 8 0
BBX 6 7 0 0
BITMAP
78
00
00
00
80
80
7C
ENDCHAR
STARTCHAR U+3054
ENCODING 12372
SWIDTH 1142 0
DWIDTH 8 0
BBX 7 7 0 0
BITMAP
78
02
04
00
80
80
7C
ENDCHAR
STARTCHAR U+3055
ENCODING 12373
SWIDTH 1142 0
DWIDTH 8 0
BBX 7 7 0 0
BITMAP
10
FE
08
78
84
80
78
ENDCHAR
STARTCHAR U+3056
ENCODING 12374
SWIDTH 1142 0
DWIDTH 8 0
BBX 7 7 0 0
BITMAP
12
FE
08
78
84
80
78
ENDCHAR
STARTCHAR U+3057
ENCODING 12375
SWIDTH 1142 0
DWIDTH 8 0
BBX 6 7 0 0
BITMAP
80
80
80
84
84
88
70
ENDCHAR
STARTCHAR U+3058
ENCODING 12376
SWIDTH 1142 0
DWIDTH 8 0
BBX 6 7 0 0
BITMAP
94
94
80
80
84
88
70
ENDCHAR
STARTCHAR U+3059
ENCODING 12377
SWIDTH 1142 0
DWIDTH 8 0
BBX 7 7 0 0
BITMAP
08
FE
18
28
28
18
30
ENDCHAR
STARTCHAR U+305A
ENCODING 12378
SWIDTH 1142 0
DWIDTH 8 0
BBX 7 7 0 0
BITMAP
0A
FE
18
28
28
18
30
ENDCHAR
STARTCHAR U+305B
ENCODING 12379
SWIDTH 1142 0
DWIDTH 8 0
BBX 7 7 0 0
BITMAP
48
FE
48
48
58
40
3C
ENDCHAR
STARTCHAR U+305C
ENCODING 12380
SWIDTH 1142 0
DWIDTH 8 0
BBX 7 7 0 0
BITMAP
4A
FE
48
58
40
40
3C
ENDCHAR
STARTCHAR U+305D
ENCODING 12381
SWIDTH 1142 0
DWIDTH 8 0
BBX 6 7 0 0
BITMAP
78
10
20
FC
20
40
38
ENDCHAR
STARTCHAR U+305E
ENCODING 12382
SWIDTH 1142 0
DWIDTH 8 0
BBX 7 7 0 0
BITMAP
78
16
20
FC
20
40
38
ENDCHAR
STARTCHAR U+305F
ENCODING 12383
SWIDTH 1142 0
DWIDTH 8 0
BBX 6 7 0 0
BITMAP
40
FC
40
5C
80
A0
9C
ENDCHAR
STARTCHAR U+3060
ENCODING 12384
SWIDTH 1142 0
DWIDTH 8 0
BBX 7 7 0 0
BITMAP
4A
FA
40
5C
80
A0
9C
ENDCHAR
STARTCHAR U+3061
ENCODING 12385
SWIDTH 1142 0
DWIDTH 8 0
BBX 7 7 0 0
BITMAP
20
FC
20
3C
42
02
3C
ENDCHAR
STARTCHAR U+3062
ENCODING 12386
SWIDTH 1142 0
DWIDTH 8 0
BBX 7 7 0 0
BITMAP
24
FA
20
3C
42
02
3C
ENDCHAR
STARTCHAR U+3063
ENCODING 12387
SWIDTH 1142 0
DWIDTH 8 0
BBX 6 5 0 0
BITMAP
78
84
04
04
38
ENDCHAR
STARTCHAR U+3064
ENCODING 12388
SWIDTH 1142 0
DWIDTH 8 0
BBX 7 6 0 0
BITMAP
38
C4
02
02
04
38
ENDCHAR
STARTCHAR U+3065
ENCODING 12389
SWIDTH 1142 0
DWIDTH 8 0
BBX 7 6 0 0
BITMAP
3A
C4
02
02
04
38
ENDCHAR
STARTCHAR U+3066
ENCODING 12390
SWIDTH 1142 0
DWIDTH 8 0
BBX 7 7 0 0
BITMAP
FE
08
10
20
20
20
1C
ENDCHAR
STARTCHAR U+3067
ENCODING 12391
SWIDTH 1142 0
DWIDTH 8 0
BBX 7 7 0 0
BITMAP
FE
10
24
4A
40
20
1C
ENDCHAR
STARTCHAR U+3068
ENCODING 12392
SWIDTH 1142 0
DWIDTH 8 0
BBX 6 7 0 0
BITMAP
40
4C
30
40
80
80
7C
ENDCHAR
STARTCHAR U+3069
ENCODING 12393
SWIDTH 1142 0
DWIDTH 8 0
BBX 7 7 0 0
BITMAP
8A
4A
30
40
80
80
7C
ENDCHAR
STARTCHAR U+306A
ENCODING 12394
SWIDTH 1142 0
DWIDTH 8 0
BBX 7 7 0 0
BITMAP
44
F2
44
44
9C
A6
18
ENDCHAR
STARTCHAR U+306B
ENCODING 12395
SWIDTH 1142 0
DWIDTH 8 0
BBX 7 6 0 0
BITMAP
9E
80
80
90
90
8E
ENDCHAR
STARTCHAR U+306C
ENCODING 12396
SWIDTH 1142 0
DWIDTH 8 0
BBX 7 7 0 0
BITMAP
48
7C
CA
B2
96
AA
4C
ENDCHAR
STARTCHAR U+306D
ENCODING 12397
SWIDTH 1142 0
DWIDTH 8 0
BBX 7 7 0 0
BITMAP
40
5C
E2
42
CE
52
4C
ENDCHAR
STARTCHAR U+306E
ENCODING 12398
SWIDTH 1142 0
DWIDTH 8 0
BBX 7 7 0 0
BITMAP
38
54
92
92
92
A2
4C
ENDCHAR
STARTCHAR U+306F
ENCODING 12399
SWIDTH 1142 0
DWIDTH 8 0
BBX 7 7 0 0
BITMAP
84
BE
84
84
9C
A6
98
ENDCHAR
STARTCHAR U+3070
ENCODING 12400
SWIDTH 1142 0
DWIDTH 8 0
BBX 7 7 0 0
BITMAP
8A
BE
88
88
9C
AA
98
ENDCHAR
STARTCHAR U+3071
ENCODING 12401
SWIDTH 1142 0
DWIDTH 8 0
BBX 7 7 0 0
BITMAP
8E
BA
8C
88
9C
AA
98
ENDCHAR
STARTCHAR U+3072
ENCODING 12402
SWIDTH 1142 0
DWIDTH 8 0
BBX 7 7 0 0
BITMAP
E8
48
86
84
84
88
70
ENDCHAR
STARTCHAR U+3073
ENCODING 12403
SWIDTH 1142 0
DWIDTH 8 0
BBX 7 7 0 0
BITMAP
E6
48
84
86
84
88
70
ENDCHAR
STARTCHAR U+3074
ENCODING 12404
SWIDTH 1142 0
DWIDTH 8 0
BBX 7 7 0 0
BITMAP
E4
4A
84
86
84
88
70
ENDCHAR
STARTCHAR U+3075
ENCODING 12405
SWIDTH 1142 0
DWIDTH 8 0
BBX 7 7 0 0
BITMAP
78
10
20
94
8A
8A
30
ENDCHAR
STARTCHAR U+3076
ENCODING 12406
SWIDTH 1142 0
DWIDTH 8 0
BBX 7 7 0 0
BITMAP
7A
14
20
94
8A
8A
30
ENDCHAR
STARTCHAR U+3077
ENCODING 12407
SWIDTH 1142 0
DWIDTH 8 0
BBX 7 7 0 0
BITMAP
74
2A
24
92
8A
8A
30
ENDCHAR
STARTCHAR U+3078
ENCODING 12408
SWIDTH 1142 0
DWIDTH 8 0
BBX 7 6 0 0
BITMAP
20
50
88
88
04
02
ENDCHAR
STARTCHAR U+3079
ENCODING 12409
SWIDTH 1142 0
DWIDTH 8 0
BBX 7 7 0 0
BITMAP
0A
20
50
88
88
04
02
ENDCHAR
STARTCHAR U+307A
ENCODING 12410
SWIDTH 1142 0
DWIDTH 8 0
BBX 7 7 0 0
BITMAP
04
2A
54
88
88
04
02
ENDCHAR
STARTCHAR U+307B
ENCODING 12411
SWIDTH 1142 0
DWIDTH 8 0
BBX 7 7 0 0
BITMAP
BE
84
BE
84
9C
A6
98
ENDCHAR
STARTCHAR U+307C
ENCODING 12412
SWIDTH 1142 0
DWIDTH 8 0
BBX 7 7 0 0
BITMAP
BC
8A
BC
88
9C
AA
98
ENDCHAR
STARTCHAR U+307D
ENCODING 12413
SWIDTH 1142 0
DWIDTH 8 0
BBX 7 7 0 0
BITMAP
BE
8A
BC
88
9C
AA
98
ENDCHAR
STARTCHAR U+307E
ENCODING 12414
SWIDTH 1142 0
DWIDTH 8 0
BBX 6 7 0 0
BITMAP
FC
10
FC
10
78
94
70
ENDCHAR
STARTCHAR U+307F
ENCODING 12415
SWIDTH 1142 0
DWIDTH 8 0
BBX 7 7 0 0
BITMAP
70
14
74
AC
A6
C8
10
ENDCHAR
STARTCHAR U+3080
ENCODING 12416
SWIDTH 1142 0
DWIDTH 8 0
BBX 7 7 0 0
BITMAP
20
F4
22
60
A2
A2
7C
ENDCHAR
STARTCHAR U+3081
ENCODING 12417
SWIDTH 1142 0
DWIDTH 8 0
BBX 7 7 0 0
BITMAP
48
7C
4A
AA
AA
B2
64
ENDCHAR
STARTCHAR U+3082
ENCODING 12418
SWIDTH 1142 0
DWIDTH 8 0
BBX 6 7 0 0
BITMAP
40
F0
40
F4
44
44
38
ENDCHAR
STARTCHAR U+3083
ENCODING 12419
SWIDTH 1142 0
DWIDTH 8 0
BBX 6 6 0 0
BITMAP
48
7C
C4
28
20
20
ENDCHAR
STARTCHAR U+3084
ENCODING 12420
SWIDTH 1142 0
DWIDTH 8 0
BBX 7 7 0 0
BITMAP
90
5C
E2
42
4C
20
20
ENDCHAR
STARTCHAR U+3085
ENCODING 12421
SWIDTH 1142 0
DWIDTH 8 0
BBX 6 6 0 0
BITMAP
10
B8
D4
94
98
20
ENDCHAR
STARTCHAR U+3086
ENCODING 12422
SWIDTH 1142 0
DWIDTH 8 0
BBX 7 7 0 0
BITMAP
10
BC
D2
92
B2
9C
20
ENDCHAR
STARTCHAR U+3087
ENCODING 12423
SWIDTH 1142 0
DWIDTH 8 0
BBX 6 6 0 0
BITMAP
10
1C
10
78
94
70
ENDCHAR
STARTCHAR U+3088
ENCODING 12424
SWIDTH 1142 0
DWIDTH 8 0
BBX 6 7 0 0
BITMAP
10
1C
10
10
78
94
70
ENDCHAR
STARTCHAR U+3089
ENCODING 12425
SWIDTH 1142 0
DWIDTH 8 0
BBX 7 7 0 0
BITMAP
38
80
BC
C2
82
02
3C
ENDCHAR
STARTCHAR U+308A
ENCODING 12426
SWIDTH 1142 0
DWIDTH 8 0
BBX 6 7 0 0
BITMAP
98
A4
C4
84
84
08
30
ENDCHAR
STARTCHAR U+308B
ENCODING 12427
SWIDTH 1142 0
DWIDTH 8 0
BBX 7 7 0 0
BITMAP
7C
10
7C
82
32
4A
3C
ENDCHAR
STARTCHAR U+308C
ENCODING 12428
SWIDTH 1142 0
DWIDTH 8 0
BBX 7 7 0 0
BITMAP
58
E4
44
44
C4
46
44
ENDCHAR
STARTCHAR U+308D
ENCODING 12429
SWIDTH 1142 0
DWIDTH 8 0
BBX 7 7 0 0
BITMAP
7C
10
3C
42
82
02
3C
ENDCHAR
STARTCHAR U+308E
ENCODING 12430
SWIDTH 1142 0
DWIDTH 8 0
BBX 6 6 0 0
BITMAP
40
D8
64
C4
44
58
ENDCHAR
STARTCHAR U+308F
ENCODING 12431
SWIDTH 1142 0
DWIDTH 8 0
BBX 7 7 0 0
BITMAP
40
5C
E2
42
C2
42
4C
ENDCHAR
STARTCHAR U+3090
ENCODING 12432
SWIDTH 1142 0
DWIDTH 8 0
BBX 7 7 0 0
BITMAP
70
10
7C
A2
AA
D4
0A
ENDCHAR
STARTCHAR U+3091
ENCODING 12433
SWIDTH 1142 0
DWIDTH 8 0
BBX 7 7 0 0
BITMAP
7C
08
3C
52
3C
6C
92
ENDCHAR
STARTCHAR U+3092
ENCODING 12434
SWIDTH 1142 0
DWIDTH 8 0
BBX 7 7 0 0
BITMAP
10
FE
28
5E
94
20
1E
ENDCHAR
STARTCHAR U+3093
ENCODING 12435
SWIDTH 1142 0
DWIDTH 8 0
BBX 7 7 0 0
BITMAP
20
20
40
60
52
92
8C
ENDCHAR
STARTCHAR U+3094
ENCODING 12436
SWIDTH 1142 0
DWIDTH 8 0
BBX 7 7 0 0
BITMAP
74
02
F8
04
04
08
70
ENDCHAR
STARTCHAR U+3099
ENCODING 12441
SWIDTH 1142 0
DWIDTH 8 0
BBX 3 2 4 5
BITMAP
A0
A0
ENDCHAR
STARTCHAR U+309A
ENCODING 12442
SWIDTH 1142 0
DWIDTH 8 0
BBX 3 3 4 4
BITMAP
40
A0
40
ENDCHAR
STARTCHAR U+309B
ENCODING 12443
SWIDTH 1142 0
DWIDTH 8 0
BBX 4 3 0 4
BITMAP
20
90
40
ENDCHAR
STARTCHAR U+309C
ENCODING 12444
SWIDTH 1142 0
DWIDTH 8 0
BBX 3 3 0 4
BITMAP
40
A0
40
ENDCHAR
STARTCHAR U+309D
ENCODING 12445
SWIDTH 1142 0
DWIDTH 8 0
BBX 4 5 1 1
BITMAP
80
40
20
70
10
ENDCHAR
STARTCHAR U+309E
ENCODING 12446
SWIDTH 1142 0
DWIDTH 8 0
BBX 5 6 1 1
BITMAP
08
90
40
20
70
10
ENDCHAR
STARTCHAR U+30A0
ENCODING 12448
SWIDTH 1142 0
DWIDTH 8 0
BBX 5 3 1 2
BITMAP
F8
00
F8
ENDCHAR
STARTCHAR U+30A1
ENCODING 12449
SWIDTH 1142 0
DWIDTH 8 0
BBX 6 6 0 0
BITMAP
FC
04
24
28
20
40
ENDCHAR
STARTCHAR U+30A2
ENCODING 12450
SWIDTH 1142 0
DWIDTH 8 0
BBX 7 7 0 0
BITMAP
FE
02
12
14
10
10
60
ENDCHAR
STARTCHAR U+30A3
ENCODING 12451
SWIDTH 1142 0
DWIDTH 8 0
BBX 5 6 1 0
BITMAP
08
30
E0
20
20
20
ENDCHAR
STARTCHAR U+30A4
ENCODING 12452
SWIDTH 1142 0
DWIDTH 8 0
BBX 6 7 0 0
BITMAP
04
08
30
D0
10
10
10
ENDCHAR
STARTCHAR U+30A5
ENCODING 12453
SWIDTH 1142 0
DWIDTH 8 0
BBX 5 6 1 0
BITMAP
20
F8
88
08
10
60
ENDCHAR
STARTCHAR U+30A6
ENCODING 12454
SWIDTH 1142 0
DWIDTH 8 0
BBX 6 7 0 0
BITMAP
20
FC
84
84
04
08
30
ENDCHAR
STARTCHAR U+30A7
ENCODING 12455
SWIDTH 1142 0
DWIDTH 8 0
BBX 5 5 1 0
BITMAP
F8
20
20
20
F8
ENDCHAR
STARTCHAR U+30A8
ENCODING 12456
SWIDTH 1142 0
DWIDTH 8 0
BBX 7 6 0 0
BITMAP
7C
10
10
10
10
FE
ENDCHAR
STARTCHAR U+30A9
ENCODING 12457
SWIDTH 1142 0
DWIDTH 8 0
BBX 5 6 1 0
BITMAP
10
F8
30
50
90
30
ENDCHAR
STARTCHAR U+30AA
ENCODING 12458
SWIDTH 1142 0
DWIDTH 8 0
BBX 7 7 0 0
BITMAP
08
FE
18
28
48
88
18
ENDCHAR
STARTCHAR U+30AB
ENCODING 12459
SWIDTH 1142 0
DWIDTH 8 0
BBX 6 7 0 0
BITMAP
20
FC
24
24
24
44
98
ENDCHAR
STARTCHAR U+30AC
ENCODING 12460
SWIDTH 1142 0
DWIDTH 8 0
BBX 7 7 0 0
BITMAP
2A
FC
24
24
24
44
98
ENDCHAR
STARTCHAR U+30AD
ENCODING 12461
SWIDTH 1142 0
DWIDTH 8 0
BBX 7 7 0 0
BITMAP
20
2C
F0
1E
F0
08
08
ENDCHAR
STARTCHAR U+30AE
ENCODING 12462
SWIDTH 1142 0
DWIDTH 8 0
BBX 7 7 0 0
BITMAP
2A
2C
F0
1E
F0
08
08
ENDCHAR
STARTCHAR U+30AF
ENCODING 12463
SWIDTH 1142 0
DWIDTH 8 0
BBX 6 7 0 0
BITMAP
20
3C
44
84
08
10
60
ENDCHAR
STARTCHAR U+30B0
ENCODING 12464
SWIDTH 1142 0
DWIDTH 8 0
BBX 7 7 0 0
BITMAP
22
3E
44
84
08
10
60
ENDCHAR
STARTCHAR U+30B1
ENCODING 12465
SWIDTH 1142 0
DWIDTH 8 0
BBX 7 7 0 0
BITMAP
40
7E
48
88
08
10
60
ENDCHAR
STARTCHAR U+30B2
ENCODING 12466
SWIDTH 1142 0
DWIDTH 8 0
BBX 7 7 0 0
BITMAP
42
7E
48
88
08
10
60
ENDCHAR
STARTCHAR U+30B3
ENCODING 12467
SWIDTH 1142 0
DWIDTH 8 0
BBX 6 6 0 0
BITMAP
FC
04
04
04
04
FC
ENDCHAR
STARTCHAR U+30B4
ENCODING 12468
SWIDTH 1142 0
DWIDTH 8 0
BBX 7 7 0 0
BITMAP
02
FE
04
04
04
04
FC
ENDCHAR
STARTCHAR U+30B5
ENCODING 12469
SWIDTH 1142 0
DWIDTH 8 0
BBX 7 7 0 0
BITMAP
48
FE
48
48
08
08
30
ENDCHAR
STARTCHAR U+30B6
ENCODING 12470
SWIDTH 1142 0
DWIDTH 8 0
BBX 7 7 0 0
BITMAP
4A
FE
48
48
08
08
30
ENDCHAR
STARTCHAR U+30B7
ENCODING 12471
SWIDTH 1142 0
DWIDTH 8 0
BBX 7 7 0 0
BITMAP
40
20
82
42
04
18
E0
ENDCHAR
STARTCHAR U+30B8
ENCODING 12472
SWIDTH 1142 0
DWIDTH 8 0
BBX 7 7 0 0
BITMAP
4A
20
82
42
04
18
E0
ENDCHAR
STARTCHAR U+30B9
ENCODING 12473
SWIDTH 1142 0
DWIDTH 8 0
BBX 7 7 0 0
BITMAP
FC
04
08
10
28
44
82
ENDCHAR
STARTCHAR U+30BA
ENCODING 12474
SWIDTH 1142 0
DWIDTH 8 0
BBX 7 7 0 0
BITMAP
FA
0A
08
10
28
44
82
ENDCHAR
STARTCHAR U+30BB
ENCODING 12475
SWIDTH 1142 0
DWIDTH 8 0
BBX 7 7 0 0
BITMAP
40
5E
E2
44
40
40
3E
ENDCHAR
STARTCHAR U+30BC
ENCODING 12476
SWIDTH 1142 0
DWIDTH 8 0
BBX 7 7 0 0
BITMAP
4A
40
FE
44
48
40
3E
ENDCHAR
STARTCHAR U+30BD
ENCODING 12477
SWIDTH 1142 0
DWIDTH 8 0
BBX 6 7 0 0
BITMAP
84
44
44
04
08
10
60
ENDCHAR
STARTCHAR U+30BE
ENCODING 12478
SWIDTH 1142 0
DWIDTH 8 0
BBX 7 7 0 0
BITMAP
8A
44
44
04
08
10
60
ENDCHAR
STARTCHAR U+30BF
ENCODING 12479
SWIDTH 1142 0
DWIDTH 8 0
BBX 6 7 0 0
BITMAP
20
3C
44
A4
14
08
F0
ENDCHAR
STARTCHAR U+30C0
ENCODING 12480
SWIDTH 1142 0
DWIDTH 8 0
BBX 7 7 0 0
BITMAP
22
3E
44
A4
14
08
F0
ENDCHAR
STARTCHAR U+30C1
ENCODING 12481
SWIDTH 1142 0
DWIDTH 8 0
BBX 7 7 0 0
BITMAP
04
78
10
FE
10
10
60
ENDCHAR
STARTCHAR U+30C2
ENCODING 12482
SWIDTH 1142 0
DWIDTH 8 0
BBX 7 7 0 0
BITMAP
04
7A
10
FE
10
10
60
ENDCHAR
STARTCHAR U+30C3
ENCODING 12483
SWIDTH 1142 0
DWIDTH 8 0
BBX 6 6 0 0
BITMAP
A4
54
54
04
08
70
ENDCHAR
STARTCHAR U+30C4
ENCODING 12484
SWIDTH 1142 0
DWIDTH 8 0
BBX 6 7 0 0
BITMAP
A4
54
54
04
08
10
60
ENDCHAR
STARTCHAR U+30C5
ENCODING 12485
SWIDTH 1142 0
DWIDTH 8 0
BBX 7 7 0 0
BITMAP
A4
52
54
04
08
10
60
ENDCHAR
STARTCHAR U+30C6
ENCODING 12486
SWIDTH 1142 0
DWIDTH 8 0
BBX 7 7 0 0
BITMAP
7C
00
FE
10
10
10
60
ENDCHAR
STARTCHAR U+30C7
ENCODING 12487
SWIDTH 1142 0
DWIDTH 8 0
BBX 7 7 0 0
BITMAP
7A
02
FC
10
10
10
60
ENDCHAR
STARTCHAR U+30C8
ENCODING 12488
SWIDTH 1142 0
DWIDTH 8 0
BBX 4 7 2 0
BITMAP
80
80
C0
A0
90
80
80
ENDCHAR
STARTCHAR U+30C9
ENCODING 12489
SWIDTH 1142 0
DWIDTH 8 0
BBX 6 7 1 0
BITMAP
94
80
C0
A0
90
80
80
ENDCHAR
STARTCHAR U+30CA
ENCODING 12490
SWIDTH 1142 0
DWIDTH 8 0
BBX 7 7 0 0
BITMAP
10
10
FE
10
10
10
60
ENDCHAR
STARTCHAR U+30CB
ENCODING 12491
SWIDTH 1142 0
DWIDTH 8 0
BBX 7 5 0 1
BITMAP
7C
00
00
00
FE
ENDCHAR
STARTCHAR U+30CC
ENCODING 12492
SWIDTH 1142 0
DWIDTH 8 0
BBX 6 7 0 0
BITMAP
FC
04
04
68
10
28
C4
ENDCHAR
STARTCHAR U+30CD
ENCODING 12493
SWIDTH 1142 0
DWIDTH 8 0
BBX 7 7 0 0
BITMAP
10
7C
08
38
D6
10
10
ENDCHAR
STARTCHAR U+30CE
ENCODING 12494
SWIDTH 1142 0
DWIDTH 8 0
BBX 5 7 0 0
BITMAP
08
08
10
10
20
40
80
ENDCHAR
STARTCHAR U+30CF
ENCODING 12495
SWIDTH 1142 0
DWIDTH 8 0
BBX 7 7 0 0
BITMAP
28
28
28
28
44
44
82
ENDCHAR
STARTCHAR U+30D0
ENCODING 12496
SWIDTH 1142 0
DWIDTH 8 0
BBX 7 7 0 0
BITMAP
2A
2A
28
28
44
44
82
ENDCHAR
STARTCHAR U+30D1
ENCODING 12497
SWIDTH 1142 0
DWIDTH 8 0
BBX 7 7 0 0
BITMAP
2C
2A
2C
28
44
44
82
ENDCHAR
STARTCHAR U+30D2
ENCODING 12498
SWIDTH 1142 0
DWIDTH 8 0
BBX 6 7 0 0
BITMAP
80
8C
F0
80
80
80
7C
ENDCHAR
STARTCHAR U+30D3
ENCODING 12499
SWIDTH 1142 0
DWIDTH 8 0
BBX 7 7 0 0
BITMAP
8A
80
F8
80
80
80
7C
ENDCHAR
STARTCHAR U+30D4
ENCODING 12500
SWIDTH 1142 0
DWIDTH 8 0
BBX 7 7 0 0
BITMAP
84
8A
F4
80
80
80
7C
ENDCHAR
STARTCHAR U+30D5
ENCODING 12501
SWIDTH 1142 0
DWIDTH 8 0
BBX 6 6 0 0
BITMAP
FC
04
04
08
10
60
ENDCHAR
STARTCHAR U+30D6
ENCODING 12502
SWIDTH 1142 0
DWIDTH 8 0
BBX 7 7 0 0
BITMAP
02
FE
04
04
08
10
60
ENDCHAR
STARTCHAR U+30D7
ENCODING 12503
SWIDTH 1142 0
DWIDTH 8 0
BBX 7 7 0 0
BITMAP
06
FA
0C
08
08
10
60
ENDCHAR
STARTCHAR U+30D8
ENCODING 12504
SWIDTH 1142 0
DWIDTH 8 0
BBX 7 5 0 1
BITMAP
20
50
88
84
02
ENDCHAR
STARTCHAR U+30D9
ENCODING 12505
SWIDTH 1142 0
DWIDTH 8 0
BBX 7 6 0 1
BITMAP
0A
20
50
88
84
02
ENDCHAR
STARTCHAR U+30DA
ENCODING 12506
SWIDTH 1142 0
DWIDTH 8 0
BBX 7 6 0 1
BITMAP
04
2A
54
88
84
02
ENDCHAR
STARTCHAR U+30DB
ENCODING 12507
SWIDTH 1142 0
DWIDTH 8 0
BBX 7 7 0 0
BITMAP
10
FE
10
54
54
92
10
ENDCHAR
STARTCHAR U+30DC
ENCODING 12508
SWIDTH 1142 0
DWIDTH 8 0
BBX 7 7 0 0
BITMAP
12
FE
10
54
54
92
10
ENDCHAR
STARTCHAR U+30DD
ENCODING 12509
SWIDTH 1142 0
DWIDTH 8 0
BBX 7 7 0 0
BITMAP
16
FA
10
54
54
92
10
ENDCHAR
STARTCHAR U+30DE
ENCODING 12510
SWIDTH 1142 0
DWIDTH 8 0
BBX 7 7 0 0
BITMAP
FE
02
02
04
68
10
08
ENDCHAR
STARTCHAR U+30DF
ENCODING 12511
SWIDTH 1142 0
DWIDTH 8 0
BBX 6 7 0 0
BITMAP
F0
0C
E0
1C
00
F0
0C
ENDCHAR
STARTCHAR U+30E0
ENCODING 12512
SWIDTH 1142 0
DWIDTH 8 0
BBX 7 7 0 0
BITMAP
10
10
20
24
44
42
FE
ENDCHAR
STARTCHAR U+30E1
ENCODING 12513
SWIDTH 1142 0
DWIDTH 8 0
BBX 6 7 0 0
BITMAP
04
04
64
18
18
24
C0
ENDCHAR
STARTCHAR U+30E2
ENCODING 12514
SWIDTH 1142 0
DWIDTH 8 0
BBX 7 7 0 0
BITMAP
FC
20
20
FE
20
20
1C
ENDCHAR
STARTCHAR U+30E3
ENCODING 12515
SWIDTH 1142 0
DWIDTH 8 0
BBX 6 6 0 0
BITMAP
40
FC
44
28
20
20
ENDCHAR
STARTCHAR U+30E4
ENCODING 12516
SWIDTH 1142 0
DWIDTH 8 0
BBX 7 7 0 0
BITMAP
40
FE
22
22
24
10
10
ENDCHAR
STARTCHAR U+30E5
ENCODING 12517
SWIDTH 1142 0
DWIDTH 8 0
BBX 6 5 0 0
BITMAP
78
08
08
10
FC
ENDCHAR
STARTCHAR U+30E6
ENCODING 12518
SWIDTH 1142 0
DWIDTH 8 0
BBX 7 7 0 0
BITMAP
7C
04
04
04
08
08
FE
ENDCHAR
STARTCHAR U+30E7
ENCODING 12519
SWIDTH 1142 0
DWIDTH 8 0
BBX 5 5 1 0
BITMAP
F8
08
F8
08
F8
ENDCHAR
STARTCHAR U+30E8
ENCODING 12520
SWIDTH 1142 0
DWIDTH 8 0
BBX 6 7 0 0
BITMAP
FC
04
04
FC
04
04
FC
ENDCHAR
STARTCHAR U+30E9
ENCODING 12521
SWIDTH 1142 0
DWIDTH 8 0
BBX 7 7 0 0
BITMAP
7C
00
FE
02
02
0C
70
ENDCHAR
STARTCHAR U+30EA
ENCODING 12522
SWIDTH 1142 0
DWIDTH 8 0
BBX 6 7 0 0
BITMAP
84
84
84
84
04
08
30
ENDCHAR
STARTCHAR U+30EB
ENCODING 12523
SWIDTH 1142 0
DWIDTH 8 0
BBX 7 7 0 0
BITMAP
50
50
50
52
52
54
98
ENDCHAR
STARTCHAR U+30EC
ENCODING 12524
SWIDTH 1142 0
DWIDTH 8 0
BBX 6 7 0 0
BITMAP
80
80
84
84
88
90
E0
ENDCHAR
STARTCHAR U+30ED
ENCODING 12525
SWIDTH 1142 0
DWIDTH 8 0
BBX 6 7 0 0
BITMAP
FC
84
84
84
84
84
FC
ENDCHAR
STARTCHAR U+30EE
ENCODING 12526
SWIDTH 1142 0
DWIDTH 8 0
BBX 5 5 1 0
BITMAP
F8
88
88
10
60
ENDCHAR
STARTCHAR U+30EF
ENCODING 12527
SWIDTH 1142 0
DWIDTH 8 0
BBX 6 7 0 0
BITMAP
FC
84
84
04
04
08
70
ENDCHAR
STARTCHAR U+30F0
ENCODING 12528
SWIDTH 1142 0
DWIDTH 8 0
BBX 7 7 0 0
BITMAP
08
FE
48
48
FE
08
08
ENDCHAR
STARTCHAR U+30F1
ENCODING 12529
SWIDTH 1142 0
DWIDTH 8 0
BBX 7 7 0 0
BITMAP
7C
04
18
10
10
10
FE
ENDCHAR
STARTCHAR U+30F2
ENCODING 12530
SWIDTH 1142 0
DWIDTH 8 0
BBX 6 7 0 0
BITMAP
FC
04
FC
04
04
08
70
ENDCHAR
STARTCHAR U+30F3
ENCODING 12531
SWIDTH 1142 0
DWIDTH 8 0
BBX 7 7 0 0
BITMAP
C0
22
02
02
04
08
F0
ENDCHAR
STARTCHAR U+30F4
ENCODING 12532
SWIDTH 1142 0
DWIDTH 8 0
BBX 7 7 0 0
BITMAP
22
FE
84
84
04
08
70
ENDCHAR
STARTCHAR U+30F5
ENCODING 12533
SWIDTH 1142 0
DWIDTH 8 0
BBX 6 6 0 0
BITMAP
20
FC
24
24
44
98
ENDCHAR
STARTCHAR U+30F6
ENCODING 12534
SWIDTH 1142 0
DWIDTH 8 0
BBX 7 6 0 0
BITMAP
40
7E
48
88
08
30
ENDCHAR
STARTCHAR U+30F7
ENCODING 12535
SWIDTH 1142 0
DWIDTH 8 0
BBX 7 7 0 0
BITMAP
0A
FC
84
84
04
08
70
ENDCHAR
STARTCHAR U+30F8
ENCODING 12536
SWIDTH 1142 0
DWIDTH 8 0
BBX 7 7 0 0
BITMAP
0A
FE
48
48
FE
08
08
ENDCHAR
STARTCHAR U+30F9
ENCODING 12537
SWIDTH 1142 0
DWIDTH 8 0
BBX 7 7 0 0
BITMAP
0A
7C
04
18
10
10
FE
ENDCHAR
STARTCHAR U+30FA
ENCODING 12538
SWIDTH 1142 0
DWIDTH 8 0
BBX 7 7 0 0
BITMAP
0A
FC
04
FC
04
08
70
ENDCHAR
STARTCHAR U+30FB
ENCODING 12539
SWIDTH 1142 0
DWIDTH 8 0
BBX 2 2 2 3
BITMAP
C0
C0
ENDCHAR
STARTCHAR U+30FC
ENCODING 12540
SWIDTH 1142 0
DWIDTH 8 0
BBX 6 1 0 3
BITMAP
FC
ENDCHAR
STARTCHAR U+30FD
ENCODING 12541
SWIDTH 1142 0
DWIDTH 8 0
BBX 4 4 1 2
BITMAP
80
40
20
10
ENDCHAR
STARTCHAR U+30FE
ENCODING 12542
SWIDTH 1142 0
DWIDTH 8 0
BBX 5 5 1 2
BITMAP
08
90
40
20
10
ENDCHAR
STARTCHAR U+3131
ENCODING 12593
SWIDTH 1142 0
DWIDTH 8 0
BBX 5 5 1 1
BITMAP
F8
08
08
08
08
ENDCHAR
STARTCHAR U+3132
ENCODING 12594
SWIDTH 1142 0
DWIDTH 8 0
BBX 5 5 1 1
BITMAP
F8
28
28
28
28
ENDCHAR
STARTCHAR U+3133
ENCODING 12595
SWIDTH 1142 0
DWIDTH 8 0
BBX 5 5 1 1
BITMAP
F8
08
08
08
08
ENDCHAR
STARTCHAR U+3134
ENCODING 12596
SWIDTH 1142 0
DWIDTH 8 0
BBX 5 5 1 1
BITMAP
80
80
80
80
F8
ENDCHAR
STARTCHAR U+3135
ENCODING 12597
SWIDTH 1142 0
DWIDTH 8 0
BBX 7 5 0 1
BITMAP
8E
84
84
8A
EA
ENDCHAR
STARTCHAR U+3136
ENCODING 12598
SWIDTH 1142 0
DWIDTH 8 0
BBX 7 6 0 1
BITMAP
04
8E
84
8A
8A
E4
ENDCHAR
STARTCHAR U+3137
ENCODING 12599
SWIDTH 1142 0
DWIDTH 8 0
BBX 5 5 1 1
BITMAP
F8
80
80
80
F8
ENDCHAR
STARTCHAR U+3138
ENCODING 12600
SWIDTH 1142 0
DWIDTH 8 0
BBX 5 5 1 1
BITMAP
F8
A0
A0
A0
F8
ENDCHAR
STARTCHAR U+3139
ENCODING 12601
SWIDTH 1142 0
DWIDTH 8 0
BBX 5 5 1 1
BITMAP
F8
08
F8
80
F8
ENDCHAR
STARTCHAR U+313A
ENCODING 12602
SWIDTH 1142 0
DWIDTH 8 0
BBX 7 5 0 1
BITMAP
EE
22
E2
82
E2
ENDCHAR
STARTCHAR U+313B
ENCODING 12603
SWIDTH 1142 0
DWIDTH 8 0
BBX 7 5 0 1
BITMAP
EE
2A
EA
8A
EE
ENDCHAR
STARTCHAR U+313C
ENCODING 12604
SWIDTH 1142 0
DWIDTH 8 0
BBX 7 5 0 1
BITMAP
EA
2A
EE
8A
EE
ENDCHAR
STARTCHAR U+313D
ENCODING 12605
SWIDTH 1142 0
DWIDTH 8 0
BBX 7 5 0 1
BITMAP
E4
24
EA
8A
EA
ENDCHAR
STARTCHAR U+313E
ENCODING 12606
SWIDTH 1142 0
DWIDTH 8 0
BBX 7 5 0 1
BITMAP
EE
28
EE
88
EE
ENDCHAR
STARTCHAR U+313F
ENCODING 12607
SWIDTH 1142 0
DWIDTH 8 0
BBX 7 5 0 1
BITMAP
FE
20
EC
8C
FE
ENDCHAR
STARTCHAR U+3140
ENCODING 12608
SWIDTH 1142 0
DWIDTH 8 0
BBX 7 6 0 1
BITMAP
04
EE
24
EA
8A
E4
ENDCHAR
STARTCHAR U+3141
ENCODING 12609
SWIDTH 1142 0
DWIDTH 8 0
BBX 5 5 1 1
BITMAP
F8
88
88
88
F8
ENDCHAR
STARTCHAR U+3142
ENCODING 12610
SWIDTH 1142 0
DWIDTH 8 0
BBX 5 5 1 1
BITMAP
88
88
F8
88
F8
ENDCHAR
STARTCHAR U+3143
ENCODING 12611
SWIDTH 1142 0
DWIDTH 8 0
BBX 7 5 0 1
BITMAP
AA
AA
EE
AA
EE
ENDCHAR
STARTCHAR U+3144
ENCODING 12612
SWIDTH 1142 0
DWIDTH 8 0
BBX 7 5 0 1
BITMAP
A4
A4
EA
AA
EA
ENDCHAR
STARTCHAR U+3145
ENCODING 12613
SWIDTH 1142 0
DWIDTH 8 0
BBX 5 5 1 1
BITMAP
20
20
50
50
88
ENDCHAR
STARTCHAR U+3146
ENCODING 12614
SWIDTH 1142 0
DWIDTH 8 0
BBX 7 5 0 1
BITMAP
28
28
54
54
92
ENDCHAR
STARTCHAR U+3147
ENCODING 12615
SWIDTH 1142 0
DWIDTH 8 0
BBX 5 5 1 1
BITMAP
70
88
88
88
70
ENDCHAR
STARTCHAR U+3148
ENCODING 12616
SWIDTH 1142 0
DWIDTH 8 0
BBX 5 5 1 1
BITMAP
F8
20
50
50
88
ENDCHAR
STARTCHAR U+3149
ENCODING 12617
SWIDTH 1142 0
DWIDTH 8 0
BBX 7 5 0 1
BITMAP
FE
28
54
54
92
ENDCHAR
STARTCHAR U+314A
ENCODING 12618
SWIDTH 1142 0
DWIDTH 8 0
BBX 5 6 1 1
BITMAP
20
F8
20
50
50
88
ENDCHAR
STARTCHAR U+314B
ENCODING 12619
SWIDTH 1142 0
DWIDTH 8 0
BBX 5 5 1 1
BITMAP
F8
08
F8
08
08
ENDCHAR
STARTCHAR U+314C
ENCODING 12620
SWIDTH 1142 0
DWIDTH 8 0
BBX 5 5 1 1
BITMAP
F8
80
F8
80
F8
ENDCHAR
STARTCHAR U+314D
ENCODING 12621
SWIDTH 1142 0
DWIDTH 8 0
BBX 5 5 1 1
BITMAP
F8
50
50
50
F8
ENDCHAR
STARTCHAR U+314E
ENCODING 12622
SWIDTH 1142 0
DWIDTH 8 0
BBX 5 6 1 1
BITMAP
20
F8
70
88
88
70
ENDCHAR
STARTCHAR U+314F
ENCODING 12623
SWIDTH 1142 0
DWIDTH 8 0
BBX 3 7 2 0
BITMAP
80
80
80
E0
80
80
80
ENDCHAR
STARTCHAR U+3150
ENCODING 12624
SWIDTH 1142 0
DWIDTH 8 0
BBX 3 7 2 0
BITMAP
A0
A0
A0
E0
A0
A0
A0
ENDCHAR
STARTCHAR U+3151
ENCODING 12625
SWIDTH 1142 0
DWIDTH 8 0
BBX 3 7 2 0
BITMAP
80
80
E0
80
E0
80
80
ENDCHAR
STARTCHAR U+3152
ENCODING 12626
SWIDTH 1142 0
DWIDTH 8 0
BBX 3 7 2 0
BITMAP
A0
A0
E0
A0
E0
A0
A0
ENDCHAR
STARTCHAR U+3153
ENCODING 12627
SWIDTH 1142 0
DWIDTH 8 0
BBX 3 7 2 0
BITMAP
20
20
20
E0
20
20
20
ENDCHAR
STARTCHAR U+3154
ENCODING 12628
SWIDTH 1142 0
DWIDTH 8 0
BBX 5 7 1 0
BITMAP
28
28
28
E8
28
28
28
ENDCHAR
STARTCHAR U+3155
ENCODING 12629
SWIDTH 1142 0
DWIDTH 8 0
BBX 3 7 2 0
BITMAP
20
20
E0
20
E0
20
20
ENDCHAR
STARTCHAR U+3156
ENCODING 12630
SWIDTH 1142 0
DWIDTH 8 0
BBX 5 7 1 0
BITMAP
28
28
E8
28
E8
28
28
ENDCHAR
STARTCHAR U+3157
ENCODING 12631
SWIDTH 1142 0
DWIDTH 8 0
BBX 7 3 0 2
BITMAP
10
10
FE
ENDCHAR
STARTCHAR U+3158
ENCODING 12632
SWIDTH 1142 0
DWIDTH 8 0
BBX 7 7 0 0
BITMAP
04
04
04
46
44
F4
04
ENDCHAR
STARTCHAR U+3159
ENCODING 12633
SWIDTH 1142 0
DWIDTH 8 0
BBX 7 7 0 0
BITMAP
0A
0A
0A
4E
4A
FA
0A
ENDCHAR
STARTCHAR U+315A
ENCODING 12634
SWIDTH 1142 0
DWIDTH 8 0
BBX 6 7 0 0
BITMAP
04
04
04
44
44
F4
04
ENDCHAR
STARTCHAR U+315B
ENCODING 12635
SWIDTH 1142 0
DWIDTH 8 0
BBX 7 3 0 2
BITMAP
28
28
FE
ENDCHAR
STARTCHAR U+315C
ENCODING 12636
SWIDTH 1142 0
DWIDTH 8 0
BBX 7 3 0 2
BITMAP
FE
10
10
ENDCHAR
STARTCHAR U+315D
ENCODING 12637
SWIDTH 1142 0
DWIDTH 8 0
BBX 6 7 0 0
BITMAP
04
04
04
F4
4C
44
44
ENDCHAR
STARTCHAR U+315E
ENCODING 12638
SWIDTH 1142 0
DWIDTH 8 0
BBX 7 7 0 0
BITMAP
0A
0A
0A
EA
5A
4A
4A
ENDCHAR
STARTCHAR U+315F
ENCODING 12639
SWIDTH 1142 0
DWIDTH 8 0
BBX 6 7 0 0
BITMAP
04
04
04
F4
44
44
44
ENDCHAR
STARTCHAR U+3160
ENCODING 12640
SWIDTH 1142 0
DWIDTH 8 0
BBX 7 3 0 2
BITMAP
FE
28
28
ENDCHAR
STARTCHAR U+3161
ENCODING 12641
SWIDTH 1142 0
DWIDTH 8 0
BBX 7 1 0 3
BITMAP
FE
ENDCHAR
STARTCHAR U+3162
ENCODING 12642
SWIDTH 1142 0
DWIDTH 8 0
BBX 6 7 0 0
BITMAP
04
04
04
04
04
F4
04
ENDCHAR
STARTCHAR U+3163
ENCODING 12643
SWIDTH 1142 0
DWIDTH 8 0
BBX 1 7 3 0
BITMAP
80
80
80
80
80
80
80
ENDCHAR
STARTCHAR U+AC00
ENCODING 44032
SWIDTH 1142 0
DWIDTH 8 0
BBX 7 7 0 0
BITMAP
F4
14
16
14
14
04
04
ENDCHAR
STARTCHAR U+AC01
ENCODING 44033
SWIDTH 1142 0
DWIDTH 8 0
BBX 7 7 0 0
BITMAP
F4
16
14
00
7C
04
04
ENDCHAR
STARTCHAR U+AC04
ENCODING 44036
SWIDTH 1142 0
DWIDTH 8 0
BBX 7 7 0 0
BITMAP
F4
16
14
04
40
40
7C
ENDCHAR
STARTCHAR U+AC07
ENCODING 44039
SWIDTH 1142 0
DWIDTH 8 0
BBX 7 7 0 0
BITMAP
F4
16
14
00
7C
40
7C
ENDCHAR
STARTCHAR U+AC08
ENCODING 44040
SWIDTH 1142 0
DWIDTH 8 0
BBX 7 7 0 0
BITMAP
F4
16
14
00
78
10
3C
ENDCHAR
STARTCHAR U+AC09
ENCODING 44041
SWIDTH 1142 0
DWIDTH 8 0
BBX 7 7 0 0
BITMAP
F4
16
14
00
DC
44
64
ENDCHAR
STARTCHAR U+AC0A
ENCODING 44042
SWIDTH 1142 0
DWIDTH 8 0
BBX 7 7 0 0
BITMAP
F4
16
14
00
DC
54
7C
ENDCHAR
STARTCHAR U+AC10
ENCODING 44048
SWIDTH 1142 0
DWIDTH 8 0
BBX 7 7 0 0
BITMAP
F4
16
14
00
7C
44
7C
ENDCHAR
STARTCHAR U+AC11
ENCODING 44049
SWIDTH 1142 0
DWIDTH 8 0
BBX 7 7 0 0
BITMAP
F4
16
14
00
44
7C
7C
ENDCHAR
STARTCHAR U+AC12
ENCODING 44050
SWIDTH 1142 0
DWIDTH 8 0
BBX 7 7 0 0
BITMAP
F4
16
14
00
54
74
7A
ENDCHAR
STARTCHAR U+AC13
ENCODING 44051
SWIDTH 1142 0
DWIDTH 8 0
BBX 7 7 0 0
BITMAP
F4
16
14
04
10
28
44
ENDCHAR
STARTCHAR U+AC14
ENCODING 44052
SWIDTH 1142 0
DWIDTH 8 0
BBX 7 7 0 0
BITMAP
F4
16
14
00
14
28
54
ENDCHAR
STARTCHAR U+AC15
ENCODING 44053
SWIDTH 1142 0
DWIDTH 8 0
BBX 7 7 0 0
BITMAP
F4
16
14
00
38
44
38
ENDCHAR
STARTCHAR U+AC16
ENCODING 44054
SWIDTH 1142 0
DWIDTH 8 0
BBX 7 7 0 0
BITMAP
F4
16
14
00
7C
10
6C
ENDCHAR
STARTCHAR U+AC17
ENCODING 44055
SWIDTH 1142 0
DWIDTH 8 0
BBX 7 7 0 0
BITMAP
F4
16
14
10
7C
10
6C
ENDCHAR
STARTCHAR U+AC19
ENCODING 44057
SWIDTH 1142 0
DWIDTH 8 0
BBX 7 7 0 0
BITMAP
F4
16
14
00
7C
78
7C
ENDCHAR
STARTCHAR U+AC1A
ENCODING 44058
SWIDTH 1142 0
DWIDTH 8 0
BBX 7 7 0 0
BITMAP
F4
16
14
00
7C
28
7C
ENDCHAR
STARTCHAR U+AC1B
ENCODING 44059
SWIDTH 1142 0
DWIDTH 8 0
BBX 7 7 0 0
BITMAP
F4
16
14
10
7C
28
10
ENDCHAR
STARTCHAR U+AC1C
ENCODING 44060
SWIDTH 1142 0
DWIDTH 8 0
BBX 7 7 0 0
BITMAP
EA
2A
2E
2A
2A
0A
0A
ENDCHAR
STARTCHAR U+AC1D
ENCODING 44061
SWIDTH 1142 0
DWIDTH 8 0
BBX 7 7 0 0
BITMAP
EA
2E
2A
00
7E
02
02
ENDCHAR
STARTCHAR U+AC20
ENCODING 44064
SWIDTH 1142 0
DWIDTH 8 0
BBX 7 7 0 0
BITMAP
EA
2E
2A
0A
40
40
7E
ENDCHAR
STARTCHAR U+AC24
ENCODING 44068
SWIDTH 1142 0
DWIDTH 8 0
BBX 7 7 0 0
BITMAP
EA
2E
2A
00
7C
18
3E
ENDCHAR
STARTCHAR U+AC2C
ENCODING 44076
SWIDTH 1142 0
DWIDTH 8 0
BBX 7 7 0 0
BITMAP
EA
2E
2A
00
7E
42
7E
ENDCHAR
STARTCHAR U+AC2D
ENCODING 44077
SWIDTH 1142 0
DWIDTH 8 0
BBX 7 7 0 0
BITMAP
EA
2E
2A
00
42
7E
7E
ENDCHAR
STARTCHAR U+AC2F
ENCODING 44079
SWIDTH 1142 0
DWIDTH 8 0
BBX 7 7 0 0
BITMAP
EA
2E
2A
00
08
14
62
ENDCHAR
STARTCHAR U+AC30
ENCODING 44080
SWIDTH 1142 0
DWIDTH 8 0
BBX 7 7 0 0
BITMAP
EA
2E
2A
00
14
2C
52
ENDCHAR
STARTCHAR U+AC31
ENCODING 44081
SWIDTH 1142 0
DWIDTH 8 0
BBX 7 7 0 0
BITMAP
EA
2E
2A
00
3C
42
3C
ENDCHAR
STARTCHAR U+AC38
ENCODING 44088
SWIDTH 1142 0
DWIDTH 8 0
BBX 7 7 0 0
BITMAP
F4
16
14
16
14
04
04
ENDCHAR
STARTCHAR U+AC39
ENCODING 44089
SWIDTH 1142 0
DWIDTH 8 0
BBX 7 7 0 0
BITMAP
F6
14
16
04
7C
04
04
ENDCHAR
STARTCHAR U+AC3C
ENCODING 44092
SWIDTH 1142 0
DWIDTH 8 0
BBX 7 7 0 0
BITMAP
F6
14
16
04
40
40
7C
ENDCHAR
STARTCHAR U+AC40
ENCODING 44096
SWIDTH 1142 0
DWIDTH 8 0
BBX 7 7 0 0
BITMAP
F6
14
16
04
78
10
3C
ENDCHAR
STARTCHAR U+AC4B
ENCODING 44107
SWIDTH 1142 0
DWIDTH 8 0
BBX 7 7 0 0
BITMAP
F6
14
16
04
10
28
44
ENDCHAR
STARTCHAR U+AC4D
ENCODING 44109
SWIDTH 1142 0
DWIDTH 8 0
BBX 7 7 0 0
BITMAP
F6
14
16
04
38
44
38
ENDCHAR
STARTCHAR U+AC54
ENCODING 44116
SWIDTH 1142 0
DWIDTH 8 0
BBX 7 7 0 0
BITMAP
EA
2E
2A
2E
2A
0A
0A
ENDCHAR
STARTCHAR U+AC58
ENCODING 44120
SWIDTH 1142 0
DWIDTH 8 0
BBX 7 7 0 0
BITMAP
EE
2A
2E
0A
40
40
7E
ENDCHAR
STARTCHAR U+AC5C
ENCODING 44124
SWIDTH 1142 0
DWIDTH 8 0
BBX 7 7 0 0
BITMAP
EE
2A
2E
0A
7C
18
3E
ENDCHAR
STARTCHAR U+AC70
ENCODING 44144
SWIDTH 1142 0
DWIDTH 8 0
BBX 6 7 0 0
BITMAP
E4
24
3C
24
24
04
04
ENDCHAR
STARTCHAR U+AC71
ENCODING 44145
SWIDTH 1142 0
DWIDTH 8 0
BBX 6 7 0 0
BITMAP
E4
3C
24
00
7C
04
04
ENDCHAR
STARTCHAR U+AC74
ENCODING 44148
SWIDTH 1142 0
DWIDTH 8 0
BBX 6 7 0 0
BITMAP
E4
3C
24
04
40
40
7C
ENDCHAR
STARTCHAR U+AC77
ENCODING 44151
SWIDTH 1142 0
DWIDTH 8 0
BBX 6 7 0 0
BITMAP
E4
3C
24
00
7C
40
7C
ENDCHAR
STARTCHAR U+AC78
ENCODING 44152
SWIDTH 1142 0
DWIDTH 8 0
BBX 6 7 0 0
BITMAP
E4
3C
24
00
78
10
3C
ENDCHAR
STARTCHAR U+AC7A
ENCODING 44154
SWIDTH 1142 0
DWIDTH 8 0
BBX 6 7 0 0
BITMAP
E4
3C
24
00
DC
54
7C
ENDCHAR
STARTCHAR U+AC80
ENCODING 44160
SWIDTH 1142 0
DWIDTH 8 0
BBX 6 7 0 0
BITMAP
E4
3C
24
00
7C
44
7C
ENDCHAR
STARTCHAR U+AC81
ENCODING 44161
SWIDTH 1142 0
DWIDTH 8 0
BBX 6 7 0 0
BITMAP
E4
3C
24
00
44
7C
7C
ENDCHAR
STARTCHAR U+AC83
ENCODING 44163
SWIDTH 1142 0
DWIDTH 8 0
BBX 6 7 0 0
BITMAP
E4
3C
24
04
10
28
44
ENDCHAR
STARTCHAR U+AC84
ENCODING 44164
SWIDTH 1142 0
DWIDTH 8 0
BBX 6 7 0 0
BITMAP
E4
3C
24
00
14
28
54
ENDCHAR
STARTCHAR U+AC85
ENCODING 44165
SWIDTH 1142 0
DWIDTH 8 0
BBX 6 7 0 0
BITMAP
E4
3C
24
00
38
44
38
ENDCHAR
STARTCHAR U+AC86
ENCODING 44166
SWIDTH 1142 0
DWIDTH 8 0
BBX 6 7 0 0
BITMAP
E4
3C
24
00
7C
10
6C
ENDCHAR
STARTCHAR U+AC89
ENCODING 44169
SWIDTH 1142 0
DWIDTH 8 0
BBX 6 7 0 0
BITMAP
E4
3C
24
00
7C
78
7C
ENDCHAR
STARTCHAR U+AC8A
ENCODING 44170
SWIDTH 1142 0
DWIDTH 8 0
BBX 6 7 0 0
BITMAP
E4
3C
24
00
7C
28
7C
ENDCHAR
STARTCHAR U+AC8B
ENCODING 44171
SWIDTH 1142 0
DWIDTH 8 0
BBX 6 7 0 0
BITMAP
E4
3C
24
10
7C
28
10
ENDCHAR
STARTCHAR U+AC8C
ENCODING 44172
SWIDTH 1142 0
DWIDTH 8 0
BBX 7 7 0 0
BITMAP
EA
2A
3A
2A
2A
0A
0A
ENDCHAR
STARTCHAR U+AC90
ENCODING 44176
SWIDTH 1142 0
DWIDTH 8 0
BBX 7 7 0 0
BITMAP
EA
3A
2A
0A
40
40
7E
ENDCHAR
STARTCHAR U+AC94
ENCODING 44180
SWIDTH 1142 0
DWIDTH 8 0
BBX 7 7 0 0
BITMAP
EA
3A
2A
00
7C
18
3E
ENDCHAR
STARTCHAR U+AC9C
ENCODING 44188
SWIDTH 1142 0
DWIDTH 8 0
BBX 7 7 0 0
BITMAP
EA
3A
2A
00
7E
42
7E
ENDCHAR
STARTCHAR U+AC9D
ENCODING 44189
SWIDTH 1142 0
DWIDTH 8 0
BBX 7 7 0 0
BITMAP
EA
3A
2A
00
42
7E
7E
ENDCHAR
STARTCHAR U+AC9F
ENCODING 44191
SWIDTH 1142 0
DWIDTH 8 0
BBX 7 7 0 0
BITMAP
EA
3A
2A
00
08
14
62
ENDCHAR
STARTCHAR U+ACA0
ENCODING 44192
SWIDTH 1142 0
DWIDTH 8 0
BBX 7 7 0 0
BITMAP
EA
3A
2A
00
14
2C
52
ENDCHAR
STARTCHAR U+ACA1
ENCODING 44193
SWIDTH 1142 0
DWIDTH 8 0
BBX 7 7 0 0
BITMAP
EA
3A
2A
00
3C
42
3C
ENDCHAR
STARTCHAR U+ACA8
ENCODING 44200
SWIDTH 1142 0
DWIDTH 8 0
BBX 6 7 0 0
BITMAP
E4
3C
24
3C
24
04
04
ENDCHAR
STARTCHAR U+ACA9
ENCODING 44201
SWIDTH 1142 0
DWIDTH 8 0
BBX 6 7 0 0
BITMAP
EC
24
2C
04
7C
04
04
ENDCHAR
STARTCHAR U+ACAA
ENCODING 44202
SWIDTH 1142 0
DWIDTH 8 0
BBX 6 7 0 0
BITMAP
EC
24
2C
04
7C
14
14
ENDCHAR
STARTCHAR U+ACAC
ENCODING 44204
SWIDTH 1142 0
DWIDTH 8 0
BBX 6 7 0 0
BITMAP
EC
24
2C
04
40
40
7C
ENDCHAR
STARTCHAR U+ACAF
ENCODING 44207
SWIDTH 1142 0
DWIDTH 8 0
BBX 6 7 0 0
BITMAP
EC
24
2C
04
7C
40
7C
ENDCHAR
STARTCHAR U+ACB0
ENCODING 44208
SWIDTH 1142 0
DWIDTH 8 0
BBX 6 7 0 0
BITMAP
EC
24
2C
04
78
10
3C
ENDCHAR
STARTCHAR U+ACB8
ENCODING 44216
SWIDTH 1142 0
DWIDTH 8 0
BBX 6 7 0 0
BITMAP
EC
24
2C
04
7C
44
7C
ENDCHAR
STARTCHAR U+ACB9
ENCODING 44217
SWIDTH 1142 0
DWIDTH 8 0
BBX 6 7 0 0
BITMAP
EC
24
2C
04
44
7C
7C
ENDCHAR
STARTCHAR U+ACBB
ENCODING 44219
SWIDTH 1142 0
DWIDTH 8 0
BBX 6 7 0 0
BITMAP
EC
24
2C
04
10
28
44
ENDCHAR
STARTCHAR U+ACBC
ENCODING 44220
SWIDTH 1142 0
DWIDTH 8 0
BBX 6 7 0 0
BITMAP
EC
24
2C
04
14
28
54
ENDCHAR
STARTCHAR U+ACBD
ENCODING 44221
SWIDTH 1142 0
DWIDTH 8 0
BBX 6 7 0 0
BITMAP
EC
24
2C
04
38
44
38
ENDCHAR
STARTCHAR U+ACC1
ENCODING 44225
SWIDTH 1142 0
DWIDTH 8 0
BBX 6 7 0 0
BITMAP
EC
24
2C
04
7C
78
7C
ENDCHAR
STARTCHAR U+ACC4
ENCODING 44228
SWIDTH 1142 0
DWIDTH 8 0
BBX 7 7 0 0
BITMAP
EA
3A
2A
3A
2A
0A
0A
ENDCHAR
STARTCHAR U+ACC8
ENCODING 44232
SWIDTH 1142 0
DWIDTH 8 0
BBX 7 7 0 0
BITMAP
FA
2A
3A
2A
40
40
7E
ENDCHAR
STARTCHAR U+ACCC
ENCODING 44236
SWIDTH 1142 0
DWIDTH 8 0
BBX 7 7 0 0
BITMAP
FA
2A
3A
2A
7C
18
3E
ENDCHAR
STARTCHAR U+ACD5
ENCODING 44245
SWIDTH 1142 0
DWIDTH 8 0
BBX 7 7 0 0
BITMAP
FA
2A
3A
2A
42
7E
7E
ENDCHAR
STARTCHAR U+ACD7
ENCODING 44247
SWIDTH 1142 0
DWIDTH 8 0
BBX 7 7 0 0
BITMAP
FA
2A
3A
2A
18
24
42
ENDCHAR
STARTCHAR U+ACE0
ENCODING 44256
SWIDTH 1142 0
DWIDTH 8 0
BBX 7 6 0 1
BITMAP
7C
04
04
14
10
FE
ENDCHAR
STARTCHAR U+ACE1
ENCODING 44257
SWIDTH 1142 0
DWIDTH 8 0
BBX 7 7 0 0
BITMAP
7C
04
14
FE
00
7C
04
ENDCHAR
STARTCHAR U+ACE4
ENCODING 44260
SWIDTH 1142 0
DWIDTH 8 0
BBX 7 7 0 0
BITMAP
7C
04
14
FE
00
40
7C
ENDCHAR
STARTCHAR U+ACE7
ENCODING 44263
SWIDTH 1142 0
DWIDTH 8 0
BBX 7 7 0 0
BITMAP
7C
04
14
FE
7C
40
7C
ENDCHAR
STARTCHAR U+ACE8
ENCODING 44264
SWIDTH 1142 0
DWIDTH 8 0
BBX 7 7 0 0
BITMAP
7C
04
14
FE
78
10
3C
ENDCHAR
STARTCHAR U+ACEA
ENCODING 44266
SWIDTH 1142 0
DWIDTH 8 0
BBX 7 7 0 0
BITMAP
7C
04
14
FE
DC
54
7C
ENDCHAR
STARTCHAR U+ACEC
ENCODING 44268
SWIDTH 1142 0
DWIDTH 8 0
BBX 7 7 0 0
BITMAP
7C
04
14
FE
64
24
3A
ENDCHAR
STARTCHAR U+ACEF
ENCODING 44271
SWIDTH 1142 0
DWIDTH 8 0
BBX 7 7 0 0
BITMAP
7C
04
14
FE
64
2E
34
ENDCHAR
STARTCHAR U+ACF0
ENCODING 44272
SWIDTH 1142 0
DWIDTH 8 0
BBX 7 7 0 0
BITMAP
7C
04
14
FE
7C
44
7C
ENDCHAR
STARTCHAR U+ACF1
ENCODING 44273
SWIDTH 1142 0
DWIDTH 8 0
BBX 7 7 0 0
BITMAP
7C
04
14
FE
44
7C
7C
ENDCHAR
STARTCHAR U+ACF3
ENCODING 44275
SWIDTH 1142 0
DWIDTH 8 0
BBX 7 7 0 0
BITMAP
7C
04
14
FE
10
28
44
ENDCHAR
STARTCHAR U+ACF5
ENCODING 44277
SWIDTH 1142 0
DWIDTH 8 0
BBX 7 7 0 0
BITMAP
7C
04
14
FE
38
44
38
ENDCHAR
STARTCHAR U+ACF6
ENCODING 44278
SWIDTH 1142 0
DWIDTH 8 0
BBX 7 7 0 0
BITMAP
7C
04
14
FE
7C
10
6C
ENDCHAR
STARTCHAR U+ACFC
ENCODING 44284
SWIDTH 1142 0
DWIDTH 8 0
BBX 7 7 0 0
BITMAP
F4
14
14
56
44
FC
04
ENDCHAR
STARTCHAR U+ACFD
ENCODING 44285
SWIDTH 1142 0
DWIDTH 8 0
BBX 7 7 0 0
BITMAP
F4
14
56
FC
00
7C
04
ENDCHAR
STARTCHAR U+AD00
ENCODING 44288
SWIDTH 1142 0
DWIDTH 8 0
BBX 7 7 0 0
BITMAP
F4
14
56
FC
00
40
7C
ENDCHAR
STARTCHAR U+AD04
ENCODING 44292
SWIDTH 1142 0
DWIDTH 8 0
BBX 7 7 0 0
BITMAP
F4
14
56
FC
78
10
3C
ENDCHAR
STARTCHAR U+AD06
ENCODING 44294
SWIDTH 1142 0
DWIDTH 8 0
BBX 7 7 0 0
BITMAP
F4
14
56
FC
DC
54
7C
ENDCHAR
STARTCHAR U+AD0C
ENCODING 44300
SWIDTH 1142 0
DWIDTH 8 0
BBX 7 7 0 0
BITMAP
F4
14
56
FC
7C
44
7C
ENDCHAR
STARTCHAR U+AD0D
ENCODING 44301
SWIDTH 1142 0
DWIDTH 8 0
BBX 7 7 0 0
BITMAP
F4
14
56
FC
44
7C
7C
ENDCHAR
STARTCHAR U+AD0F
ENCODING 44303
SWIDTH 1142 0
DWIDTH 8 0
BBX 7 7 0 0
BITMAP
F4
14
56
FC
10
28
44
ENDCHAR
STARTCHAR U+AD11
ENCODING 44305
SWIDTH 1142 0
DWIDTH 8 0
BBX 7 7 0 0
BITMAP
F4
14
56
FC
38
44
38
ENDCHAR
STARTCHAR U+AD18
ENCODING 44312
SWIDTH 1142 0
DWIDTH 8 0
BBX 7 7 0 0
BITMAP
EA
2A
2A
0E
4A
FA
0A
ENDCHAR
STARTCHAR U+AD1C
ENCODING 44316
SWIDTH 1142 0
DWIDTH 8 0
BBX 7 7 0 0
BITMAP
EA
2A
4E
FA
00
40
7E
ENDCHAR
STARTCHAR U+AD20
ENCODING 44320
SWIDTH 1142 0
DWIDTH 8 0
BBX 7 7 0 0
BITMAP
EA
2A
4E
FA
7C
18
3E
ENDCHAR
STARTCHAR U+AD29
ENCODING 44329
SWIDTH 1142 0
DWIDTH 8 0
BBX 7 7 0 0
BITMAP
EA
2A
4E
FA
42
7E
7E
ENDCHAR
STARTCHAR U+AD2C
ENCODING 44332
SWIDTH 1142 0
DWIDTH 8 0
BBX 7 7 0 0
BITMAP
EA
2A
4E
FA
14
2C
52
ENDCHAR
STARTCHAR U+AD2D
ENCODING 44333
SWIDTH 1142 0
DWIDTH 8 0
BBX 7 7 0 0
BITMAP
EA
2A
4E
FA
3C
42
3C
ENDCHAR
STARTCHAR U+AD34
ENCODING 44340
SWIDTH 1142 0
DWIDTH 8 0
BBX 6 7 0 0
BITMAP
F4
14
14
54
44
FC
04
ENDCHAR
STARTCHAR U+AD35
ENCODING 44341
SWIDTH 1142 0
DWIDTH 8 0
BBX 6 7 0 0
BITMAP
F4
14
54
FC
00
7C
04
ENDCHAR
STARTCHAR U+AD38
ENCODING 44344
SWIDTH 1142 0
DWIDTH 8 0
BBX 6 7 0 0
BITMAP
F4
14
54
FC
00
40
7C
ENDCHAR
STARTCHAR U+AD3C
ENCODING 44348
SWIDTH 1142 0
DWIDTH 8 0
BBX 6 7 0 0
BITMAP
F4
14
54
FC
78
10
3C
ENDCHAR
STARTCHAR U+AD44
ENCODING 44356
SWIDTH 1142 0
DWIDTH 8 0
BBX 6 7 0 0
BITMAP
F4
14
54
FC
7C
44
7C
ENDCHAR
STARTCHAR U+AD45
ENCODING 44357
SWIDTH 1142 0
DWIDTH 8 0
BBX 6 7 0 0
BITMAP
F4
14
54
FC
44
7C
7C
ENDCHAR
STARTCHAR U+AD47
ENCODING 44359
SWIDTH 1142 0
DWIDTH 8 0
BBX 6 7 0 0
BITMAP
F4
14
54
FC
10
28
44
ENDCHAR
STARTCHAR U+AD49
ENCODING 44361
SWIDTH 1142 0
DWIDTH 8 0
BBX 6 7 0 0
BITMAP
F4
14
54
FC
38
44
38
ENDCHAR
STARTCHAR U+AD50
ENCODING 44368
SWIDTH 1142 0
DWIDTH 8 0
BBX 7 6 0 1
BITMAP
7C
04
04
54
50
FE
ENDCHAR
STARTCHAR U+AD54
ENCODING 44372
SWIDTH 1142 0
DWIDTH 8 0
BBX 7 7 0 0
BITMAP
7C
04
54
FE
00
40
7C
ENDCHAR
STARTCHAR U+AD58
ENCODING 44376
SWIDTH 1142 0
DWIDTH 8 0
BBX 7 7 0 0
BITMAP
7C
04
54
FE
78
10
3C
ENDCHAR
STARTCHAR U+AD61
ENCODING 44385
SWIDTH 1142 0
DWIDTH 8 0
BBX 7 7 0 0
BITMAP
7C
04
54
FE
44
7C
7C
ENDCHAR
STARTCHAR U+AD63
ENCODING 44387
SWIDTH 1142 0
DWIDTH 8 0
BBX 7 7 0 0
BITMAP
7C
04
54
FE
10
28
44
ENDCHAR
STARTCHAR U+AD6C
ENCODING 44396
SWIDTH 1142 0
DWIDTH 8 0
BBX 7 7 0 0
BITMAP
7C
04
04
00
FE
10
10
ENDCHAR
STARTCHAR U+AD6D
ENCODING 44397
SWIDTH 1142 0
DWIDTH 8 0
BBX 7 7 0 0
BITMAP
7C
04
FE
10
7C
04
04
ENDCHAR
STARTCHAR U+AD70
ENCODING 44400
SWIDTH 1142 0
DWIDTH 8 0
BBX 7 7 0 0
BITMAP
7C
04
FE
10
50
40
7C
ENDCHAR
STARTCHAR U+AD73
ENCODING 44403
SWIDTH 1142 0
DWIDTH 8 0
BBX 7 7 0 0
BITMAP
7C
04
FE
10
7C
40
7C
ENDCHAR
STARTCHAR U+AD74
ENCODING 44404
SWIDTH 1142 0
DWIDTH 8 0
BBX 7 7 0 0
BITMAP
7C
04
FE
10
78
10
3C
ENDCHAR
STARTCHAR U+AD75
ENCODING 44405
SWIDTH 1142 0
DWIDTH 8 0
BBX 7 7 0 0
BITMAP
7C
04
FE
10
DC
44
64
ENDCHAR
STARTCHAR U+AD76
ENCODING 44406
SWIDTH 1142 0
DWIDTH 8 0
BBX 7 7 0 0
BITMAP
7C
04
FE
10
DC
54
7C
ENDCHAR
STARTCHAR U+AD7B
ENCODING 44411
SWIDTH 1142 0
DWIDTH 8 0
BBX 7 7 0 0
BITMAP
7C
04
FE
10
C8
5C
68
ENDCHAR
STARTCHAR U+AD7C
ENCODING 44412
SWIDTH 1142 0
DWIDTH 8 0
BBX 7 7 0 0
BITMAP
7C
04
FE
10
7C
44
7C
ENDCHAR
STARTCHAR U+AD7D
ENCODING 44413
SWIDTH 1142 0
DWIDTH 8 0
BBX 7 7 0 0
BITMAP
7C
04
FE
10
44
7C
7C
ENDCHAR
STARTCHAR U+AD7F
ENCODING 44415
SWIDTH 1142 0
DWIDTH 8 0
BBX 7 7 0 0
BITMAP
7C
04
FE
10
10
28
44
ENDCHAR
STARTCHAR U+AD81
ENCODING 44417
SWIDTH 1142 0
DWIDTH 8 0
BBX 7 7 0 0
BITMAP
7C
04
FE
10
38
44
38
ENDCHAR
STARTCHAR U+AD82
ENCODING 44418
SWIDTH 1142 0
DWIDTH 8 0
BBX 7 7 0 0
BITMAP
7C
04
FE
10
7C
10
6C
ENDCHAR
STARTCHAR U+AD88
ENCODING 44424
SWIDTH 1142 0
DWIDTH 8 0
BBX 6 7 0 0
BITMAP
E4
24
24
F4
4C
44
44
ENDCHAR
STARTCHAR U+AD89
ENCODING 44425
SWIDTH 1142 0
DWIDTH 8 0
BBX 6 7 0 0
BITMAP
E4
2C
F4
24
7C
04
04
ENDCHAR
STARTCHAR U+AD8C
ENCODING 44428
SWIDTH 1142 0
DWIDTH 8 0
BBX 6 7 0 0
BITMAP
E4
2C
F4
24
40
40
7C
ENDCHAR
STARTCHAR U+AD90
ENCODING 44432
SWIDTH 1142 0
DWIDTH 8 0
BBX 6 7 0 0
BITMAP
E4
2C
F4
24
78
10
3C
ENDCHAR
STARTCHAR U+AD9C
ENCODING 44444
SWIDTH 1142 0
DWIDTH 8 0
BBX 6 7 0 0
BITMAP
E4
2C
F4
24
14
28
54
ENDCHAR
STARTCHAR U+AD9D
ENCODING 44445
SWIDTH 1142 0
DWIDTH 8 0
BBX 6 7 0 0
BITMAP
E4
2C
F4
24
38
44
38
ENDCHAR
STARTCHAR U+ADA4
ENCODING 44452
SWIDTH 1142 0
DWIDTH 8 0
BBX 7 7 0 0
BITMAP
EA
2A
0A
EA
5A
4A
4A
ENDCHAR
STARTCHAR U+ADB7
ENCODING 44471
SWIDTH 1142 0
DWIDTH 8 0
BBX 7 7 0 0
BITMAP
EA
3A
EA
4A
08
14
62
ENDCHAR
STARTCHAR U+ADC0
ENCODING 44480
SWIDTH 1142 0
DWIDTH 8 0
BBX 6 7 0 0
BITMAP
E4
24
24
04
F4
44
44
ENDCHAR
STARTCHAR U+ADC1
ENCODING 44481
SWIDTH 1142 0
DWIDTH 8 0
BBX 6 7 0 0
BITMAP
E4
24
F4
24
7C
04
04
ENDCHAR
STARTCHAR U+ADC4
ENCODING 44484
SWIDTH 1142 0
DWIDTH 8 0
BBX 6 7 0 0
BITMAP
E4
24
F4
24
40
40
7C
ENDCHAR
STARTCHAR U+ADC8
ENCODING 44488
SWIDTH 1142 0
DWIDTH 8 0
BBX 6 7 0 0
BITMAP
E4
24
F4
24
78
10
3C
ENDCHAR
STARTCHAR U+ADD0
ENCODING 44496
SWIDTH 1142 0
DWIDTH 8 0
BBX 6 7 0 0
BITMAP
E4
24
F4
24
7C
44
7C
ENDCHAR
STARTCHAR U+ADD1
ENCODING 44497
SWIDTH 1142 0
DWIDTH 8 0
BBX 6 7 0 0
BITMAP
E4
24
F4
24
44
7C
7C
ENDCHAR
STARTCHAR U+ADD3
ENCODING 44499
SWIDTH 1142 0
DWIDTH 8 0
BBX 6 7 0 0
BITMAP
E4
24
F4
24
10
28
44
ENDCHAR
STARTCHAR U+ADDC
ENCODING 44508
SWIDTH 1142 0
DWIDTH 8 0
BBX 7 7 0 0
BITMAP
7C
04
04
00
FE
28
28
ENDCHAR
STARTCHAR U+ADE0
ENCODING 44512
SWIDTH 1142 0
DWIDTH 8 0
BBX 7 7 0 0
BITMAP
7C
04
FE
28
40
40
7C
ENDCHAR
STARTCHAR U+ADE4
ENCODING 44516
SWIDTH 1142 0
DWIDTH 8 0
BBX 7 7 0 0
BITMAP
7C
04
FE
28
78
10
3C
ENDCHAR
STARTCHAR U+ADF8
ENCODING 44536
SWIDTH 1142 0
DWIDTH 8 0
BBX 7 6 0 1
BITMAP
7C
04
04
04
00
FE
ENDCHAR
STARTCHAR U+ADF9
ENCODING 44537
SWIDTH 1142 0
DWIDTH 8 0
BBX 7 7 0 0
BITMAP
7C
04
FE
00
7C
04
04
ENDCHAR
STARTCHAR U+ADFC
ENCODING 44540
SWIDTH 1142 0
DWIDTH 8 0
BBX 7 7 0 0
BITMAP
7C
04
FE
00
40
40
7C
ENDCHAR
STARTCHAR U+ADFF
ENCODING 44543
SWIDTH 1142 0
DWIDTH 8 0
BBX 7 7 0 0
BITMAP
7C
04
FE
00
7C
40
7C
ENDCHAR
STARTCHAR U+AE00
ENCODING 44544
SWIDTH 1142 0
DWIDTH 8 0
BBX 7 7 0 0
BITMAP
7C
04
FE
00
78
10
3C
ENDCHAR
STARTCHAR U+AE01
ENCODING 44545
SWIDTH 1142 0
DWIDTH 8 0
BBX 7 7 0 0
BITMAP
7C
04
FE
00
DC
44
64
ENDCHAR
STARTCHAR U+AE08
ENCODING 44552
SWIDTH 1142 0
DWIDTH 8 0
BBX 7 7 0 0
BITMAP
7C
04
FE
00
7C
44
7C
ENDCHAR
STARTCHAR U+AE09
ENCODING 44553
SWIDTH 1142 0
DWIDTH 8 0
BBX 7 7 0 0
BITMAP
7C
04
FE
00
44
7C
7C
ENDCHAR
STARTCHAR U+AE0B
ENCODING 44555
SWIDTH 1142 0
DWIDTH 8 0
BBX 7 7 0 0
BITMAP
7C
04
FE
00
10
28
44
ENDCHAR
STARTCHAR U+AE0D
ENCODING 44557
SWIDTH 1142 0
DWIDTH 8 0
BBX 7 7 0 0
BITMAP
7C
04
FE
00
38
44
38
ENDCHAR
STARTCHAR U+AE14
ENCODING 44564
SWIDTH 1142 0
DWIDTH 8 0
BBX 6 7 0 0
BITMAP
E4
24
24
24
04
F4
04
ENDCHAR
STARTCHAR U+AE30
ENCODING 44592
SWIDTH 1142 0
DWIDTH 8 0
BBX 6 7 0 0
BITMAP
F4
14
14
14
14
04
04
ENDCHAR
STARTCHAR U+AE31
ENCODING 44593
SWIDTH 1142 0
DWIDTH 8 0
BBX 6 7 0 0
BITMAP
F4
14
14
00
7C
04
04
ENDCHAR
STARTCHAR U+AE34
ENCODING 44596
SWIDTH 1142 0
DWIDTH 8 0
BBX 6 7 0 0
BITMAP
F4
14
14
04
40
40
7C
ENDCHAR
STARTCHAR U+AE37
ENCODING 44599
SWIDTH 1142 0
DWIDTH 8 0
BBX 6 7 0 0
BITMAP
F4
14
14
00
7C
40
7C
ENDCHAR
STARTCHAR U+AE38
ENCODING 44600
SWIDTH 1142 0
DWIDTH 8 0
BBX 6 7 0 0
BITMAP
F4
14
14
00
78
10
3C
ENDCHAR
STARTCHAR U+AE3A
ENCODING 44602
SWIDTH 1142 0
DWIDTH 8 0
BBX 6 7 0 0
BITMAP
F4
14
14
00
DC
54
7C
ENDCHAR
STARTCHAR U+AE40
ENCODING 44608
SWIDTH 1142 0
DWIDTH 8 0
BBX 6 7 0 0
BITMAP
F4
14
14
00
7C
44
7C
ENDCHAR
STARTCHAR U+AE41
ENCODING 44609
SWIDTH 1142 0
DWIDTH 8 0
BBX 6 7 0 0
BITMAP
F4
14
14
00
44
7C
7C
ENDCHAR
STARTCHAR U+AE43
ENCODING 44611
SWIDTH 1142 0
DWIDTH 8 0
BBX 6 7 0 0
BITMAP
F4
14
14
04
10
28
44
ENDCHAR
STARTCHAR U+AE45
ENCODING 44613
SWIDTH 1142 0
DWIDTH 8 0
BBX 6 7 0 0
BITMAP
F4
14
14
00
38
44
38
ENDCHAR
STARTCHAR U+AE46
ENCODING 44614
SWIDTH 1142 0
DWIDTH 8 0
BBX 6 7 0 0
BITMAP
F4
14
14
00
7C
10
6C
ENDCHAR
STARTCHAR U+AE4A
ENCODING 44618
SWIDTH 1142 0
DWIDTH 8 0
BBX 6 7 0 0
BITMAP
F4
14
14
00
7C
28
7C
ENDCHAR
STARTCHAR U+AE4C
ENCODING 44620
SWIDTH 1142 0
DWIDTH 8 0
BBX 7 7 0 0
BITMAP
F4
54
56
54
54
04
04
ENDCHAR
STARTCHAR U+AE4D
ENCODING 44621
SWIDTH 1142 0
DWIDTH 8 0
BBX 7 7 0 0
BITMAP
F4
56
54
00
7C
04
04
ENDCHAR
STARTCHAR U+AE4E
ENCODING 44622
SWIDTH 1142 0
DWIDTH 8 0
BBX 7 7 0 0
BITMAP
F4
56
54
00
7C
14
14
ENDCHAR
STARTCHAR U+AE50
ENCODING 44624
SWIDTH 1142 0
DWIDTH 8 0
BBX 7 7 0 0
BITMAP
F4
56
54
04
40
40
7C
ENDCHAR
STARTCHAR U+AE54
ENCODING 44628
SWIDTH 1142 0
DWIDTH 8 0
BBX 7 7 0 0
BITMAP
F4
56
54
00
78
10
3C
ENDCHAR
STARTCHAR U+AE56
ENCODING 44630
SWIDTH 1142 0
DWIDTH 8 0
BBX 7 7 0 0
BITMAP
F4
56
54
00
DC
54
7C
ENDCHAR
STARTCHAR U+AE5C
ENCODING 44636
SWIDTH 1142 0
DWIDTH 8 0
BBX 7 7 0 0
BITMAP
F4
56
54
00
7C
44
7C
ENDCHAR
STARTCHAR U+AE5D
ENCODING 44637
SWIDTH 1142 0
DWIDTH 8 0
BBX 7 7 0 0
BITMAP
F4
56
54
00
44
7C
7C
ENDCHAR
STARTCHAR U+AE5F
ENCODING 44639
SWIDTH 1142 0
DWIDTH 8 0
BBX 7 7 0 0
BITMAP
F4
56
54
04
10
28
44
ENDCHAR
STARTCHAR U+AE60
ENCODING 44640
SWIDTH 1142 0
DWIDTH 8 0
BBX 7 7 0 0
BITMAP
F4
56
54
00
14
28
54
ENDCHAR
STARTCHAR U+AE61
ENCODING 44641
SWIDTH 1142 0
DWIDTH 8 0
BBX 7 7 0 0
BITMAP
F4
56
54
00
38
44
38
ENDCHAR
STARTCHAR U+AE65
ENCODING 44645
SWIDTH 1142 0
DWIDTH 8 0
BBX 7 7 0 0
BITMAP
F4
56
54
00
7C
78
7C
ENDCHAR
STARTCHAR U+AE68
ENCODING 44648
SWIDTH 1142 0
DWIDTH 8 0
BBX 7 7 0 0
BITMAP
FA
5A
5E
5A
5A
0A
0A
ENDCHAR
STARTCHAR U+AE69
ENCODING 44649
SWIDTH 1142 0
DWIDTH 8 0
BBX 7 7 0 0
BITMAP
FA
5E
5A
00
7E
02
02
ENDCHAR
STARTCHAR U+AE6C
ENCODING 44652
SWIDTH 1142 0
DWIDTH 8 0
BBX 7 7 0 0
BITMAP
FA
5E
5A
0A
40
40
7E
ENDCHAR
STARTCHAR U+AE70
ENCODING 44656
SWIDTH 1142 0
DWIDTH 8 0
BBX 7 7 0 0
BITMAP
FA
5E
5A
00
7C
18
3E
ENDCHAR
STARTCHAR U+AE78
ENCODING 44664
SWIDTH 1142 0
DWIDTH 8 0
BBX 7 7 0 0
BITMAP
FA
5E
5A
00
7E
42
7E
ENDCHAR
STARTCHAR U+AE79
ENCODING 44665
SWIDTH 1142 0
DWIDTH 8 0
BBX 7 7 0 0
BITMAP
FA
5E
5A
00
42
7E
7E
ENDCHAR
STARTCHAR U+AE7B
ENCODING 44667
SWIDTH 1142 0
DWIDTH 8 0
BBX 7 7 0 0
BITMAP
FA
5E
5A
00
08
14
62
ENDCHAR
STARTCHAR U+AE7C
ENCODING 44668
SWIDTH 1142 0
DWIDTH 8 0
BBX 7 7 0 0
BITMAP
FA
5E
5A
00
14
2C
52
ENDCHAR
STARTCHAR U+AE7D
ENCODING 44669
SWIDTH 1142 0
DWIDTH 8 0
BBX 7 7 0 0
BITMAP
FA
5E
5A
00
3C
42
3C
ENDCHAR
STARTCHAR U+AE84
ENCODING 44676
SWIDTH 1142 0
DWIDTH 8 0
BBX 7 7 0 0
BITMAP
F4
56
54
56
54
04
04
ENDCHAR
STARTCHAR U+AE85
ENCODING 44677
SWIDTH 1142 0
DWIDTH 8 0
BBX 7 7 0 0
BITMAP
F6
54
56
04
7C
04
04
ENDCHAR
STARTCHAR U+AE8C
ENCODING 44684
SWIDTH 1142 0
DWIDTH 8 0
BBX 7 7 0 0
BITMAP
F6
54
56
04
78
10
3C
ENDCHAR
STARTCHAR U+AEBC
ENCODING 44732
SWIDTH 1142 0
DWIDTH 8 0
BBX 6 7 0 0
BITMAP
F4
54
5C
54
54
04
04
ENDCHAR
STARTCHAR U+AEBD
ENCODING 44733
SWIDTH 1142 0
DWIDTH 8 0
BBX 6 7 0 0
BITMAP
F4
5C
54
00
7C
04
04
ENDCHAR
STARTCHAR U+AEBE
ENCODING 44734
SWIDTH 1142 0
DWIDTH 8 0
BBX 6 7 0 0
BITMAP
F4
5C
54
00
7C
14
14
ENDCHAR
STARTCHAR U+AEC0
ENCODING 44736
SWIDTH 1142 0
DWIDTH 8 0
BBX 6 7 0 0
BITMAP
F4
5C
54
04
40
40
7C
ENDCHAR
STARTCHAR U+AEC4
ENCODING 44740
SWIDTH 1142 0
DWIDTH 8 0
BBX 6 7 0 0
BITMAP
F4
5C
54
00
78
10
3C
ENDCHAR
STARTCHAR U+AECC
ENCODING 44748
SWIDTH 1142 0
DWIDTH 8 0
BBX 6 7 0 0
BITMAP
F4
5C
54
00
7C
44
7C
ENDCHAR
STARTCHAR U+AECD
ENCODING 44749
SWIDTH 1142 0
DWIDTH 8 0
BBX 6 7 0 0
BITMAP
F4
5C
54
00
44
7C
7C
ENDCHAR
STARTCHAR U+AECF
ENCODING 44751
SWIDTH 1142 0
DWIDTH 8 0
BBX 6 7 0 0
BITMAP
F4
5C
54
04
10
28
44
ENDCHAR
STARTCHAR U+AED0
ENCODING 44752
SWIDTH 1142 0
DWIDTH 8 0
BBX 6 7 0 0
BITMAP
F4
5C
54
00
14
28
54
ENDCHAR
STARTCHAR U+AED1
ENCODING 44753
SWIDTH 1142 0
DWIDTH 8 0
BBX 6 7 0 0
BITMAP
F4
5C
54
00
38
44
38
ENDCHAR
STARTCHAR U+AED8
ENCODING 44760
SWIDTH 1142 0
DWIDTH 8 0
BBX 7 7 0 0
BITMAP
F6
56
5E
56
56
06
06
ENDCHAR
STARTCHAR U+AED9
ENCODING 44761
SWIDTH 1142 0
DWIDTH 8 0
BBX 7 7 0 0
BITMAP
F6
5E
56
00
7E
02
02
ENDCHAR
STARTCHAR U+AEDC
ENCODING 44764
SWIDTH 1142 0
DWIDTH 8 0
BBX 7 7 0 0
BITMAP
F6
5E
56
00
40
40
7E
ENDCHAR
STARTCHAR U+AEE8
ENCODING 44776
SWIDTH 1142 0
DWIDTH 8 0
BBX 7 7 0 0
BITMAP
F6
5E
56
00
7E
42
7E
ENDCHAR
STARTCHAR U+AEEB
ENCODING 44779
SWIDTH 1142 0
DWIDTH 8 0
BBX 7 7 0 0
BITMAP
F6
5E
56
00
08
14
62
ENDCHAR
STARTCHAR U+AEED
ENCODING 44781
SWIDTH 1142 0
DWIDTH 8 0
BBX 7 7 0 0
BITMAP
F6
5E
56
00
3C
42
3C
ENDCHAR
STARTCHAR U+AEF4
ENCODING 44788
SWIDTH 1142 0
DWIDTH 8 0
BBX 7 7 0 0
BITMAP
F2
56
52
56
52
02
02
ENDCHAR
STARTCHAR U+AEF8
ENCODING 44792
SWIDTH 1142 0
DWIDTH 8 0
BBX 7 7 0 0
BITMAP
F6
52
56
02
40
40
7E
ENDCHAR
STARTCHAR U+AEFC
ENCODING 44796
SWIDTH 1142 0
DWIDTH 8 0
BBX 7 7 0 0
BITMAP
F6
52
56
02
7C
18
3E
ENDCHAR
STARTCHAR U+AF07
ENCODING 44807
SWIDTH 1142 0
DWIDTH 8 0
BBX 7 7 0 0
BITMAP
F6
52
56
02
08
14
62
ENDCHAR
STARTCHAR U+AF08
ENCODING 44808
SWIDTH 1142 0
DWIDTH 8 0
BBX 7 7 0 0
BITMAP
F6
52
56
02
14
2C
52
ENDCHAR
STARTCHAR U+AF0D
ENCODING 44813
SWIDTH 1142 0
DWIDTH 8 0
BBX 7 7 0 0
BITMAP
F6
52
56
02
7E
7C
7E
ENDCHAR
STARTCHAR U+AF10
ENCODING 44816
SWIDTH 1142 0
DWIDTH 8 0
BBX 7 7 0 0
BITMAP
F6
5E
56
5E
56
06
06
ENDCHAR
STARTCHAR U+AF2C
ENCODING 44844
SWIDTH 1142 0
DWIDTH 8 0
BBX 7 6 0 1
BITMAP
6C
24
24
10
10
FE
ENDCHAR
STARTCHAR U+AF2D
ENCODING 44845
SWIDTH 1142 0
DWIDTH 8 0
BBX 7 7 0 0
BITMAP
6C
24
10
FE
7C
04
04
ENDCHAR
STARTCHAR U+AF30
ENCODING 44848
SWIDTH 1142 0
DWIDTH 8 0
BBX 7 7 0 0
BITMAP
6C
24
10
FE
40
40
7C
ENDCHAR
STARTCHAR U+AF32
ENCODING 44850
SWIDTH 1142 0
DWIDTH 8 0
BBX 7 7 0 0
BITMAP
6C
24
10
FE
44
4E
74
ENDCHAR
STARTCHAR U+AF34
ENCODING 44852
SWIDTH 1142 0
DWIDTH 8 0
BBX 7 7 0 0
BITMAP
6C
24
10
FE
78
10
3C
ENDCHAR
STARTCHAR U+AF3C
ENCODING 44860
SWIDTH 1142 0
DWIDTH 8 0
BBX 7 7 0 0
BITMAP
6C
24
10
FE
7C
44
7C
ENDCHAR
STARTCHAR U+AF3D
ENCODING 44861
SWIDTH 1142 0
DWIDTH 8 0
BBX 7 7 0 0
BITMAP
6C
24
10
FE
44
7C
7C
ENDCHAR
STARTCHAR U+AF3F
ENCODING 44863
SWIDTH 1142 0
DWIDTH 8 0
BBX 7 7 0 0
BITMAP
6C
24
10
FE
10
28
44
ENDCHAR
STARTCHAR U+AF41
ENCODING 44865
SWIDTH 1142 0
DWIDTH 8 0
BBX 7 7 0 0
BITMAP
6C
24
10
FE
38
44
38
ENDCHAR
STARTCHAR U+AF42
ENCODING 44866
SWIDTH 1142 0
DWIDTH 8 0
BBX 7 7 0 0
BITMAP
6C
24
10
FE
7C
10
6C
ENDCHAR
STARTCHAR U+AF43
ENCODING 44867
SWIDTH 1142 0
DWIDTH 8 0
BBX 7 7 0 0
BITMAP
6C
24
10
FE
10
38
6C
ENDCHAR
STARTCHAR U+AF48
ENCODING 44872
SWIDTH 1142 0
DWIDTH 8 0
BBX 7 7 0 0
BITMAP
F4
54
54
06
24
FC
04
ENDCHAR
STARTCHAR U+AF49
ENCODING 44873
SWIDTH 1142 0
DWIDTH 8 0
BBX 7 7 0 0
BITMAP
F4
54
26
FC
00
7C
04
ENDCHAR
STARTCHAR U+AF50
ENCODING 44880
SWIDTH 1142 0
DWIDTH 8 0
BBX 7 7 0 0
BITMAP
F4
54
26
FC
78
10
3C
ENDCHAR
STARTCHAR U+AF5C
ENCODING 44892
SWIDTH 1142 0
DWIDTH 8 0
BBX 7 7 0 0
BITMAP
F4
54
26
FC
14
28
54
ENDCHAR
STARTCHAR U+AF5D
ENCODING 44893
SWIDTH 1142 0
DWIDTH 8 0
BBX 7 7 0 0
BITMAP
F4
54
26
FC
38
44
38
ENDCHAR
STARTCHAR U+AF64
ENCODING 44900
SWIDTH 1142 0
DWIDTH 8 0
BBX 7 7 0 0
BITMAP
FA
5A
5A
0E
2A
FA
0A
ENDCHAR
STARTCHAR U+AF65
ENCODING 44901
SWIDTH 1142 0
DWIDTH 8 0
BBX 7 7 0 0
BITMAP
FA
5A
2E
FA
00
7E
02
ENDCHAR
STARTCHAR U+AF79
ENCODING 44921
SWIDTH 1142 0
DWIDTH 8 0
BBX 7 7 0 0
BITMAP
FA
5A
2E
FA
3C
42
3C
ENDCHAR
STARTCHAR U+AF80
ENCODING 44928
SWIDTH 1142 0
DWIDTH 8 0
BBX 6 7 0 0
BITMAP
F4
54
54
04
24
FC
04
ENDCHAR
STARTCHAR U+AF84
ENCODING 44932
SWIDTH 1142 0
DWIDTH 8 0
BBX 6 7 0 0
BITMAP
F4
54
24
FC
00
40
7C
ENDCHAR
STARTCHAR U+AF88
ENCODING 44936
SWIDTH 1142 0
DWIDTH 8 0
BBX 6 7 0 0
BITMAP
F4
54
24
FC
78
10
3C
ENDCHAR
STARTCHAR U+AF90
ENCODING 44944
SWIDTH 1142 0
DWIDTH 8 0
BBX 6 7 0 0
BITMAP
F4
54
24
FC
7C
44
7C
ENDCHAR
STARTCHAR U+AF91
ENCODING 44945
SWIDTH 1142 0
DWIDTH 8 0
BBX 6 7 0 0
BITMAP
F4
54
24
FC
44
7C
7C
ENDCHAR
STARTCHAR U+AF95
ENCODING 44949
SWIDTH 1142 0
DWIDTH 8 0
BBX 6 7 0 0
BITMAP
F4
54
24
FC
38
44
38
ENDCHAR
STARTCHAR U+AF9C
ENCODING 44956
SWIDTH 1142 0
DWIDTH 8 0
BBX 7 6 0 1
BITMAP
6C
24
24
00
28
FE
ENDCHAR
STARTCHAR U+AFB8
ENCODING 44984
SWIDTH 1142 0
DWIDTH 8 0
BBX 7 7 0 0
BITMAP
6C
24
24
00
FE
10
10
ENDCHAR
STARTCHAR U+AFB9
ENCODING 44985
SWIDTH 1142 0
DWIDTH 8 0
BBX 7 7 0 0
BITMAP
6C
24
FE
10
7C
04
04
ENDCHAR
STARTCHAR U+AFBC
ENCODING 44988
SWIDTH 1142 0
DWIDTH 8 0
BBX 7 7 0 0
BITMAP
6C
24
FE
10
40
40
7C
ENDCHAR
STARTCHAR U+AFC0
ENCODING 44992
SWIDTH 1142 0
DWIDTH 8 0
BBX 7 7 0 0
BITMAP
6C
24
FE
10
78
10
3C
ENDCHAR
STARTCHAR U+AFC7
ENCODING 44999
SWIDTH 1142 0
DWIDTH 8 0
BBX 7 7 0 0
BITMAP
6C
24
FE
10
C8
5C
68
ENDCHAR
STARTCHAR U+AFC8
ENCODING 45000
SWIDTH 1142 0
DWIDTH 8 0
BBX 7 7 0 0
BITMAP
6C
24
FE
10
7C
44
7C
ENDCHAR
STARTCHAR U+AFC9
ENCODING 45001
SWIDTH 1142 0
DWIDTH 8 0
BBX 7 7 0 0
BITMAP
6C
24
FE
10
44
7C
7C
ENDCHAR
STARTCHAR U+AFCB
ENCODING 45003
SWIDTH 1142 0
DWIDTH 8 0
BBX 7 7 0 0
BITMAP
6C
24
FE
10
10
28
44
ENDCHAR
STARTCHAR U+AFCD
ENCODING 45005
SWIDTH 1142 0
DWIDTH 8 0
BBX 7 7 0 0
BITMAP
6C
24
FE
10
38
44
38
ENDCHAR
STARTCHAR U+AFCE
ENCODING 45006
SWIDTH 1142 0
DWIDTH 8 0
BBX 7 7 0 0
BITMAP
6C
24
FE
10
7C
10
6C
ENDCHAR
STARTCHAR U+AFD4
ENCODING 45012
SWIDTH 1142 0
DWIDTH 8 0
BBX 6 7 0 0
BITMAP
F4
54
54
04
F4
2C
24
ENDCHAR
STARTCHAR U+AFDC
ENCODING 45020
SWIDTH 1142 0
DWIDTH 8 0
BBX 6 7 0 0
BITMAP
F4
5C
F4
24
78
10
3C
ENDCHAR
STARTCHAR U+AFE8
ENCODING 45032
SWIDTH 1142 0
DWIDTH 8 0
BBX 6 7 0 0
BITMAP
F4
5C
F4
24
14
28
54
ENDCHAR
STARTCHAR U+AFE9
ENCODING 45033
SWIDTH 1142 0
DWIDTH 8 0
BBX 6 7 0 0
BITMAP
F4
5C
F4
24
38
44
38
ENDCHAR
STARTCHAR U+AFF0
ENCODING 45040
SWIDTH 1142 0
DWIDTH 8 0
BBX 7 7 0 0
BITMAP
F6
56
56
06
F6
2E
26
ENDCHAR
STARTCHAR U+AFF1
ENCODING 45041
SWIDTH 1142 0
DWIDTH 8 0
BBX 7 7 0 0
BITMAP
F6
5E
F6
26
7E
02
02
ENDCHAR
STARTCHAR U+AFF4
ENCODING 45044
SWIDTH 1142 0
DWIDTH 8 0
BBX 7 7 0 0
BITMAP
F6
5E
F6
26
40
40
7E
ENDCHAR
STARTCHAR U+AFF8
ENCODING 45048
SWIDTH 1142 0
DWIDTH 8 0
BBX 7 7 0 0
BITMAP
F6
5E
F6
26
7C
18
3E
ENDCHAR
STARTCHAR U+B000
ENCODING 45056
SWIDTH 1142 0
DWIDTH 8 0
BBX 7 7 0 0
BITMAP
F6
5E
F6
26
7E
42
7E
ENDCHAR
STARTCHAR U+B001
ENCODING 45057
SWIDTH 1142 0
DWIDTH 8 0
BBX 7 7 0 0
BITMAP
F6
5E
F6
26
42
7E
7E
ENDCHAR
STARTCHAR U+B004
ENCODING 45060
SWIDTH 1142 0
DWIDTH 8 0
BBX 7 7 0 0
BITMAP
F6
5E
F6
26
14
2C
52
ENDCHAR
STARTCHAR U+B00C
ENCODING 45068
SWIDTH 1142 0
DWIDTH 8 0
BBX 6 7 0 0
BITMAP
F4
54
54
04
FC
24
24
ENDCHAR
STARTCHAR U+B010
ENCODING 45072
SWIDTH 1142 0
DWIDTH 8 0
BBX 6 7 0 0
BITMAP
F4
54
FC
24
40
40
7C
ENDCHAR
STARTCHAR U+B014
ENCODING 45076
SWIDTH 1142 0
DWIDTH 8 0
BBX 6 7 0 0
BITMAP
F4
54
FC
24
78
10
3C
ENDCHAR
STARTCHAR U+B01C
ENCODING 45084
SWIDTH 1142 0
DWIDTH 8 0
BBX 6 7 0 0
BITMAP
F4
54
FC
24
7C
44
7C
ENDCHAR
STARTCHAR U+B01D
ENCODING 45085
SWIDTH 1142 0
DWIDTH 8 0
BBX 6 7 0 0
BITMAP
F4
54
FC
24
44
7C
7C
ENDCHAR
STARTCHAR U+B028
ENCODING 45096
SWIDTH 1142 0
DWIDTH 8 0
BBX 7 7 0 0
BITMAP
6C
24
24
00
FE
28
28
ENDCHAR
STARTCHAR U+B044
ENCODING 45124
SWIDTH 1142 0
DWIDTH 8 0
BBX 7 6 0 1
BITMAP
6C
24
24
24
00
FE
ENDCHAR
STARTCHAR U+B045
ENCODING 45125
SWIDTH 1142 0
DWIDTH 8 0
BBX 7 7 0 0
BITMAP
6C
24
FE
00
7C
04
04
ENDCHAR
STARTCHAR U+B048
ENCODING 45128
SWIDTH 1142 0
DWIDTH 8 0
BBX 7 7 0 0
BITMAP
6C
24
FE
00
40
40
7C
ENDCHAR
STARTCHAR U+B04A
ENCODING 45130
SWIDTH 1142 0
DWIDTH 8 0
BBX 7 7 0 0
BITMAP
6C
24
FE
00
44
4E
74
ENDCHAR
STARTCHAR U+B04C
ENCODING 45132
SWIDTH 1142 0
DWIDTH 8 0
BBX 7 7 0 0
BITMAP
6C
24
FE
00
78
10
3C
ENDCHAR
STARTCHAR U+B04E
ENCODING 45134
SWIDTH 1142 0
DWIDTH 8 0
BBX 7 7 0 0
BITMAP
6C
24
FE
00
DC
54
7C
ENDCHAR
STARTCHAR U+B053
ENCODING 45139
SWIDTH 1142 0
DWIDTH 8 0
BBX 7 7 0 0
BITMAP
6C
24
FE
00
C8
5C
68
ENDCHAR
STARTCHAR U+B054
ENCODING 45140
SWIDTH 1142 0
DWIDTH 8 0
BBX 7 7 0 0
BITMAP
6C
24
FE
00
7C
44
7C
ENDCHAR
STARTCHAR U+B055
ENCODING 45141
SWIDTH 1142 0
DWIDTH 8 0
BBX 7 7 0 0
BITMAP
6C
24
FE
00
44
7C
7C
ENDCHAR
STARTCHAR U+B057
ENCODING 45143
SWIDTH 1142 0
DWIDTH 8 0
BBX 7 7 0 0
BITMAP
6C
24
FE
00
10
28
44
ENDCHAR
STARTCHAR U+B059
ENCODING 45145
SWIDTH 1142 0
DWIDTH 8 0
BBX 7 7 0 0
BITMAP
6C
24
FE
00
38
44
38
ENDCHAR
STARTCHAR U+B05D
ENCODING 45149
SWIDTH 1142 0
DWIDTH 8 0
BBX 7 7 0 0
BITMAP
6C
24
FE
00
7C
78
7C
ENDCHAR
STARTCHAR U+B07C
ENCODING 45180
SWIDTH 1142 0
DWIDTH 8 0
BBX 6 7 0 0
BITMAP
F4
54
54
54
54
04
04
ENDCHAR
STARTCHAR U+B07D
ENCODING 45181
SWIDTH 1142 0
DWIDTH 8 0
BBX 6 7 0 0
BITMAP
F4
54
54
00
7C
04
04
ENDCHAR
STARTCHAR U+B080
ENCODING 45184
SWIDTH 1142 0
DWIDTH 8 0
BBX 6 7 0 0
BITMAP
F4
54
54
04
40
40
7C
ENDCHAR
STARTCHAR U+B084
ENCODING 45188
SWIDTH 1142 0
DWIDTH 8 0
BBX 6 7 0 0
BITMAP
F4
54
54
00
78
10
3C
ENDCHAR
STARTCHAR U+B08C
ENCODING 45196
SWIDTH 1142 0
DWIDTH 8 0
BBX 6 7 0 0
BITMAP
F4
54
54
00
7C
44
7C
ENDCHAR
STARTCHAR U+B08D
ENCODING 45197
SWIDTH 1142 0
DWIDTH 8 0
BBX 6 7 0 0
BITMAP
F4
54
54
00
44
7C
7C
ENDCHAR
STARTCHAR U+B08F
ENCODING 45199
SWIDTH 1142 0
DWIDTH 8 0
BBX 6 7 0 0
BITMAP
F4
54
54
04
10
28
44
ENDCHAR
STARTCHAR U+B091
ENCODING 45201
SWIDTH 1142 0
DWIDTH 8 0
BBX 6 7 0 0
BITMAP
F4
54
54
00
38
44
38
ENDCHAR
STARTCHAR U+B098
ENCODING 45208
SWIDTH 1142 0
DWIDTH 8 0
BBX 7 7 0 0
BITMAP
84
84
86
84
F4
04
04
ENDCHAR
STARTCHAR U+B099
ENCODING 45209
SWIDTH 1142 0
DWIDTH 8 0
BBX 7 7 0 0
BITMAP
84
86
F4
00
7C
04
04
ENDCHAR
STARTCHAR U+B09A
ENCODING 45210
SWIDTH 1142 0
DWIDTH 8 0
BBX 7 7 0 0
BITMAP
84
86
F4
00
7C
14
14
ENDCHAR
STARTCHAR U+B09C
ENCODING 45212
SWIDTH 1142 0
DWIDTH 8 0
BBX 7 7 0 0
BITMAP
84
86
F4
04
40
40
7C
ENDCHAR
STARTCHAR U+B09F
ENCODING 45215
SWIDTH 1142 0
DWIDTH 8 0
BBX 7 7 0 0
BITMAP
84
86
F4
00
7C
40
7C
ENDCHAR
STARTCHAR U+B0A0
ENCODING 45216
SWIDTH 1142 0
DWIDTH 8 0
BBX 7 7 0 0
BITMAP
84
86
F4
00
78
10
3C
ENDCHAR
STARTCHAR U+B0A1
ENCODING 45217
SWIDTH 1142 0
DWIDTH 8 0
BBX 7 7 0 0
BITMAP
84
86
F4
00
DC
44
64
ENDCHAR
STARTCHAR U+B0A2
ENCODING 45218
SWIDTH 1142 0
DWIDTH 8 0
BBX 7 7 0 0
BITMAP
84
86
F4
00
DC
54
7C
ENDCHAR
STARTCHAR U+B0A8
ENCODING 45224
SWIDTH 1142 0
DWIDTH 8 0
BBX 7 7 0 0
BITMAP
84
86
F4
00
7C
44
7C
ENDCHAR
STARTCHAR U+B0A9
ENCODING 45225
SWIDTH 1142 0
DWIDTH 8 0
BBX 7 7 0 0
BITMAP
84
86
F4
00
44
7C
7C
ENDCHAR
STARTCHAR U+B0AB
ENCODING 45227
SWIDTH 1142 0
DWIDTH 8 0
BBX 7 7 0 0
BITMAP
84
86
F4
04
10
28
44
ENDCHAR
STARTCHAR U+B0AC
ENCODING 45228
SWIDTH 1142 0
DWIDTH 8 0
BBX 7 7 0 0
BITMAP
84
86
F4
00
14
28
54
ENDCHAR
STARTCHAR U+B0AD
ENCODING 45229
SWIDTH 1142 0
DWIDTH 8 0
BBX 7 7 0 0
BITMAP
84
86
F4
00
38
44
38
ENDCHAR
STARTCHAR U+B0AE
ENCODING 45230
SWIDTH 1142 0
DWIDTH 8 0
BBX 7 7 0 0
BITMAP
84
86
F4
00
7C
10
6C
ENDCHAR
STARTCHAR U+B0AF
ENCODING 45231
SWIDTH 1142 0
DWIDTH 8 0
BBX 7 7 0 0
BITMAP
84
86
F4
10
7C
10
6C
ENDCHAR
STARTCHAR U+B0B1
ENCODING 45233
SWIDTH 1142 0
DWIDTH 8 0
BBX 7 7 0 0
BITMAP
84
86
F4
00
7C
78
7C
ENDCHAR
STARTCHAR U+B0B3
ENCODING 45235
SWIDTH 1142 0
DWIDTH 8 0
BBX 7 7 0 0
BITMAP
84
86
F4
10
7C
28
10
ENDCHAR
STARTCHAR U+B0B4
ENCODING 45236
SWIDTH 1142 0
DWIDTH 8 0
BBX 7 7 0 0
BITMAP
8A
8A
8E
8A
EA
0A
0A
ENDCHAR
STARTCHAR U+B0B5
ENCODING 45237
SWIDTH 1142 0
DWIDTH 8 0
BBX 7 7 0 0
BITMAP
8A
8E
EA
00
7E
02
02
ENDCHAR
STARTCHAR U+B0B8
ENCODING 45240
SWIDTH 1142 0
DWIDTH 8 0
BBX 7 7 0 0
BITMAP
8A
8E
EA
0A
40
40
7E
ENDCHAR
STARTCHAR U+B0BC
ENCODING 45244
SWIDTH 1142 0
DWIDTH 8 0
BBX 7 7 0 0
BITMAP
8A
8E
EA
00
7C
18
3E
ENDCHAR
STARTCHAR U+B0C4
ENCODING 45252
SWIDTH 1142 0
DWIDTH 8 0
BBX 7 7 0 0
BITMAP
8A
8E
EA
00
7E
42
7E
ENDCHAR
STARTCHAR U+B0C5
ENCODING 45253
SWIDTH 1142 0
DWIDTH 8 0
BBX 7 7 0 0
BITMAP
8A
8E
EA
00
42
7E
7E
ENDCHAR
STARTCHAR U+B0C7
ENCODING 45255
SWIDTH 1142 0
DWIDTH 8 0
BBX 7 7 0 0
BITMAP
8A
8E
EA
00
08
14
62
ENDCHAR
STARTCHAR U+B0C8
ENCODING 45256
SWIDTH 1142 0
DWIDTH 8 0
BBX 7 7 0 0
BITMAP
8A
8E
EA
00
14
2C
52
ENDCHAR
STARTCHAR U+B0C9
ENCODING 45257
SWIDTH 1142 0
DWIDTH 8 0
BBX 7 7 0 0
BITMAP
8A
8E
EA
00
3C
42
3C
ENDCHAR
STARTCHAR U+B0D0
ENCODING 45264
SWIDTH 1142 0
DWIDTH 8 0
BBX 7 7 0 0
BITMAP
84
86
84
86
F4
04
04
ENDCHAR
STARTCHAR U+B0D1
ENCODING 45265
SWIDTH 1142 0
DWIDTH 8 0
BBX 7 7 0 0
BITMAP
86
84
F6
04
7C
04
04
ENDCHAR
STARTCHAR U+B0D4
ENCODING 45268
SWIDTH 1142 0
DWIDTH 8 0
BBX 7 7 0 0
BITMAP
86
84
F6
04
40
40
7C
ENDCHAR
STARTCHAR U+B0D8
ENCODING 45272
SWIDTH 1142 0
DWIDTH 8 0
BBX 7 7 0 0
BITMAP
86
84
F6
04
78
10
3C
ENDCHAR
STARTCHAR U+B0E0
ENCODING 45280
SWIDTH 1142 0
DWIDTH 8 0
BBX 7 7 0 0
BITMAP
86
84
F6
04
7C
44
7C
ENDCHAR
STARTCHAR U+B0E5
ENCODING 45285
SWIDTH 1142 0
DWIDTH 8 0
BBX 7 7 0 0
BITMAP
86
84
F6
04
38
44
38
ENDCHAR
STARTCHAR U+B108
ENCODING 45320
SWIDTH 1142 0
DWIDTH 8 0
BBX 6 7 0 0
BITMAP
84
84
9C
84
E4
04
04
ENDCHAR
STARTCHAR U+B109
ENCODING 45321
SWIDTH 1142 0
DWIDTH 8 0
BBX 6 7 0 0
BITMAP
84
8C
E4
00
7C
04
04
ENDCHAR
STARTCHAR U+B10B
ENCODING 45323
SWIDTH 1142 0
DWIDTH 8 0
BBX 6 7 0 0
BITMAP
84
8C
E4
00
E8
28
34
ENDCHAR
STARTCHAR U+B10C
ENCODING 45324
SWIDTH 1142 0
DWIDTH 8 0
BBX 6 7 0 0
BITMAP
84
8C
E4
04
40
40
7C
ENDCHAR
STARTCHAR U+B110
ENCODING 45328
SWIDTH 1142 0
DWIDTH 8 0
BBX 6 7 0 0
BITMAP
84
8C
E4
00
78
10
3C
ENDCHAR
STARTCHAR U+B112
ENCODING 45330
SWIDTH 1142 0
DWIDTH 8 0
BBX 6 7 0 0
BITMAP
84
8C
E4
00
DC
54
7C
ENDCHAR
STARTCHAR U+B113
ENCODING 45331
SWIDTH 1142 0
DWIDTH 8 0
BBX 6 7 0 0
BITMAP
84
8C
E4
00
D4
5C
7C
ENDCHAR
STARTCHAR U+B118
ENCODING 45336
SWIDTH 1142 0
DWIDTH 8 0
BBX 6 7 0 0
BITMAP
84
8C
E4
00
7C
44
7C
ENDCHAR
STARTCHAR U+B119
ENCODING 45337
SWIDTH 1142 0
DWIDTH 8 0
BBX 6 7 0 0
BITMAP
84
8C
E4
00
44
7C
7C
ENDCHAR
STARTCHAR U+B11B
ENCODING 45339
SWIDTH 1142 0
DWIDTH 8 0
BBX 6 7 0 0
BITMAP
84
8C
E4
04
10
28
44
ENDCHAR
STARTCHAR U+B11C
ENCODING 45340
SWIDTH 1142 0
DWIDTH 8 0
BBX 6 7 0 0
BITMAP
84
8C
E4
00
14
28
54
ENDCHAR
STARTCHAR U+B11D
ENCODING 45341
SWIDTH 1142 0
DWIDTH 8 0
BBX 6 7 0 0
BITMAP
84
8C
E4
00
38
44
38
ENDCHAR
STARTCHAR U+B123
ENCODING 45347
SWIDTH 1142 0
DWIDTH 8 0
BBX 6 7 0 0
BITMAP
84
8C
E4
10
7C
28
10
ENDCHAR
STARTCHAR U+B124
ENCODING 45348
SWIDTH 1142 0
DWIDTH 8 0
BBX 7 7 0 0
BITMAP
8A
8A
9A
8A
EA
0A
0A
ENDCHAR
STARTCHAR U+B125
ENCODING 45349
SWIDTH 1142 0
DWIDTH 8 0
BBX 7 7 0 0
BITMAP
8A
9A
EA
00
7E
02
02
ENDCHAR
STARTCHAR U+B128
ENCODING 45352
SWIDTH 1142 0
DWIDTH 8 0
BBX 7 7 0 0
BITMAP
8A
9A
EA
0A
40
40
7E
ENDCHAR
STARTCHAR U+B12C
ENCODING 45356
SWIDTH 1142 0
DWIDTH 8 0
BBX 7 7 0 0
BITMAP
8A
9A
EA
00
7C
18
3E
ENDCHAR
STARTCHAR U+B134
ENCODING 45364
SWIDTH 1142 0
DWIDTH 8 0
BBX 7 7 0 0
BITMAP
8A
9A
EA
00
7E
42
7E
ENDCHAR
STARTCHAR U+B135
ENCODING 45365
SWIDTH 1142 0
DWIDTH 8 0
BBX 7 7 0 0
BITMAP
8A
9A
EA
00
42
7E
7E
ENDCHAR
STARTCHAR U+B137
ENCODING 45367
SWIDTH 1142 0
DWIDTH 8 0
BBX 7 7 0 0
BITMAP
8A
9A
EA
00
08
14
62
ENDCHAR
STARTCHAR U+B138
ENCODING 45368
SWIDTH 1142 0
DWIDTH 8 0
BBX 7 7 0 0
BITMAP
8A
9A
EA
00
14
2C
52
ENDCHAR
STARTCHAR U+B139
ENCODING 45369
SWIDTH 1142 0
DWIDTH 8 0
BBX 7 7 0 0
BITMAP
8A
9A
EA
00
3C
42
3C
ENDCHAR
STARTCHAR U+B140
ENCODING 45376
SWIDTH 1142 0
DWIDTH 8 0
BBX 6 7 0 0
BITMAP
84
9C
84
9C
E4
04
04
ENDCHAR
STARTCHAR U+B141
ENCODING 45377
SWIDTH 1142 0
DWIDTH 8 0
BBX 6 7 0 0
BITMAP
8C
84
EC
04
7C
04
04
ENDCHAR
STARTCHAR U+B144
ENCODING 45380
SWIDTH 1142 0
DWIDTH 8 0
BBX 6 7 0 0
BITMAP
8C
84
EC
04
40
40
7C
ENDCHAR
STARTCHAR U+B148
ENCODING 45384
SWIDTH 1142 0
DWIDTH 8 0
BBX 6 7 0 0
BITMAP
8C
84
EC
04
78
10
3C
ENDCHAR
STARTCHAR U+B150
ENCODING 45392
SWIDTH 1142 0
DWIDTH 8 0
BBX 6 7 0 0
BITMAP
8C
84
EC
04
7C
44
7C
ENDCHAR
STARTCHAR U+B151
ENCODING 45393
SWIDTH 1142 0
DWIDTH 8 0
BBX 6 7 0 0
BITMAP
8C
84
EC
04
44
7C
7C
ENDCHAR
STARTCHAR U+B154
ENCODING 45396
SWIDTH 1142 0
DWIDTH 8 0
BBX 6 7 0 0
BITMAP
8C
84
EC
04
14
28
54
ENDCHAR
STARTCHAR U+B155
ENCODING 45397
SWIDTH 1142 0
DWIDTH 8 0
BBX 6 7 0 0
BITMAP
8C
84
EC
04
38
44
38
ENDCHAR
STARTCHAR U+B158
ENCODING 45400
SWIDTH 1142 0
DWIDTH 8 0
BBX 6 7 0 0
BITMAP
8C
84
EC
04
7C
3C
04
ENDCHAR
STARTCHAR U+B15C
ENCODING 45404
SWIDTH 1142 0
DWIDTH 8 0
BBX 7 7 0 0
BITMAP
8A
9A
8A
9A
EA
0A
0A
ENDCHAR
STARTCHAR U+B160
ENCODING 45408
SWIDTH 1142 0
DWIDTH 8 0
BBX 7 7 0 0
BITMAP
9A
8A
DA
0A
40
40
7E
ENDCHAR
STARTCHAR U+B178
ENCODING 45432
SWIDTH 1142 0
DWIDTH 8 0
BBX 7 6 0 1
BITMAP
40
40
7C
10
10
FE
ENDCHAR
STARTCHAR U+B179
ENCODING 45433
SWIDTH 1142 0
DWIDTH 8 0
BBX 7 7 0 0
BITMAP
40
7C
10
FE
7C
04
04
ENDCHAR
STARTCHAR U+B17C
ENCODING 45436
SWIDTH 1142 0
DWIDTH 8 0
BBX 7 7 0 0
BITMAP
40
7C
10
FE
40
40
7C
ENDCHAR
STARTCHAR U+B180
ENCODING 45440
SWIDTH 1142 0
DWIDTH 8 0
BBX 7 7 0 0
BITMAP
40
7C
10
FE
78
10
3C
ENDCHAR
STARTCHAR U+B182
ENCODING 45442
SWIDTH 1142 0
DWIDTH 8 0
BBX 7 7 0 0
BITMAP
40
7C
10
FE
DC
54
7C
ENDCHAR
STARTCHAR U+B188
ENCODING 45448
SWIDTH 1142 0
DWIDTH 8 0
BBX 7 7 0 0
BITMAP
40
7C
10
FE
7C
44
7C
ENDCHAR
STARTCHAR U+B189
ENCODING 45449
SWIDTH 1142 0
DWIDTH 8 0
BBX 7 7 0 0
BITMAP
40
7C
10
FE
44
7C
7C
ENDCHAR
STARTCHAR U+B18B
ENCODING 45451
SWIDTH 1142 0
DWIDTH 8 0
BBX 7 7 0 0
BITMAP
40
7C
10
FE
10
28
44
ENDCHAR
STARTCHAR U+B18D
ENCODING 45453
SWIDTH 1142 0
DWIDTH 8 0
BBX 7 7 0 0
BITMAP
40
7C
10
FE
38
44
38
ENDCHAR
STARTCHAR U+B192
ENCODING 45458
SWIDTH 1142 0
DWIDTH 8 0
BBX 7 7 0 0
BITMAP
40
7C
10
FE
7C
28
7C
ENDCHAR
STARTCHAR U+B193
ENCODING 45459
SWIDTH 1142 0
DWIDTH 8 0
BBX 7 7 0 0
BITMAP
40
7C
10
FE
10
7C
38
ENDCHAR
STARTCHAR U+B194
ENCODING 45460
SWIDTH 1142 0
DWIDTH 8 0
BBX 7 7 0 0
BITMAP
84
84
E4
46
44
F4
04
ENDCHAR
STARTCHAR U+B198
ENCODING 45464
SWIDTH 1142 0
DWIDTH 8 0
BBX 7 7 0 0
BITMAP
84
F4
26
FC
40
40
7C
ENDCHAR
STARTCHAR U+B19C
ENCODING 45468
SWIDTH 1142 0
DWIDTH 8 0
BBX 7 7 0 0
BITMAP
84
F4
26
FC
78
10
3C
ENDCHAR
STARTCHAR U+B1A8
ENCODING 45480
SWIDTH 1142 0
DWIDTH 8 0
BBX 7 7 0 0
BITMAP
84
F4
26
FC
14
28
54
ENDCHAR
STARTCHAR U+B1CC
ENCODING 45516
SWIDTH 1142 0
DWIDTH 8 0
BBX 6 7 0 0
BITMAP
84
84
F4
44
44
F4
04
ENDCHAR
STARTCHAR U+B1D0
ENCODING 45520
SWIDTH 1142 0
DWIDTH 8 0
BBX 6 7 0 0
BITMAP
84
F4
24
FC
40
40
7C
ENDCHAR
STARTCHAR U+B1D4
ENCODING 45524
SWIDTH 1142 0
DWIDTH 8 0
BBX 6 7 0 0
BITMAP
84
F4
24
FC
78
10
3C
ENDCHAR
STARTCHAR U+B1DC
ENCODING 45532
SWIDTH 1142 0
DWIDTH 8 0
BBX 6 7 0 0
BITMAP
84
F4
24
FC
7C
44
7C
ENDCHAR
STARTCHAR U+B1DD
ENCODING 45533
SWIDTH 1142 0
DWIDTH 8 0
BBX 6 7 0 0
BITMAP
84
F4
24
FC
44
7C
7C
ENDCHAR
STARTCHAR U+B1DF
ENCODING 45535
SWIDTH 1142 0
DWIDTH 8 0
BBX 6 7 0 0
BITMAP
84
F4
24
FC
10
28
44
ENDCHAR
STARTCHAR U+B1E8
ENCODING 45544
SWIDTH 1142 0
DWIDTH 8 0
BBX 7 6 0 1
BITMAP
40
40
7C
28
28
FE
ENDCHAR
STARTCHAR U+B1E9
ENCODING 45545
SWIDTH 1142 0
DWIDTH 8 0
BBX 7 7 0 0
BITMAP
40
7C
28
FE
00
7C
04
ENDCHAR
STARTCHAR U+B1EC
ENCODING 45548
SWIDTH 1142 0
DWIDTH 8 0
BBX 7 7 0 0
BITMAP
40
7C
28
FE
00
40
7C
ENDCHAR
STARTCHAR U+B1F0
ENCODING 45552
SWIDTH 1142 0
DWIDTH 8 0
BBX 7 7 0 0
BITMAP
40
7C
28
FE
78
10
3C
ENDCHAR
STARTCHAR U+B1F9
ENCODING 45561
SWIDTH 1142 0
DWIDTH 8 0
BBX 7 7 0 0
BITMAP
40
7C
28
FE
44
7C
7C
ENDCHAR
STARTCHAR U+B1FB
ENCODING 45563
SWIDTH 1142 0
DWIDTH 8 0
BBX 7 7 0 0
BITMAP
40
7C
28
FE
10
28
44
ENDCHAR
STARTCHAR U+B1FD
ENCODING 45565
SWIDTH 1142 0
DWIDTH 8 0
BBX 7 7 0 0
BITMAP
40
7C
28
FE
38
44
38
ENDCHAR
STARTCHAR U+B204
ENCODING 45572
SWIDTH 1142 0
DWIDTH 8 0
BBX 7 7 0 0
BITMAP
40
40
7C
00
FE
10
10
ENDCHAR
STARTCHAR U+B205
ENCODING 45573
SWIDTH 1142 0
DWIDTH 8 0
BBX 7 7 0 0
BITMAP
40
7C
FE
10
7C
04
04
ENDCHAR
STARTCHAR U+B208
ENCODING 45576
SWIDTH 1142 0
DWIDTH 8 0
BBX 7 7 0 0
BITMAP
40
7C
FE
10
40
40
7C
ENDCHAR
STARTCHAR U+B20B
ENCODING 45579
SWIDTH 1142 0
DWIDTH 8 0
BBX 7 7 0 0
BITMAP
40
7C
FE
10
7C
40
7C
ENDCHAR
STARTCHAR U+B20C
ENCODING 45580
SWIDTH 1142 0
DWIDTH 8 0
BBX 7 7 0 0
BITMAP
40
7C
FE
10
78
10
3C
ENDCHAR
STARTCHAR U+B214
ENCODING 45588
SWIDTH 1142 0
DWIDTH 8 0
BBX 7 7 0 0
BITMAP
40
7C
FE
10
7C
44
7C
ENDCHAR
STARTCHAR U+B215
ENCODING 45589
SWIDTH 1142 0
DWIDTH 8 0
BBX 7 7 0 0
BITMAP
40
7C
FE
10
44
7C
7C
ENDCHAR
STARTCHAR U+B217
ENCODING 45591
SWIDTH 1142 0
DWIDTH 8 0
BBX 7 7 0 0
BITMAP
40
7C
FE
10
10
28
44
ENDCHAR
STARTCHAR U+B219
ENCODING 45593
SWIDTH 1142 0
DWIDTH 8 0
BBX 7 7 0 0
BITMAP
40
7C
FE
10
38
44
38
ENDCHAR
STARTCHAR U+B220
ENCODING 45600
SWIDTH 1142 0
DWIDTH 8 0
BBX 6 7 0 0
BITMAP
84
84
F4
04
F4
4C
44
ENDCHAR
STARTCHAR U+B234
ENCODING 45620
SWIDTH 1142 0
DWIDTH 8 0
BBX 6 7 0 0
BITMAP
84
EC
F4
44
14
28
54
ENDCHAR
STARTCHAR U+B23C
ENCODING 45628
SWIDTH 1142 0
DWIDTH 8 0
BBX 7 7 0 0
BITMAP
8A
8A
EA
0A
EA
5A
4A
ENDCHAR
STARTCHAR U+B258
ENCODING 45656
SWIDTH 1142 0
DWIDTH 8 0
BBX 6 7 0 0
BITMAP
84
84
F4
04
F4
44
44
ENDCHAR
STARTCHAR U+B25C
ENCODING 45660
SWIDTH 1142 0
DWIDTH 8 0
BBX 6 7 0 0
BITMAP
84
E4
F4
24
40
40
7C
ENDCHAR
STARTCHAR U+B260
ENCODING 45664
SWIDTH 1142 0
DWIDTH 8 0
BBX 6 7 0 0
BITMAP
84
E4
F4
24
78
10
3C
ENDCHAR
STARTCHAR U+B268
ENCODING 45672
SWIDTH 1142 0
DWIDTH 8 0
BBX 6 7 0 0
BITMAP
84
E4
F4
24
7C
44
7C
ENDCHAR
STARTCHAR U+B269
ENCODING 45673
SWIDTH 1142 0
DWIDTH 8 0
BBX 6 7 0 0
BITMAP
84
E4
F4
24
44
7C
7C
ENDCHAR
STARTCHAR U+B274
ENCODING 45684
SWIDTH 1142 0
DWIDTH 8 0
BBX 7 7 0 0
BITMAP
40
40
7C
00
FE
28
28
ENDCHAR
STARTCHAR U+B275
ENCODING 45685
SWIDTH 1142 0
DWIDTH 8 0
BBX 7 7 0 0
BITMAP
40
7C
FE
28
7C
04
04
ENDCHAR
STARTCHAR U+B27C
ENCODING 45692
SWIDTH 1142 0
DWIDTH 8 0
BBX 7 7 0 0
BITMAP
40
7C
FE
28
78
10
3C
ENDCHAR
STARTCHAR U+B284
ENCODING 45700
SWIDTH 1142 0
DWIDTH 8 0
BBX 7 7 0 0
BITMAP
40
7C
FE
28
7C
44
7C
ENDCHAR
STARTCHAR U+B285
ENCODING 45701
SWIDTH 1142 0
DWIDTH 8 0
BBX 7 7 0 0
BITMAP
40
7C
FE
28
44
7C
7C
ENDCHAR
STARTCHAR U+B289
ENCODING 45705
SWIDTH 1142 0
DWIDTH 8 0
BBX 7 7 0 0
BITMAP
40
7C
FE
28
38
44
38
ENDCHAR
STARTCHAR U+B290
ENCODING 45712
SWIDTH 1142 0
DWIDTH 8 0
BBX 7 6 0 1
BITMAP
40
40
7C
00
00
FE
ENDCHAR
STARTCHAR U+B291
ENCODING 45713
SWIDTH 1142 0
DWIDTH 8 0
BBX 7 7 0 0
BITMAP
40
7C
00
FE
7C
04
04
ENDCHAR
STARTCHAR U+B294
ENCODING 45716
SWIDTH 1142 0
DWIDTH 8 0
BBX 7 7 0 0
BITMAP
40
7C
00
FE
40
40
7C
ENDCHAR
STARTCHAR U+B298
ENCODING 45720
SWIDTH 1142 0
DWIDTH 8 0
BBX 7 7 0 0
BITMAP
40
7C
00
FE
78
10
3C
ENDCHAR
STARTCHAR U+B299
ENCODING 45721
SWIDTH 1142 0
DWIDTH 8 0
BBX 7 7 0 0
BITMAP
40
7C
00
FE
DC
44
64
ENDCHAR
STARTCHAR U+B29A
ENCODING 45722
SWIDTH 1142 0
DWIDTH 8 0
BBX 7 7 0 0
BITMAP
40
7C
00
FE
DC
54
7C
ENDCHAR
STARTCHAR U+B2A0
ENCODING 45728
SWIDTH 1142 0
DWIDTH 8 0
BBX 7 7 0 0
BITMAP
40
7C
00
FE
7C
44
7C
ENDCHAR
STARTCHAR U+B2A1
ENCODING 45729
SWIDTH 1142 0
DWIDTH 8 0
BBX 7 7 0 0
BITMAP
40
7C
00
FE
44
7C
7C
ENDCHAR
STARTCHAR U+B2A3
ENCODING 45731
SWIDTH 1142 0
DWIDTH 8 0
BBX 7 7 0 0
BITMAP
40
7C
00
FE
10
28
44
ENDCHAR
STARTCHAR U+B2A5
ENCODING 45733
SWIDTH 1142 0
DWIDTH 8 0
BBX 7 7 0 0
BITMAP
40
7C
00
FE
38
44
38
ENDCHAR
STARTCHAR U+B2A6
ENCODING 45734
SWIDTH 1142 0
DWIDTH 8 0
BBX 7 7 0 0
BITMAP
40
7C
00
FE
7C
10
6C
ENDCHAR
STARTCHAR U+B2AA
ENCODING 45738
SWIDTH 1142 0
DWIDTH 8 0
BBX 7 7 0 0
BITMAP
40
7C
00
FE
7C
28
7C
ENDCHAR
STARTCHAR U+B2AC
ENCODING 45740
SWIDTH 1142 0
DWIDTH 8 0
BBX 6 7 0 0
BITMAP
84
84
84
F4
04
F4
04
ENDCHAR
STARTCHAR U+B2B0
ENCODING 45744
SWIDTH 1142 0
DWIDTH 8 0
BBX 6 7 0 0
BITMAP
84
E4
04
F4
00
40
7C
ENDCHAR
STARTCHAR U+B2B4
ENCODING 45748
SWIDTH 1142 0
DWIDTH 8 0
BBX 6 7 0 0
BITMAP
84
E4
04
F4
78
10
3C
ENDCHAR
STARTCHAR U+B2C8
ENCODING 45768
SWIDTH 1142 0
DWIDTH 8 0
BBX 6 7 0 0
BITMAP
84
84
84
84
F4
04
04
ENDCHAR
STARTCHAR U+B2C9
ENCODING 45769
SWIDTH 1142 0
DWIDTH 8 0
BBX 6 7 0 0
BITMAP
84
84
F4
00
7C
04
04
ENDCHAR
STARTCHAR U+B2CC
ENCODING 45772
SWIDTH 1142 0
DWIDTH 8 0
BBX 6 7 0 0
BITMAP
84
84
F4
04
40
40
7C
ENDCHAR
STARTCHAR U+B2D0
ENCODING 45776
SWIDTH 1142 0
DWIDTH 8 0
BBX 6 7 0 0
BITMAP
84
84
F4
00
78
10
3C
ENDCHAR
STARTCHAR U+B2D2
ENCODING 45778
SWIDTH 1142 0
DWIDTH 8 0
BBX 6 7 0 0
BITMAP
84
84
F4
00
DC
54
7C
ENDCHAR
STARTCHAR U+B2D8
ENCODING 45784
SWIDTH 1142 0
DWIDTH 8 0
BBX 6 7 0 0
BITMAP
84
84
F4
00
7C
44
7C
ENDCHAR
STARTCHAR U+B2D9
ENCODING 45785
SWIDTH 1142 0
DWIDTH 8 0
BBX 6 7 0 0
BITMAP
84
84
F4
00
44
7C
7C
ENDCHAR
STARTCHAR U+B2DB
ENCODING 45787
SWIDTH 1142 0
DWIDTH 8 0
BBX 6 7 0 0
BITMAP
84
84
F4
04
10
28
44
ENDCHAR
STARTCHAR U+B2DD
ENCODING 45789
SWIDTH 1142 0
DWIDTH 8 0
BBX 6 7 0 0
BITMAP
84
84
F4
00
38
44
38
ENDCHAR
STARTCHAR U+B2E2
ENCODING 45794
SWIDTH 1142 0
DWIDTH 8 0
BBX 6 7 0 0
BITMAP
84
84
E4
00
7C
28
7C
ENDCHAR
STARTCHAR U+B2E4
ENCODING 45796
SWIDTH 1142 0
DWIDTH 8 0
BBX 7 7 0 0
BITMAP
F4
84
86
84
F4
04
04
ENDCHAR
STARTCHAR U+B2E5
ENCODING 45797
SWIDTH 1142 0
DWIDTH 8 0
BBX 7 7 0 0
BITMAP
F4
86
F4
00
7C
04
04
ENDCHAR
STARTCHAR U+B2E6
ENCODING 45798
SWIDTH 1142 0
DWIDTH 8 0
BBX 7 7 0 0
BITMAP
F4
86
F4
00
7C
14
14
ENDCHAR
STARTCHAR U+B2E8
ENCODING 45800
SWIDTH 1142 0
DWIDTH 8 0
BBX 7 7 0 0
BITMAP
F4
86
F4
04
40
40
7C
ENDCHAR
STARTCHAR U+B2EB
ENCODING 45803
SWIDTH 1142 0
DWIDTH 8 0
BBX 7 7 0 0
BITMAP
F4
86
F4
00
7C
40
7C
ENDCHAR
STARTCHAR U+B2EC
ENCODING 45804
SWIDTH 1142 0
DWIDTH 8 0
BBX 7 7 0 0
BITMAP
F4
86
F4
00
78
10
3C
ENDCHAR
STARTCHAR U+B2ED
ENCODING 45805
SWIDTH 1142 0
DWIDTH 8 0
BBX 7 7 0 0
BITMAP
F4
86
F4
00
DC
44
64
ENDCHAR
STARTCHAR U+B2EE
ENCODING 45806
SWIDTH 1142 0
DWIDTH 8 0
BBX 7 7 0 0
BITMAP
F4
86
F4
00
DC
54
7C
ENDCHAR
STARTCHAR U+B2EF
ENCODING 45807
SWIDTH 1142 0
DWIDTH 8 0
BBX 7 7 0 0
BITMAP
F4
86
F4
00
D4
5C
7C
ENDCHAR
STARTCHAR U+B2F3
ENCODING 45811
SWIDTH 1142 0
DWIDTH 8 0
BBX 7 7 0 0
BITMAP
F4
86
F4
00
C8
5C
68
ENDCHAR
STARTCHAR U+B2F4
ENCODING 45812
SWIDTH 1142 0
DWIDTH 8 0
BBX 7 7 0 0
BITMAP
F4
86
F4
00
7C
44
7C
ENDCHAR
STARTCHAR U+B2F5
ENCODING 45813
SWIDTH 1142 0
DWIDTH 8 0
BBX 7 7 0 0
BITMAP
F4
86
F4
00
44
7C
7C
ENDCHAR
STARTCHAR U+B2F7
ENCODING 45815
SWIDTH 1142 0
DWIDTH 8 0
BBX 7 7 0 0
BITMAP
F4
86
F4
04
10
28
44
ENDCHAR
STARTCHAR U+B2F8
ENCODING 45816
SWIDTH 1142 0
DWIDTH 8 0
BBX 7 7 0 0
BITMAP
F4
86
F4
00
14
28
54
ENDCHAR
STARTCHAR U+B2F9
ENCODING 45817
SWIDTH 1142 0
DWIDTH 8 0
BBX 7 7 0 0
BITMAP
F4
86
F4
00
38
44
38
ENDCHAR
STARTCHAR U+B2FA
ENCODING 45818
SWIDTH 1142 0
DWIDTH 8 0
BBX 7 7 0 0
BITMAP
F4
86
F4
00
7C
10
6C
ENDCHAR
STARTCHAR U+B2FB
ENCODING 45819
SWIDTH 1142 0
DWIDTH 8 0
BBX 7 7 0 0
BITMAP
F4
86
F4
10
7C
10
6C
ENDCHAR
STARTCHAR U+B2FF
ENCODING 45823
SWIDTH 1142 0
DWIDTH 8 0
BBX 7 7 0 0
BITMAP
F4
86
F4
10
7C
28
10
ENDCHAR
STARTCHAR U+B300
ENCODING 45824
SWIDTH 1142 0
DWIDTH 8 0
BBX 7 7 0 0
BITMAP
EA
8A
8E
8A
EA
0A
0A
ENDCHAR
STARTCHAR U+B301
ENCODING 45825
SWIDTH 1142 0
DWIDTH 8 0
BBX 7 7 0 0
BITMAP
EA
8E
EA
00
7E
02
02
ENDCHAR
STARTCHAR U+B304
ENCODING 45828
SWIDTH 1142 0
DWIDTH 8 0
BBX 7 7 0 0
BITMAP
EA
8E
EA
00
40
40
7E
ENDCHAR
STARTCHAR U+B308
ENCODING 45832
SWIDTH 1142 0
DWIDTH 8 0
BBX 7 7 0 0
BITMAP
EA
8E
EA
00
7C
18
3E
ENDCHAR
STARTCHAR U+B310
ENCODING 45840
SWIDTH 1142 0
DWIDTH 8 0
BBX 7 7 0 0
BITMAP
EA
8E
EA
00
7E
42
7E
ENDCHAR
STARTCHAR U+B311
ENCODING 45841
SWIDTH 1142 0
DWIDTH 8 0
BBX 7 7 0 0
BITMAP
EA
8E
EA
00
42
7E
7E
ENDCHAR
STARTCHAR U+B313
ENCODING 45843
SWIDTH 1142 0
DWIDTH 8 0
BBX 7 7 0 0
BITMAP
EA
8E
EA
00
08
14
62
ENDCHAR
STARTCHAR U+B314
ENCODING 45844
SWIDTH 1142 0
DWIDTH 8 0
BBX 7 7 0 0
BITMAP
EA
8E
EA
00
14
2C
52
ENDCHAR
STARTCHAR U+B315
ENCODING 45845
SWIDTH 1142 0
DWIDTH 8 0
BBX 7 7 0 0
BITMAP
EA
8E
EA
00
3C
42
3C
ENDCHAR
STARTCHAR U+B31C
ENCODING 45852
SWIDTH 1142 0
DWIDTH 8 0
BBX 7 7 0 0
BITMAP
F4
86
84
86
F4
04
04
ENDCHAR
STARTCHAR U+B354
ENCODING 45908
SWIDTH 1142 0
DWIDTH 8 0
BBX 6 7 0 0
BITMAP
E4
84
9C
84
E4
04
04
ENDCHAR
STARTCHAR U+B355
ENCODING 45909
SWIDTH 1142 0
DWIDTH 8 0
BBX 6 7 0 0
BITMAP
E4
8C
E4
00
7C
04
04
ENDCHAR
STARTCHAR U+B356
ENCODING 45910
SWIDTH 1142 0
DWIDTH 8 0
BBX 6 7 0 0
BITMAP
E4
8C
E4
00
7C
14
14
ENDCHAR
STARTCHAR U+B358
ENCODING 45912
SWIDTH 1142 0
DWIDTH 8 0
BBX 6 7 0 0
BITMAP
E4
8C
E4
00
40
40
7C
ENDCHAR
STARTCHAR U+B35B
ENCODING 45915
SWIDTH 1142 0
DWIDTH 8 0
BBX 6 7 0 0
BITMAP
E4
8C
E4
00
7C
40
7C
ENDCHAR
STARTCHAR U+B35C
ENCODING 45916
SWIDTH 1142 0
DWIDTH 8 0
BBX 6 7 0 0
BITMAP
E4
8C
E4
00
78
10
3C
ENDCHAR
STARTCHAR U+B35E
ENCODING 45918
SWIDTH 1142 0
DWIDTH 8 0
BBX 6 7 0 0
BITMAP
E4
8C
E4
00
DC
54
7C
ENDCHAR
STARTCHAR U+B35F
ENCODING 45919
SWIDTH 1142 0
DWIDTH 8 0
BBX 6 7 0 0
BITMAP
E4
8C
E4
00
D4
5C
7C
ENDCHAR
STARTCHAR U+B364
ENCODING 45924
SWIDTH 1142 0
DWIDTH 8 0
BBX 6 7 0 0
BITMAP
E4
8C
E4
00
7C
44
7C
ENDCHAR
STARTCHAR U+B365
ENCODING 45925
SWIDTH 1142 0
DWIDTH 8 0
BBX 6 7 0 0
BITMAP
E4
8C
E4
00
44
7C
7C
ENDCHAR
STARTCHAR U+B367
ENCODING 45927
SWIDTH 1142 0
DWIDTH 8 0
BBX 6 7 0 0
BITMAP
E4
8C
E4
00
10
28
44
ENDCHAR
STARTCHAR U+B369
ENCODING 45929
SWIDTH 1142 0
DWIDTH 8 0
BBX 6 7 0 0
BITMAP
E4
8C
E4
00
38
44
38
ENDCHAR
STARTCHAR U+B36B
ENCODING 45931
SWIDTH 1142 0
DWIDTH 8 0
BBX 6 7 0 0
BITMAP
E4
8C
E4
10
7C
10
6C
ENDCHAR
STARTCHAR U+B36E
ENCODING 45934
SWIDTH 1142 0
DWIDTH 8 0
BBX 6 7 0 0
BITMAP
E4
8C
E4
00
7C
28
7C
ENDCHAR
STARTCHAR U+B370
ENCODING 45936
SWIDTH 1142 0
DWIDTH 8 0
BBX 7 7 0 0
BITMAP
EA
8A
9A
8A
EA
0A
0A
ENDCHAR
STARTCHAR U+B371
ENCODING 45937
SWIDTH 1142 0
DWIDTH 8 0
BBX 7 7 0 0
BITMAP
EA
9A
EA
00
7E
02
02
ENDCHAR
STARTCHAR U+B374
ENCODING 45940
SWIDTH 1142 0
DWIDTH 8 0
BBX 7 7 0 0
BITMAP
EA
9A
EA
00
40
40
7E
ENDCHAR
STARTCHAR U+B378
ENCODING 45944
SWIDTH 1142 0
DWIDTH 8 0
BBX 7 7 0 0
BITMAP
EA
9A
EA
00
7C
18
3E
ENDCHAR
STARTCHAR U+B380
ENCODING 45952
SWIDTH 1142 0
DWIDTH 8 0
BBX 7 7 0 0
BITMAP
EA
9A
EA
00
7E
42
7E
ENDCHAR
STARTCHAR U+B381
ENCODING 45953
SWIDTH 1142 0
DWIDTH 8 0
BBX 7 7 0 0
BITMAP
EA
9A
EA
00
42
7E
7E
ENDCHAR
STARTCHAR U+B383
ENCODING 45955
SWIDTH 1142 0
DWIDTH 8 0
BBX 7 7 0 0
BITMAP
EA
9A
EA
00
08
14
62
ENDCHAR
STARTCHAR U+B384
ENCODING 45956
SWIDTH 1142 0
DWIDTH 8 0
BBX 7 7 0 0
BITMAP
EA
9A
EA
00
14
2C
52
ENDCHAR
STARTCHAR U+B385
ENCODING 45957
SWIDTH 1142 0
DWIDTH 8 0
BBX 7 7 0 0
BITMAP
EA
9A
EA
00
3C
42
3C
ENDCHAR
STARTCHAR U+B38C
ENCODING 45964
SWIDTH 1142 0
DWIDTH 8 0
BBX 6 7 0 0
BITMAP
E4
9C
84
9C
E4
04
04
ENDCHAR
STARTCHAR U+B390
ENCODING 45968
SWIDTH 1142 0
DWIDTH 8 0
BBX 6 7 0 0
BITMAP
EC
84
EC
04
40
40
7C
ENDCHAR
STARTCHAR U+B394
ENCODING 45972
SWIDTH 1142 0
DWIDTH 8 0
BBX 6 7 0 0
BITMAP
EC
84
EC
04
78
10
3C
ENDCHAR
STARTCHAR U+B3A0
ENCODING 45984
SWIDTH 1142 0
DWIDTH 8 0
BBX 6 7 0 0
BITMAP
EC
84
EC
04
14
28
54
ENDCHAR
STARTCHAR U+B3A1
ENCODING 45985
SWIDTH 1142 0
DWIDTH 8 0
BBX 6 7 0 0
BITMAP
EC
84
EC
04
38
44
38
ENDCHAR
STARTCHAR U+B3A8
ENCODING 45992
SWIDTH 1142 0
DWIDTH 8 0
BBX 7 7 0 0
BITMAP
EA
9A
8A
9A
EA
0A
0A
ENDCHAR
STARTCHAR U+B3AC
ENCODING 45996
SWIDTH 1142 0
DWIDTH 8 0
BBX 7 7 0 0
BITMAP
DA
8A
DA
0A
40
40
7E
ENDCHAR
STARTCHAR U+B3C4
ENCODING 46020
SWIDTH 1142 0
DWIDTH 8 0
BBX 7 6 0 1
BITMAP
7C
40
40
7C
10
FE
ENDCHAR
STARTCHAR U+B3C5
ENCODING 46021
SWIDTH 1142 0
DWIDTH 8 0
BBX 7 7 0 0
BITMAP
7C
40
7C
10
FE
7C
04
ENDCHAR
STARTCHAR U+B3C8
ENCODING 46024
SWIDTH 1142 0
DWIDTH 8 0
BBX 7 7 0 0
BITMAP
7C
40
7C
10
FE
40
7C
ENDCHAR
STARTCHAR U+B3CB
ENCODING 46027
SWIDTH 1142 0
DWIDTH 8 0
BBX 7 7 0 0
BITMAP
7C
7C
10
FE
7C
40
7C
ENDCHAR
STARTCHAR U+B3CC
ENCODING 46028
SWIDTH 1142 0
DWIDTH 8 0
BBX 7 7 0 0
BITMAP
7C
40
7C
10
FE
70
1C
ENDCHAR
STARTCHAR U+B3CE
ENCODING 46030
SWIDTH 1142 0
DWIDTH 8 0
BBX 7 7 0 0
BITMAP
7C
40
7C
10
FE
6C
3C
ENDCHAR
STARTCHAR U+B3D0
ENCODING 46032
SWIDTH 1142 0
DWIDTH 8 0
BBX 7 7 0 0
BITMAP
7C
40
7C
10
FE
64
3A
ENDCHAR
STARTCHAR U+B3D4
ENCODING 46036
SWIDTH 1142 0
DWIDTH 8 0
BBX 7 7 0 0
BITMAP
7C
40
7C
10
FE
44
7C
ENDCHAR
STARTCHAR U+B3D5
ENCODING 46037
SWIDTH 1142 0
DWIDTH 8 0
BBX 7 7 0 0
BITMAP
7C
7C
10
FE
44
7C
7C
ENDCHAR
STARTCHAR U+B3D7
ENCODING 46039
SWIDTH 1142 0
DWIDTH 8 0
BBX 7 7 0 0
BITMAP
7C
40
7C
10
FE
10
6C
ENDCHAR
STARTCHAR U+B3D9
ENCODING 46041
SWIDTH 1142 0
DWIDTH 8 0
BBX 7 7 0 0
BITMAP
7C
40
7C
10
FE
44
38
ENDCHAR
STARTCHAR U+B3DB
ENCODING 46043
SWIDTH 1142 0
DWIDTH 8 0
BBX 7 7 0 0
BITMAP
7C
7C
10
FE
10
38
6C
ENDCHAR
STARTCHAR U+B3DD
ENCODING 46045
SWIDTH 1142 0
DWIDTH 8 0
BBX 7 7 0 0
BITMAP
7C
40
7C
10
FE
78
7C
ENDCHAR
STARTCHAR U+B3E0
ENCODING 46048
SWIDTH 1142 0
DWIDTH 8 0
BBX 7 7 0 0
BITMAP
F4
84
84
F6
44
F4
04
ENDCHAR
STARTCHAR U+B3E4
ENCODING 46052
SWIDTH 1142 0
DWIDTH 8 0
BBX 7 7 0 0
BITMAP
F4
84
F6
24
FC
40
7C
ENDCHAR
STARTCHAR U+B3E8
ENCODING 46056
SWIDTH 1142 0
DWIDTH 8 0
BBX 7 7 0 0
BITMAP
F4
84
F6
24
FC
70
1C
ENDCHAR
STARTCHAR U+B3FC
ENCODING 46076
SWIDTH 1142 0
DWIDTH 8 0
BBX 7 7 0 0
BITMAP
EA
8A
8A
EE
4A
FA
0A
ENDCHAR
STARTCHAR U+B410
ENCODING 46096
SWIDTH 1142 0
DWIDTH 8 0
BBX 7 7 0 0
BITMAP
EA
8A
EE
4A
FA
14
6A
ENDCHAR
STARTCHAR U+B418
ENCODING 46104
SWIDTH 1142 0
DWIDTH 8 0
BBX 6 7 0 0
BITMAP
F4
84
84
F4
44
F4
04
ENDCHAR
STARTCHAR U+B41C
ENCODING 46108
SWIDTH 1142 0
DWIDTH 8 0
BBX 6 7 0 0
BITMAP
F4
84
F4
44
F4
40
7C
ENDCHAR
STARTCHAR U+B420
ENCODING 46112
SWIDTH 1142 0
DWIDTH 8 0
BBX 6 7 0 0
BITMAP
F4
84
F4
44
F4
70
1C
ENDCHAR
STARTCHAR U+B428
ENCODING 46120
SWIDTH 1142 0
DWIDTH 8 0
BBX 6 7 0 0
BITMAP
F4
84
F4
44
FC
44
7C
ENDCHAR
STARTCHAR U+B429
ENCODING 46121
SWIDTH 1142 0
DWIDTH 8 0
BBX 6 7 0 0
BITMAP
F4
F4
44
F4
44
7C
7C
ENDCHAR
STARTCHAR U+B42B
ENCODING 46123
SWIDTH 1142 0
DWIDTH 8 0
BBX 6 7 0 0
BITMAP
F4
84
F4
44
F4
10
6C
ENDCHAR
STARTCHAR U+B434
ENCODING 46132
SWIDTH 1142 0
DWIDTH 8 0
BBX 7 6 0 1
BITMAP
7C
40
40
7C
28
FE
ENDCHAR
STARTCHAR U+B450
ENCODING 46160
SWIDTH 1142 0
DWIDTH 8 0
BBX 7 7 0 0
BITMAP
7C
40
7C
00
FE
10
10
ENDCHAR
STARTCHAR U+B451
ENCODING 46161
SWIDTH 1142 0
DWIDTH 8 0
BBX 7 7 0 0
BITMAP
7C
40
7C
FE
10
7C
04
ENDCHAR
STARTCHAR U+B454
ENCODING 46164
SWIDTH 1142 0
DWIDTH 8 0
BBX 7 7 0 0
BITMAP
7C
40
7C
FE
10
40
7C
ENDCHAR
STARTCHAR U+B458
ENCODING 46168
SWIDTH 1142 0
DWIDTH 8 0
BBX 7 7 0 0
BITMAP
7C
40
7C
FE
10
70
1C
ENDCHAR
STARTCHAR U+B460
ENCODING 46176
SWIDTH 1142 0
DWIDTH 8 0
BBX 7 7 0 0
BITMAP
7C
40
7C
FE
10
7C
7C
ENDCHAR
STARTCHAR U+B461
ENCODING 46177
SWIDTH 1142 0
DWIDTH 8 0
BBX 7 7 0 0
BITMAP
7C
40
7C
FE
54
7C
7C
ENDCHAR
STARTCHAR U+B463
ENCODING 46179
SWIDTH 1142 0
DWIDTH 8 0
BBX 7 7 0 0
BITMAP
7C
40
7C
FE
10
10
6C
ENDCHAR
STARTCHAR U+B465
ENCODING 46181
SWIDTH 1142 0
DWIDTH 8 0
BBX 7 7 0 0
BITMAP
7C
40
FE
10
38
44
38
ENDCHAR
STARTCHAR U+B46C
ENCODING 46188
SWIDTH 1142 0
DWIDTH 8 0
BBX 6 7 0 0
BITMAP
F4
84
F4
04
F4
4C
44
ENDCHAR
STARTCHAR U+B480
ENCODING 46208
SWIDTH 1142 0
DWIDTH 8 0
BBX 6 7 0 0
BITMAP
E4
8C
E4
F4
40
28
54
ENDCHAR
STARTCHAR U+B488
ENCODING 46216
SWIDTH 1142 0
DWIDTH 8 0
BBX 7 7 0 0
BITMAP
EA
8A
EA
0A
EA
5A
4A
ENDCHAR
STARTCHAR U+B49D
ENCODING 46237
SWIDTH 1142 0
DWIDTH 8 0
BBX 7 7 0 0
BITMAP
E6
8E
F6
46
3C
42
3C
ENDCHAR
STARTCHAR U+B4A4
ENCODING 46244
SWIDTH 1142 0
DWIDTH 8 0
BBX 6 7 0 0
BITMAP
F4
84
F4
04
F4
44
44
ENDCHAR
STARTCHAR U+B4A8
ENCODING 46248
SWIDTH 1142 0
DWIDTH 8 0
BBX 6 7 0 0
BITMAP
E4
84
E4
F4
20
40
7C
ENDCHAR
STARTCHAR U+B4AC
ENCODING 46252
SWIDTH 1142 0
DWIDTH 8 0
BBX 6 7 0 0
BITMAP
E4
84
E4
F4
20
70
1C
ENDCHAR
STARTCHAR U+B4B5
ENCODING 46261
SWIDTH 1142 0
DWIDTH 8 0
BBX 6 7 0 0
BITMAP
E4
84
F4
24
44
7C
7C
ENDCHAR
STARTCHAR U+B4B7
ENCODING 46263
SWIDTH 1142 0
DWIDTH 8 0
BBX 6 7 0 0
BITMAP
E4
84
E4
F4
20
10
6C
ENDCHAR
STARTCHAR U+B4B9
ENCODING 46265
SWIDTH 1142 0
DWIDTH 8 0
BBX 6 7 0 0
BITMAP
F4
84
F4
24
38
44
38
ENDCHAR
STARTCHAR U+B4C0
ENCODING 46272
SWIDTH 1142 0
DWIDTH 8 0
BBX 7 7 0 0
BITMAP
7C
40
7C
00
FE
28
28
ENDCHAR
STARTCHAR U+B4C4
ENCODING 46276
SWIDTH 1142 0
DWIDTH 8 0
BBX 7 7 0 0
BITMAP
7C
40
7C
FE
28
40
7C
ENDCHAR
STARTCHAR U+B4C8
ENCODING 46280
SWIDTH 1142 0
DWIDTH 8 0
BBX 7 7 0 0
BITMAP
7C
40
7C
FE
28
70
1C
ENDCHAR
STARTCHAR U+B4D0
ENCODING 46288
SWIDTH 1142 0
DWIDTH 8 0
BBX 7 7 0 0
BITMAP
7C
40
7C
FE
28
7C
7C
ENDCHAR
STARTCHAR U+B4D5
ENCODING 46293
SWIDTH 1142 0
DWIDTH 8 0
BBX 7 7 0 0
BITMAP
7C
40
FE
28
38
44
38
ENDCHAR
STARTCHAR U+B4DC
ENCODING 46300
SWIDTH 1142 0
DWIDTH 8 0
BBX 7 6 0 1
BITMAP
7C
40
40
7C
00
FE
ENDCHAR
STARTCHAR U+B4DD
ENCODING 46301
SWIDTH 1142 0
DWIDTH 8 0
BBX 7 7 0 0
BITMAP
7C
40
7C
FE
00
7C
04
ENDCHAR
STARTCHAR U+B4E0
ENCODING 46304
SWIDTH 1142 0
DWIDTH 8 0
BBX 7 7 0 0
BITMAP
7C
40
7C
FE
00
40
7C
ENDCHAR
STARTCHAR U+B4E3
ENCODING 46307
SWIDTH 1142 0
DWIDTH 8 0
BBX 7 7 0 0
BITMAP
7C
40
7C
FE
7C
40
7C
ENDCHAR
STARTCHAR U+B4E4
ENCODING 46308
SWIDTH 1142 0
DWIDTH 8 0
BBX 7 7 0 0
BITMAP
7C
40
7C
FE
78
10
3C
ENDCHAR
STARTCHAR U+B4E6
ENCODING 46310
SWIDTH 1142 0
DWIDTH 8 0
BBX 7 7 0 0
BITMAP
7C
40
7C
FE
DC
54
7C
ENDCHAR
STARTCHAR U+B4EC
ENCODING 46316
SWIDTH 1142 0
DWIDTH 8 0
BBX 7 7 0 0
BITMAP
7C
40
7C
FE
7C
44
7C
ENDCHAR
STARTCHAR U+B4ED
ENCODING 46317
SWIDTH 1142 0
DWIDTH 8 0
BBX 7 7 0 0
BITMAP
7C
40
7C
FE
44
7C
7C
ENDCHAR
STARTCHAR U+B4EF
ENCODING 46319
SWIDTH 1142 0
DWIDTH 8 0
BBX 7 7 0 0
BITMAP
7C
40
7C
FE
10
28
44
ENDCHAR
STARTCHAR U+B4F1
ENCODING 46321
SWIDTH 1142 0
DWIDTH 8 0
BBX 7 7 0 0
BITMAP
7C
40
7C
FE
38
44
38
ENDCHAR
STARTCHAR U+B4F8
ENCODING 46328
SWIDTH 1142 0
DWIDTH 8 0
BBX 6 7 0 0
BITMAP
F4
84
84
F4
04
F4
04
ENDCHAR
STARTCHAR U+B514
ENCODING 46356
SWIDTH 1142 0
DWIDTH 8 0
BBX 6 7 0 0
BITMAP
F4
84
84
84
F4
04
04
ENDCHAR
STARTCHAR U+B515
ENCODING 46357
SWIDTH 1142 0
DWIDTH 8 0
BBX 6 7 0 0
BITMAP
F4
84
F4
00
7C
04
04
ENDCHAR
STARTCHAR U+B518
ENCODING 46360
SWIDTH 1142 0
DWIDTH 8 0
BBX 6 7 0 0
BITMAP
F4
84
F4
04
40
40
7C
ENDCHAR
STARTCHAR U+B51B
ENCODING 46363
SWIDTH 1142 0
DWIDTH 8 0
BBX 6 7 0 0
BITMAP
F4
84
F4
00
7C
40
7C
ENDCHAR
STARTCHAR U+B51C
ENCODING 46364
SWIDTH 1142 0
DWIDTH 8 0
BBX 6 7 0 0
BITMAP
F4
84
F4
00
78
10
3C
ENDCHAR
STARTCHAR U+B524
ENCODING 46372
SWIDTH 1142 0
DWIDTH 8 0
BBX 6 7 0 0
BITMAP
F4
84
F4
00
7C
44
7C
ENDCHAR
STARTCHAR U+B525
ENCODING 46373
SWIDTH 1142 0
DWIDTH 8 0
BBX 6 7 0 0
BITMAP
F4
84
F4
00
44
7C
7C
ENDCHAR
STARTCHAR U+B527
ENCODING 46375
SWIDTH 1142 0
DWIDTH 8 0
BBX 6 7 0 0
BITMAP
F4
84
F4
04
10
28
44
ENDCHAR
STARTCHAR U+B528
ENCODING 46376
SWIDTH 1142 0
DWIDTH 8 0
BBX 6 7 0 0
BITMAP
F4
84
F4
00
14
28
54
ENDCHAR
STARTCHAR U+B529
ENCODING 46377
SWIDTH 1142 0
DWIDTH 8 0
BBX 6 7 0 0
BITMAP
F4
84
F4
00
38
44
38
ENDCHAR
STARTCHAR U+B52A
ENCODING 46378
SWIDTH 1142 0
DWIDTH 8 0
BBX 6 7 0 0
BITMAP
F4
84
F4
00
7C
10
6C
ENDCHAR
STARTCHAR U+B530
ENCODING 46384
SWIDTH 1142 0
DWIDTH 8 0
BBX 7 7 0 0
BITMAP
F4
A4
A6
A4
F4
04
04
ENDCHAR
STARTCHAR U+B531
ENCODING 46385
SWIDTH 1142 0
DWIDTH 8 0
BBX 7 7 0 0
BITMAP
F4
A6
F4
00
7C
04
04
ENDCHAR
STARTCHAR U+B534
ENCODING 46388
SWIDTH 1142 0
DWIDTH 8 0
BBX 7 7 0 0
BITMAP
F4
A6
F4
00
40
40
7C
ENDCHAR
STARTCHAR U+B538
ENCODING 46392
SWIDTH 1142 0
DWIDTH 8 0
BBX 7 7 0 0
BITMAP
F4
A6
F4
00
78
10
3C
ENDCHAR
STARTCHAR U+B540
ENCODING 46400
SWIDTH 1142 0
DWIDTH 8 0
BBX 7 7 0 0
BITMAP
F4
A6
F4
00
7C
44
7C
ENDCHAR
STARTCHAR U+B541
ENCODING 46401
SWIDTH 1142 0
DWIDTH 8 0
BBX 7 7 0 0
BITMAP
F4
A6
F4
00
44
7C
7C
ENDCHAR
STARTCHAR U+B543
ENCODING 46403
SWIDTH 1142 0
DWIDTH 8 0
BBX 7 7 0 0
BITMAP
F4
A6
F4
00
10
28
44
ENDCHAR
STARTCHAR U+B544
ENCODING 46404
SWIDTH 1142 0
DWIDTH 8 0
BBX 7 7 0 0
BITMAP
F4
A6
F4
00
14
28
54
ENDCHAR
STARTCHAR U+B545
ENCODING 46405
SWIDTH 1142 0
DWIDTH 8 0
BBX 7 7 0 0
BITMAP
F4
A6
F4
00
38
44
38
ENDCHAR
STARTCHAR U+B54B
ENCODING 46411
SWIDTH 1142 0
DWIDTH 8 0
BBX 7 7 0 0
BITMAP
F4
A6
F4
10
7C
28
10
ENDCHAR
STARTCHAR U+B54C
ENCODING 46412
SWIDTH 1142 0
DWIDTH 8 0
BBX 7 7 0 0
BITMAP
FA
AA
AE
AA
FA
0A
0A
ENDCHAR
STARTCHAR U+B54D
ENCODING 46413
SWIDTH 1142 0
DWIDTH 8 0
BBX 7 7 0 0
BITMAP
FA
AE
FA
00
7E
02
02
ENDCHAR
STARTCHAR U+B550
ENCODING 46416
SWIDTH 1142 0
DWIDTH 8 0
BBX 7 7 0 0
BITMAP
FA
AE
FA
0A
40
40
7E
ENDCHAR
STARTCHAR U+B554
ENCODING 46420
SWIDTH 1142 0
DWIDTH 8 0
BBX 7 7 0 0
BITMAP
FA
AE
FA
00
7C
18
3E
ENDCHAR
STARTCHAR U+B55C
ENCODING 46428
SWIDTH 1142 0
DWIDTH 8 0
BBX 7 7 0 0
BITMAP
FA
AE
FA
00
7E
42
7E
ENDCHAR
STARTCHAR U+B55D
ENCODING 46429
SWIDTH 1142 0
DWIDTH 8 0
BBX 7 7 0 0
BITMAP
FA
AE
FA
00
42
7E
7E
ENDCHAR
STARTCHAR U+B55F
ENCODING 46431
SWIDTH 1142 0
DWIDTH 8 0
BBX 7 7 0 0
BITMAP
FA
AE
FA
00
08
14
62
ENDCHAR
STARTCHAR U+B560
ENCODING 46432
SWIDTH 1142 0
DWIDTH 8 0
BBX 7 7 0 0
BITMAP
FA
AE
FA
00
14
2C
52
ENDCHAR
STARTCHAR U+B561
ENCODING 46433
SWIDTH 1142 0
DWIDTH 8 0
BBX 7 7 0 0
BITMAP
FA
AE
FA
00
3C
42
3C
ENDCHAR
STARTCHAR U+B5A0
ENCODING 46496
SWIDTH 1142 0
DWIDTH 8 0
BBX 6 7 0 0
BITMAP
F4
A4
AC
A4
F4
04
04
ENDCHAR
STARTCHAR U+B5A1
ENCODING 46497
SWIDTH 1142 0
DWIDTH 8 0
BBX 6 7 0 0
BITMAP
F4
AC
F4
00
7C
04
04
ENDCHAR
STARTCHAR U+B5A4
ENCODING 46500
SWIDTH 1142 0
DWIDTH 8 0
BBX 6 7 0 0
BITMAP
F4
AC
F4
00
40
40
7C
ENDCHAR
STARTCHAR U+B5A8
ENCODING 46504
SWIDTH 1142 0
DWIDTH 8 0
BBX 6 7 0 0
BITMAP
F4
AC
F4
00
78
10
3C
ENDCHAR
STARTCHAR U+B5AA
ENCODING 46506
SWIDTH 1142 0
DWIDTH 8 0
BBX 6 7 0 0
BITMAP
F4
AC
F4
00
DC
54
7C
ENDCHAR
STARTCHAR U+B5AB
ENCODING 46507
SWIDTH 1142 0
DWIDTH 8 0
BBX 6 7 0 0
BITMAP
F4
AC
F4
00
D4
5C
7C
ENDCHAR
STARTCHAR U+B5B0
ENCODING 46512
SWIDTH 1142 0
DWIDTH 8 0
BBX 6 7 0 0
BITMAP
F4
AC
F4
00
7C
44
7C
ENDCHAR
STARTCHAR U+B5B1
ENCODING 46513
SWIDTH 1142 0
DWIDTH 8 0
BBX 6 7 0 0
BITMAP
F4
AC
F4
00
44
7C
7C
ENDCHAR
STARTCHAR U+B5B3
ENCODING 46515
SWIDTH 1142 0
DWIDTH 8 0
BBX 6 7 0 0
BITMAP
F4
AC
F4
00
10
28
44
ENDCHAR
STARTCHAR U+B5B4
ENCODING 46516
SWIDTH 1142 0
DWIDTH 8 0
BBX 6 7 0 0
BITMAP
F4
AC
F4
00
14
28
54
ENDCHAR
STARTCHAR U+B5B5
ENCODING 46517
SWIDTH 1142 0
DWIDTH 8 0
BBX 6 7 0 0
BITMAP
F4
AC
F4
00
38
44
38
ENDCHAR
STARTCHAR U+B5BB
ENCODING 46523
SWIDTH 1142 0
DWIDTH 8 0
BBX 6 7 0 0
BITMAP
F4
AC
F4
10
7C
28
10
ENDCHAR
STARTCHAR U+B5BC
ENCODING 46524
SWIDTH 1142 0
DWIDTH 8 0
BBX 7 7 0 0
BITMAP
F6
A6
AE
A6
F6
06
06
ENDCHAR
STARTCHAR U+B5BD
ENCODING 46525
SWIDTH 1142 0
DWIDTH 8 0
BBX 7 7 0 0
BITMAP
F6
AE
F6
00
7E
02
02
ENDCHAR
STARTCHAR U+B5C0
ENCODING 46528
SWIDTH 1142 0
DWIDTH 8 0
BBX 7 7 0 0
BITMAP
F6
AE
F6
00
40
40
7E
ENDCHAR
STARTCHAR U+B5C4
ENCODING 46532
SWIDTH 1142 0
DWIDTH 8 0
BBX 7 7 0 0
BITMAP
F6
AE
F6
00
7C
18
3E
ENDCHAR
STARTCHAR U+B5CC
ENCODING 46540
SWIDTH 1142 0
DWIDTH 8 0
BBX 7 7 0 0
BITMAP
F6
AE
F6
00
7E
42
7E
ENDCHAR
STARTCHAR U+B5CD
ENCODING 46541
SWIDTH 1142 0
DWIDTH 8 0
BBX 7 7 0 0
BITMAP
F6
AE
F6
00
42
7E
7E
ENDCHAR
STARTCHAR U+B5CF
ENCODING 46543
SWIDTH 1142 0
DWIDTH 8 0
BBX 7 7 0 0
BITMAP
F6
AE
F6
00
08
14
62
ENDCHAR
STARTCHAR U+B5D0
ENCODING 46544
SWIDTH 1142 0
DWIDTH 8 0
BBX 7 7 0 0
BITMAP
F6
AE
F6
00
14
2C
52
ENDCHAR
STARTCHAR U+B5D1
ENCODING 46545
SWIDTH 1142 0
DWIDTH 8 0
BBX 7 7 0 0
BITMAP
F6
AE
F6
00
3C
42
3C
ENDCHAR
STARTCHAR U+B5D8
ENCODING 46552
SWIDTH 1142 0
DWIDTH 8 0
BBX 6 7 0 0
BITMAP
F4
AC
A4
AC
F4
04
04
ENDCHAR
STARTCHAR U+B5EC
ENCODING 46572
SWIDTH 1142 0
DWIDTH 8 0
BBX 7 7 0 0
BITMAP
F6
A2
F6
02
14
2C
52
ENDCHAR
STARTCHAR U+B610
ENCODING 46608
SWIDTH 1142 0
DWIDTH 8 0
BBX 7 6 0 1
BITMAP
7C
50
7C
10
10
FE
ENDCHAR
STARTCHAR U+B611
ENCODING 46609
SWIDTH 1142 0
DWIDTH 8 0
BBX 7 7 0 0
BITMAP
7C
50
7C
10
FE
7C
04
ENDCHAR
STARTCHAR U+B614
ENCODING 46612
SWIDTH 1142 0
DWIDTH 8 0
BBX 7 7 0 0
BITMAP
7C
50
7C
10
FE
40
7C
ENDCHAR
STARTCHAR U+B618
ENCODING 46616
SWIDTH 1142 0
DWIDTH 8 0
BBX 7 7 0 0
BITMAP
7C
50
7C
10
FE
70
1C
ENDCHAR
STARTCHAR U+B625
ENCODING 46629
SWIDTH 1142 0
DWIDTH 8 0
BBX 7 7 0 0
BITMAP
7C
50
7C
10
FE
44
38
ENDCHAR
STARTCHAR U+B62C
ENCODING 46636
SWIDTH 1142 0
DWIDTH 8 0
BBX 7 7 0 0
BITMAP
F4
A4
A4
F6
24
FC
04
ENDCHAR
STARTCHAR U+B634
ENCODING 46644
SWIDTH 1142 0
DWIDTH 8 0
BBX 7 7 0 0
BITMAP
F4
A4
F6
24
FC
70
1C
ENDCHAR
STARTCHAR U+B648
ENCODING 46664
SWIDTH 1142 0
DWIDTH 8 0
BBX 7 7 0 0
BITMAP
FA
AA
AA
FE
2A
FA
0A
ENDCHAR
STARTCHAR U+B664
ENCODING 46692
SWIDTH 1142 0
DWIDTH 8 0
BBX 6 7 0 0
BITMAP
F4
A4
A4
F4
24
FC
04
ENDCHAR
STARTCHAR U+B668
ENCODING 46696
SWIDTH 1142 0
DWIDTH 8 0
BBX 6 7 0 0
BITMAP
F4
A4
F4
24
FC
40
7C
ENDCHAR
STARTCHAR U+B69C
ENCODING 46748
SWIDTH 1142 0
DWIDTH 8 0
BBX 7 7 0 0
BITMAP
6C
48
6C
00
FE
10
10
ENDCHAR
STARTCHAR U+B69D
ENCODING 46749
SWIDTH 1142 0
DWIDTH 8 0
BBX 7 7 0 0
BITMAP
7C
50
7C
FE
10
7C
04
ENDCHAR
STARTCHAR U+B6A0
ENCODING 46752
SWIDTH 1142 0
DWIDTH 8 0
BBX 7 7 0 0
BITMAP
7C
50
7C
FE
10
40
7C
ENDCHAR
STARTCHAR U+B6A4
ENCODING 46756
SWIDTH 1142 0
DWIDTH 8 0
BBX 7 7 0 0
BITMAP
7C
50
7C
FE
10
70
1C
ENDCHAR
STARTCHAR U+B6AB
ENCODING 46763
SWIDTH 1142 0
DWIDTH 8 0
BBX 7 7 0 0
BITMAP
7C
50
7C
FE
14
CE
64
ENDCHAR
STARTCHAR U+B6AC
ENCODING 46764
SWIDTH 1142 0
DWIDTH 8 0
BBX 7 7 0 0
BITMAP
7C
50
7C
FE
10
7C
7C
ENDCHAR
STARTCHAR U+B6B1
ENCODING 46769
SWIDTH 1142 0
DWIDTH 8 0
BBX 7 7 0 0
BITMAP
7C
50
FE
10
38
44
38
ENDCHAR
STARTCHAR U+B6D4
ENCODING 46804
SWIDTH 1142 0
DWIDTH 8 0
BBX 7 7 0 0
BITMAP
F6
A6
F6
06
F6
2E
26
ENDCHAR
STARTCHAR U+B6F0
ENCODING 46832
SWIDTH 1142 0
DWIDTH 8 0
BBX 6 7 0 0
BITMAP
F4
A4
F4
04
FC
24
24
ENDCHAR
STARTCHAR U+B6F4
ENCODING 46836
SWIDTH 1142 0
DWIDTH 8 0
BBX 6 7 0 0
BITMAP
F4
A4
F4
FC
24
40
7C
ENDCHAR
STARTCHAR U+B6F8
ENCODING 46840
SWIDTH 1142 0
DWIDTH 8 0
BBX 6 7 0 0
BITMAP
F4
A4
F4
FC
20
70
1C
ENDCHAR
STARTCHAR U+B700
ENCODING 46848
SWIDTH 1142 0
DWIDTH 8 0
BBX 6 7 0 0
BITMAP
F4
A4
FC
24
7C
44
7C
ENDCHAR
STARTCHAR U+B701
ENCODING 46849
SWIDTH 1142 0
DWIDTH 8 0
BBX 6 7 0 0
BITMAP
F4
A4
FC
24
44
7C
7C
ENDCHAR
STARTCHAR U+B705
ENCODING 46853
SWIDTH 1142 0
DWIDTH 8 0
BBX 6 7 0 0
BITMAP
F4
A4
FC
24
38
44
38
ENDCHAR
STARTCHAR U+B728
ENCODING 46888
SWIDTH 1142 0
DWIDTH 8 0
BBX 7 6 0 1
BITMAP
7C
50
50
7C
00
FE
ENDCHAR
STARTCHAR U+B729
ENCODING 46889
SWIDTH 1142 0
DWIDTH 8 0
BBX 7 7 0 0
BITMAP
7C
50
7C
FE
00
7C
04
ENDCHAR
STARTCHAR U+B72C
ENCODING 46892
SWIDTH 1142 0
DWIDTH 8 0
BBX 7 7 0 0
BITMAP
7C
50
7C
FE
00
40
7C
ENDCHAR
STARTCHAR U+B72F
ENCODING 46895
SWIDTH 1142 0
DWIDTH 8 0
BBX 7 7 0 0
BITMAP
7C
50
7C
FE
7C
40
7C
ENDCHAR
STARTCHAR U+B730
ENCODING 46896
SWIDTH 1142 0
DWIDTH 8 0
BBX 7 7 0 0
BITMAP
7C
50
7C
FE
78
10
3C
ENDCHAR
STARTCHAR U+B738
ENCODING 46904
SWIDTH 1142 0
DWIDTH 8 0
BBX 7 7 0 0
BITMAP
7C
50
7C
FE
7C
44
7C
ENDCHAR
STARTCHAR U+B739
ENCODING 46905
SWIDTH 1142 0
DWIDTH 8 0
BBX 7 7 0 0
BITMAP
7C
50
7C
FE
44
7C
7C
ENDCHAR
STARTCHAR U+B73B
ENCODING 46907
SWIDTH 1142 0
DWIDTH 8 0
BBX 7 7 0 0
BITMAP
7C
50
7C
FE
10
28
44
ENDCHAR
STARTCHAR U+B744
ENCODING 46916
SWIDTH 1142 0
DWIDTH 8 0
BBX 6 7 0 0
BITMAP
F4
A4
A4
F4
04
FC
04
ENDCHAR
STARTCHAR U+B748
ENCODING 46920
SWIDTH 1142 0
DWIDTH 8 0
BBX 6 7 0 0
BITMAP
F4
A4
F4
FC
40
40
7C
ENDCHAR
STARTCHAR U+B74C
ENCODING 46924
SWIDTH 1142 0
DWIDTH 8 0
BBX 6 7 0 0
BITMAP
F4
A4
F4
FC
78
10
3C
ENDCHAR
STARTCHAR U+B754
ENCODING 46932
SWIDTH 1142 0
DWIDTH 8 0
BBX 6 7 0 0
BITMAP
F4
A4
F4
FC
7C
44
7C
ENDCHAR
STARTCHAR U+B755
ENCODING 46933
SWIDTH 1142 0
DWIDTH 8 0
BBX 6 7 0 0
BITMAP
F4
A4
F4
FC
44
7C
7C
ENDCHAR
STARTCHAR U+B760
ENCODING 46944
SWIDTH 1142 0
DWIDTH 8 0
BBX 6 7 0 0
BITMAP
F4
A4
A4
A4
F4
04
04
ENDCHAR
STARTCHAR U+B764
ENCODING 46948
SWIDTH 1142 0
DWIDTH 8 0
BBX 6 7 0 0
BITMAP
F4
A4
F4
04
40
40
7C
ENDCHAR
STARTCHAR U+B768
ENCODING 46952
SWIDTH 1142 0
DWIDTH 8 0
BBX 6 7 0 0
BITMAP
F4
A4
F4
00
78
10
3C
ENDCHAR
STARTCHAR U+B770
ENCODING 46960
SWIDTH 1142 0
DWIDTH 8 0
BBX 6 7 0 0
BITMAP
F4
A4
F4
00
7C
44
7C
ENDCHAR
STARTCHAR U+B771
ENCODING 46961
SWIDTH 1142 0
DWIDTH 8 0
BBX 6 7 0 0
BITMAP
F4
A4
F4
00
44
7C
7C
ENDCHAR
STARTCHAR U+B773
ENCODING 46963
SWIDTH 1142 0
DWIDTH 8 0
BBX 6 7 0 0
BITMAP
F4
A4
F4
04
10
28
44
ENDCHAR
STARTCHAR U+B775
ENCODING 46965
SWIDTH 1142 0
DWIDTH 8 0
BBX 6 7 0 0
BITMAP
F4
A4
F4
00
38
44
38
ENDCHAR
STARTCHAR U+B77C
ENCODING 46972
SWIDTH 1142 0
DWIDTH 8 0
BBX 7 7 0 0
BITMAP
F4
14
F6
84
F4
04
04
ENDCHAR
STARTCHAR U+B77D
ENCODING 46973
SWIDTH 1142 0
DWIDTH 8 0
BBX 7 7 0 0
BITMAP
E4
66
74
00
7C
04
04
ENDCHAR
STARTCHAR U+B780
ENCODING 46976
SWIDTH 1142 0
DWIDTH 8 0
BBX 7 7 0 0
BITMAP
E4
66
74
04
40
40
7C
ENDCHAR
STARTCHAR U+B784
ENCODING 46980
SWIDTH 1142 0
DWIDTH 8 0
BBX 7 7 0 0
BITMAP
E4
66
74
00
78
10
3C
ENDCHAR
STARTCHAR U+B78C
ENCODING 46988
SWIDTH 1142 0
DWIDTH 8 0
BBX 7 7 0 0
BITMAP
E4
66
74
00
7C
44
7C
ENDCHAR
STARTCHAR U+B78D
ENCODING 46989
SWIDTH 1142 0
DWIDTH 8 0
BBX 7 7 0 0
BITMAP
E4
66
74
00
44
7C
7C
ENDCHAR
STARTCHAR U+B78F
ENCODING 46991
SWIDTH 1142 0
DWIDTH 8 0
BBX 7 7 0 0
BITMAP
E4
66
74
04
10
28
44
ENDCHAR
STARTCHAR U+B790
ENCODING 46992
SWIDTH 1142 0
DWIDTH 8 0
BBX 7 7 0 0
BITMAP
E4
66
74
00
14
28
54
ENDCHAR
STARTCHAR U+B791
ENCODING 46993
SWIDTH 1142 0
DWIDTH 8 0
BBX 7 7 0 0
BITMAP
E4
66
74
00
38
44
38
ENDCHAR
STARTCHAR U+B792
ENCODING 46994
SWIDTH 1142 0
DWIDTH 8 0
BBX 7 7 0 0
BITMAP
E4
66
74
00
7C
10
6C
ENDCHAR
STARTCHAR U+B796
ENCODING 46998
SWIDTH 1142 0
DWIDTH 8 0
BBX 7 7 0 0
BITMAP
E4
66
74
00
7C
28
7C
ENDCHAR
STARTCHAR U+B797
ENCODING 46999
SWIDTH 1142 0
DWIDTH 8 0
BBX 7 7 0 0
BITMAP
E4
66
74
10
7C
28
10
ENDCHAR
STARTCHAR U+B798
ENCODING 47000
SWIDTH 1142 0
DWIDTH 8 0
BBX 7 7 0 0
BITMAP
EA
2A
EE
8A
EA
0A
0A
ENDCHAR
STARTCHAR U+B799
ENCODING 47001
SWIDTH 1142 0
DWIDTH 8 0
BBX 7 7 0 0
BITMAP
CA
4E
6A
00
7E
02
02
ENDCHAR
STARTCHAR U+B79C
ENCODING 47004
SWIDTH 1142 0
DWIDTH 8 0
BBX 7 7 0 0
BITMAP
CA
4E
6A
0A
40
40
7E
ENDCHAR
STARTCHAR U+B7A0
ENCODING 47008
SWIDTH 1142 0
DWIDTH 8 0
BBX 7 7 0 0
BITMAP
CA
4E
6A
00
7C
18
3E
ENDCHAR
STARTCHAR U+B7A8
ENCODING 47016
SWIDTH 1142 0
DWIDTH 8 0
BBX 7 7 0 0
BITMAP
CA
4E
6A
00
7E
42
7E
ENDCHAR
STARTCHAR U+B7A9
ENCODING 47017
SWIDTH 1142 0
DWIDTH 8 0
BBX 7 7 0 0
BITMAP
CA
4E
6A
00
42
7E
7E
ENDCHAR
STARTCHAR U+B7AB
ENCODING 47019
SWIDTH 1142 0
DWIDTH 8 0
BBX 7 7 0 0
BITMAP
CA
4E
6A
00
08
14
62
ENDCHAR
STARTCHAR U+B7AC
ENCODING 47020
SWIDTH 1142 0
DWIDTH 8 0
BBX 7 7 0 0
BITMAP
CA
4E
6A
00
14
2C
52
ENDCHAR
STARTCHAR U+B7AD
ENCODING 47021
SWIDTH 1142 0
DWIDTH 8 0
BBX 7 7 0 0
BITMAP
CA
4E
6A
00
3C
42
3C
ENDCHAR
STARTCHAR U+B7B4
ENCODING 47028
SWIDTH 1142 0
DWIDTH 8 0
BBX 7 7 0 0
BITMAP
F4
16
F4
86
F4
04
04
ENDCHAR
STARTCHAR U+B7B5
ENCODING 47029
SWIDTH 1142 0
DWIDTH 8 0
BBX 7 7 0 0
BITMAP
E6
64
76
00
7C
04
04
ENDCHAR
STARTCHAR U+B7B8
ENCODING 47032
SWIDTH 1142 0
DWIDTH 8 0
BBX 7 7 0 0
BITMAP
E6
64
76
00
40
40
7C
ENDCHAR
STARTCHAR U+B7C7
ENCODING 47047
SWIDTH 1142 0
DWIDTH 8 0
BBX 7 7 0 0
BITMAP
E6
64
76
00
10
28
44
ENDCHAR
STARTCHAR U+B7C9
ENCODING 47049
SWIDTH 1142 0
DWIDTH 8 0
BBX 7 7 0 0
BITMAP
E6
64
76
00
38
44
38
ENDCHAR
STARTCHAR U+B7EC
ENCODING 47084
SWIDTH 1142 0
DWIDTH 8 0
BBX 6 7 0 0
BITMAP
F4
14
FC
84
F4
04
04
ENDCHAR
STARTCHAR U+B7ED
ENCODING 47085
SWIDTH 1142 0
DWIDTH 8 0
BBX 6 7 0 0
BITMAP
C4
4C
64
00
7C
04
04
ENDCHAR
STARTCHAR U+B7F0
ENCODING 47088
SWIDTH 1142 0
DWIDTH 8 0
BBX 6 7 0 0
BITMAP
C4
4C
64
04
40
40
7C
ENDCHAR
STARTCHAR U+B7F4
ENCODING 47092
SWIDTH 1142 0
DWIDTH 8 0
BBX 6 7 0 0
BITMAP
C4
4C
64
00
78
10
3C
ENDCHAR
STARTCHAR U+B7FC
ENCODING 47100
SWIDTH 1142 0
DWIDTH 8 0
BBX 6 7 0 0
BITMAP
C4
4C
64
00
7C
44
7C
ENDCHAR
STARTCHAR U+B7FD
ENCODING 47101
SWIDTH 1142 0
DWIDTH 8 0
BBX 6 7 0 0
BITMAP
C4
4C
64
00
44
7C
7C
ENDCHAR
STARTCHAR U+B7FF
ENCODING 47103
SWIDTH 1142 0
DWIDTH 8 0
BBX 6 7 0 0
BITMAP
C4
4C
64
04
10
28
44
ENDCHAR
STARTCHAR U+B800
ENCODING 47104
SWIDTH 1142 0
DWIDTH 8 0
BBX 6 7 0 0
BITMAP
C4
4C
64
00
14
28
54
ENDCHAR
STARTCHAR U+B801
ENCODING 47105
SWIDTH 1142 0
DWIDTH 8 0
BBX 6 7 0 0
BITMAP
C4
4C
64
00
38
44
38
ENDCHAR
STARTCHAR U+B807
ENCODING 47111
SWIDTH 1142 0
DWIDTH 8 0
BBX 6 7 0 0
BITMAP
C4
4C
64
10
7C
28
10
ENDCHAR
STARTCHAR U+B808
ENCODING 47112
SWIDTH 1142 0
DWIDTH 8 0
BBX 7 7 0 0
BITMAP
EA
2A
FA
8A
EA
0A
0A
ENDCHAR
STARTCHAR U+B809
ENCODING 47113
SWIDTH 1142 0
DWIDTH 8 0
BBX 7 7 0 0
BITMAP
CA
5A
6A
00
7E
02
02
ENDCHAR
STARTCHAR U+B80C
ENCODING 47116
SWIDTH 1142 0
DWIDTH 8 0
BBX 7 7 0 0
BITMAP
CA
5A
6A
0A
40
40
7E
ENDCHAR
STARTCHAR U+B810
ENCODING 47120
SWIDTH 1142 0
DWIDTH 8 0
BBX 7 7 0 0
BITMAP
CA
5A
6A
00
7C
18
3E
ENDCHAR
STARTCHAR U+B818
ENCODING 47128
SWIDTH 1142 0
DWIDTH 8 0
BBX 7 7 0 0
BITMAP
CA
5A
6A
00
7E
42
7E
ENDCHAR
STARTCHAR U+B819
ENCODING 47129
SWIDTH 1142 0
DWIDTH 8 0
BBX 7 7 0 0
BITMAP
CA
5A
6A
00
42
7E
7E
ENDCHAR
STARTCHAR U+B81B
ENCODING 47131
SWIDTH 1142 0
DWIDTH 8 0
BBX 7 7 0 0
BITMAP
CA
5A
6A
00
08
14
62
ENDCHAR
STARTCHAR U+B81D
ENCODING 47133
SWIDTH 1142 0
DWIDTH 8 0
BBX 7 7 0 0
BITMAP
CA
5A
6A
00
3C
42
3C
ENDCHAR
STARTCHAR U+B824
ENCODING 47140
SWIDTH 1142 0
DWIDTH 8 0
BBX 6 7 0 0
BITMAP
E4
2C
E4
8C
E4
04
04
ENDCHAR
STARTCHAR U+B825
ENCODING 47141
SWIDTH 1142 0
DWIDTH 8 0
BBX 6 7 0 0
BITMAP
CC
44
6C
04
7C
04
04
ENDCHAR
STARTCHAR U+B828
ENCODING 47144
SWIDTH 1142 0
DWIDTH 8 0
BBX 6 7 0 0
BITMAP
CC
44
6C
04
40
40
7C
ENDCHAR
STARTCHAR U+B82C
ENCODING 47148
SWIDTH 1142 0
DWIDTH 8 0
BBX 6 7 0 0
BITMAP
CC
44
6C
04
78
10
3C
ENDCHAR
STARTCHAR U+B834
ENCODING 47156
SWIDTH 1142 0
DWIDTH 8 0
BBX 6 7 0 0
BITMAP
CC
44
6C
04
7C
44
7C
ENDCHAR
STARTCHAR U+B835
ENCODING 47157
SWIDTH 1142 0
DWIDTH 8 0
BBX 6 7 0 0
BITMAP
CC
44
6C
04
44
7C
7C
ENDCHAR
STARTCHAR U+B837
ENCODING 47159
SWIDTH 1142 0
DWIDTH 8 0
BBX 6 7 0 0
BITMAP
CC
44
6C
04
10
28
44
ENDCHAR
STARTCHAR U+B838
ENCODING 47160
SWIDTH 1142 0
DWIDTH 8 0
BBX 6 7 0 0
BITMAP
CC
44
6C
04
14
28
54
ENDCHAR
STARTCHAR U+B839
ENCODING 47161
SWIDTH 1142 0
DWIDTH 8 0
BBX 6 7 0 0
BITMAP
CC
44
6C
04
38
44
38
ENDCHAR
STARTCHAR U+B840
ENCODING 47168
SWIDTH 1142 0
DWIDTH 8 0
BBX 7 7 0 0
BITMAP
EA
3A
EA
9A
EA
0A
0A
ENDCHAR
STARTCHAR U+B844
ENCODING 47172
SWIDTH 1142 0
DWIDTH 8 0
BBX 7 7 0 0
BITMAP
DA
4A
7A
0A
40
40
7E
ENDCHAR
STARTCHAR U+B851
ENCODING 47185
SWIDTH 1142 0
DWIDTH 8 0
BBX 7 7 0 0
BITMAP
DA
4A
7A
0A
42
7E
7E
ENDCHAR
STARTCHAR U+B853
ENCODING 47187
SWIDTH 1142 0
DWIDTH 8 0
BBX 7 7 0 0
BITMAP
DA
4A
7A
0A
08
14
62
ENDCHAR
STARTCHAR U+B85C
ENCODING 47196
SWIDTH 1142 0
DWIDTH 8 0
BBX 7 6 0 1
BITMAP
7C
1C
60
7C
10
FE
ENDCHAR
STARTCHAR U+B85D
ENCODING 47197
SWIDTH 1142 0
DWIDTH 8 0
BBX 7 7 0 0
BITMAP
78
3C
10
FE
00
7C
04
ENDCHAR
STARTCHAR U+B860
ENCODING 47200
SWIDTH 1142 0
DWIDTH 8 0
BBX 7 7 0 0
BITMAP
78
3C
10
FE
40
40
7C
ENDCHAR
STARTCHAR U+B864
ENCODING 47204
SWIDTH 1142 0
DWIDTH 8 0
BBX 7 7 0 0
BITMAP
78
3C
10
FE
78
10
3C
ENDCHAR
STARTCHAR U+B86C
ENCODING 47212
SWIDTH 1142 0
DWIDTH 8 0
BBX 7 7 0 0
BITMAP
78
3C
10
FE
7C
44
7C
ENDCHAR
STARTCHAR U+B86D
ENCODING 47213
SWIDTH 1142 0
DWIDTH 8 0
BBX 7 7 0 0
BITMAP
78
3C
10
FE
44
7C
7C
ENDCHAR
STARTCHAR U+B86F
ENCODING 47215
SWIDTH 1142 0
DWIDTH 8 0
BBX 7 7 0 0
BITMAP
78
3C
10
FE
10
28
44
ENDCHAR
STARTCHAR U+B871
ENCODING 47217
SWIDTH 1142 0
DWIDTH 8 0
BBX 7 7 0 0
BITMAP
78
3C
10
FE
38
44
38
ENDCHAR
STARTCHAR U+B878
ENCODING 47224
SWIDTH 1142 0
DWIDTH 8 0
BBX 7 7 0 0
BITMAP
F4
34
C4
F6
24
FC
04
ENDCHAR
STARTCHAR U+B87C
ENCODING 47228
SWIDTH 1142 0
DWIDTH 8 0
BBX 7 7 0 0
BITMAP
E4
74
26
FC
40
40
7C
ENDCHAR
STARTCHAR U+B88D
ENCODING 47245
SWIDTH 1142 0
DWIDTH 8 0
BBX 7 7 0 0
BITMAP
E4
74
26
FC
38
44
38
ENDCHAR
STARTCHAR U+B8A8
ENCODING 47272
SWIDTH 1142 0
DWIDTH 8 0
BBX 7 7 0 0
BITMAP
EA
7A
2E
FA
14
2C
52
ENDCHAR
STARTCHAR U+B8B0
ENCODING 47280
SWIDTH 1142 0
DWIDTH 8 0
BBX 6 7 0 0
BITMAP
F4
34
C4
F4
24
FC
04
ENDCHAR
STARTCHAR U+B8B4
ENCODING 47284
SWIDTH 1142 0
DWIDTH 8 0
BBX 6 7 0 0
BITMAP
E4
74
24
FC
40
40
7C
ENDCHAR
STARTCHAR U+B8B8
ENCODING 47288
SWIDTH 1142 0
DWIDTH 8 0
BBX 6 7 0 0
BITMAP
E4
74
24
FC
78
10
3C
ENDCHAR
STARTCHAR U+B8C0
ENCODING 47296
SWIDTH 1142 0
DWIDTH 8 0
BBX 6 7 0 0
BITMAP
E4
74
24
FC
7C
44
7C
ENDCHAR
STARTCHAR U+B8C1
ENCODING 47297
SWIDTH 1142 0
DWIDTH 8 0
BBX 6 7 0 0
BITMAP
E4
74
24
FC
44
7C
7C
ENDCHAR
STARTCHAR U+B8C3
ENCODING 47299
SWIDTH 1142 0
DWIDTH 8 0
BBX 6 7 0 0
BITMAP
E4
74
24
FC
10
28
44
ENDCHAR
STARTCHAR U+B8C5
ENCODING 47301
SWIDTH 1142 0
DWIDTH 8 0
BBX 6 7 0 0
BITMAP
E4
74
24
FC
38
44
38
ENDCHAR
STARTCHAR U+B8CC
ENCODING 47308
SWIDTH 1142 0
DWIDTH 8 0
BBX 7 6 0 1
BITMAP
7C
1C
60
7C
28
FE
ENDCHAR
STARTCHAR U+B8D0
ENCODING 47312
SWIDTH 1142 0
DWIDTH 8 0
BBX 7 7 0 0
BITMAP
78
3C
28
FE
00
40
7C
ENDCHAR
STARTCHAR U+B8D4
ENCODING 47316
SWIDTH 1142 0
DWIDTH 8 0
BBX 7 7 0 0
BITMAP
78
3C
28
FE
78
10
3C
ENDCHAR
STARTCHAR U+B8DD
ENCODING 47325
SWIDTH 1142 0
DWIDTH 8 0
BBX 7 7 0 0
BITMAP
78
3C
28
FE
44
7C
7C
ENDCHAR
STARTCHAR U+B8DF
ENCODING 47327
SWIDTH 1142 0
DWIDTH 8 0
BBX 7 7 0 0
BITMAP
78
3C
28
FE
10
28
44
ENDCHAR
STARTCHAR U+B8E1
ENCODING 47329
SWIDTH 1142 0
DWIDTH 8 0
BBX 7 7 0 0
BITMAP
78
3C
28
FE
38
44
38
ENDCHAR
STARTCHAR U+B8E8
ENCODING 47336
SWIDTH 1142 0
DWIDTH 8 0
BBX 7 7 0 0
BITMAP
78
10
3C
00
FE
10
10
ENDCHAR
STARTCHAR U+B8E9
ENCODING 47337
SWIDTH 1142 0
DWIDTH 8 0
BBX 7 7 0 0
BITMAP
78
3C
FE
10
7C
04
04
ENDCHAR
STARTCHAR U+B8EC
ENCODING 47340
SWIDTH 1142 0
DWIDTH 8 0
BBX 7 7 0 0
BITMAP
78
3C
FE
10
40
40
7C
ENDCHAR
STARTCHAR U+B8F0
ENCODING 47344
SWIDTH 1142 0
DWIDTH 8 0
BBX 7 7 0 0
BITMAP
78
3C
FE
10
78
10
3C
ENDCHAR
STARTCHAR U+B8F8
ENCODING 47352
SWIDTH 1142 0
DWIDTH 8 0
BBX 7 7 0 0
BITMAP
78
3C
FE
10
7C
44
7C
ENDCHAR
STARTCHAR U+B8F9
ENCODING 47353
SWIDTH 1142 0
DWIDTH 8 0
BBX 7 7 0 0
BITMAP
78
3C
FE
10
44
7C
7C
ENDCHAR
STARTCHAR U+B8FB
ENCODING 47355
SWIDTH 1142 0
DWIDTH 8 0
BBX 7 7 0 0
BITMAP
78
3C
FE
10
10
28
44
ENDCHAR
STARTCHAR U+B8FD
ENCODING 47357
SWIDTH 1142 0
DWIDTH 8 0
BBX 7 7 0 0
BITMAP
78
3C
FE
10
38
44
38
ENDCHAR
STARTCHAR U+B904
ENCODING 47364
SWIDTH 1142 0
DWIDTH 8 0
BBX 6 7 0 0
BITMAP
E4
64
74
04
F4
4C
44
ENDCHAR
STARTCHAR U+B918
ENCODING 47384
SWIDTH 1142 0
DWIDTH 8 0
BBX 6 7 0 0
BITMAP
C4
64
F4
4C
54
28
54
ENDCHAR
STARTCHAR U+B920
ENCODING 47392
SWIDTH 1142 0
DWIDTH 8 0
BBX 7 7 0 0
BITMAP
CA
4A
6A
0A
EA
5A
4A
ENDCHAR
STARTCHAR U+B93C
ENCODING 47420
SWIDTH 1142 0
DWIDTH 8 0
BBX 6 7 0 0
BITMAP
E4
64
74
04
F4
44
44
ENDCHAR
STARTCHAR U+B93D
ENCODING 47421
SWIDTH 1142 0
DWIDTH 8 0
BBX 6 7 0 0
BITMAP
E4
74
FC
24
7C
04
04
ENDCHAR
STARTCHAR U+B940
ENCODING 47424
SWIDTH 1142 0
DWIDTH 8 0
BBX 6 7 0 0
BITMAP
E4
74
FC
24
40
40
7C
ENDCHAR
STARTCHAR U+B944
ENCODING 47428
SWIDTH 1142 0
DWIDTH 8 0
BBX 6 7 0 0
BITMAP
E4
74
FC
24
78
10
3C
ENDCHAR
STARTCHAR U+B94C
ENCODING 47436
SWIDTH 1142 0
DWIDTH 8 0
BBX 6 7 0 0
BITMAP
E4
74
FC
24
7C
44
7C
ENDCHAR
STARTCHAR U+B94F
ENCODING 47439
SWIDTH 1142 0
DWIDTH 8 0
BBX 6 7 0 0
BITMAP
E4
74
FC
24
10
28
44
ENDCHAR
STARTCHAR U+B951
ENCODING 47441
SWIDTH 1142 0
DWIDTH 8 0
BBX 6 7 0 0
BITMAP
E4
74
FC
24
38
44
38
ENDCHAR
STARTCHAR U+B958
ENCODING 47448
SWIDTH 1142 0
DWIDTH 8 0
BBX 7 7 0 0
BITMAP
78
38
3C
00
FE
28
28
ENDCHAR
STARTCHAR U+B959
ENCODING 47449
SWIDTH 1142 0
DWIDTH 8 0
BBX 7 7 0 0
BITMAP
78
3C
FE
28
7C
04
04
ENDCHAR
STARTCHAR U+B95C
ENCODING 47452
SWIDTH 1142 0
DWIDTH 8 0
BBX 7 7 0 0
BITMAP
78
3C
FE
28
40
40
7C
ENDCHAR
STARTCHAR U+B960
ENCODING 47456
SWIDTH 1142 0
DWIDTH 8 0
BBX 7 7 0 0
BITMAP
78
3C
FE
28
78
10
3C
ENDCHAR
STARTCHAR U+B968
ENCODING 47464
SWIDTH 1142 0
DWIDTH 8 0
BBX 7 7 0 0
BITMAP
78
3C
FE
28
7C
44
7C
ENDCHAR
STARTCHAR U+B969
ENCODING 47465
SWIDTH 1142 0
DWIDTH 8 0
BBX 7 7 0 0
BITMAP
78
3C
FE
28
44
7C
7C
ENDCHAR
STARTCHAR U+B96B
ENCODING 47467
SWIDTH 1142 0
DWIDTH 8 0
BBX 7 7 0 0
BITMAP
78
3C
FE
28
10
28
44
ENDCHAR
STARTCHAR U+B96D
ENCODING 47469
SWIDTH 1142 0
DWIDTH 8 0
BBX 7 7 0 0
BITMAP
78
3C
FE
28
38
44
38
ENDCHAR
STARTCHAR U+B974
ENCODING 47476
SWIDTH 1142 0
DWIDTH 8 0
BBX 7 6 0 1
BITMAP
7C
1C
60
7C
00
FE
ENDCHAR
STARTCHAR U+B975
ENCODING 47477
SWIDTH 1142 0
DWIDTH 8 0
BBX 7 7 0 0
BITMAP
78
3C
00
FE
7C
04
04
ENDCHAR
STARTCHAR U+B978
ENCODING 47480
SWIDTH 1142 0
DWIDTH 8 0
BBX 7 7 0 0
BITMAP
78
3C
00
FE
40
40
7C
ENDCHAR
STARTCHAR U+B97C
ENCODING 47484
SWIDTH 1142 0
DWIDTH 8 0
BBX 7 7 0 0
BITMAP
78
3C
00
FE
78
10
3C
ENDCHAR
STARTCHAR U+B984
ENCODING 47492
SWIDTH 1142 0
DWIDTH 8 0
BBX 7 7 0 0
BITMAP
78
3C
00
FE
7C
44
7C
ENDCHAR
STARTCHAR U+B985
ENCODING 47493
SWIDTH 1142 0
DWIDTH 8 0
BBX 7 7 0 0
BITMAP
78
3C
00
FE
44
7C
7C
ENDCHAR
STARTCHAR U+B987
ENCODING 47495
SWIDTH 1142 0
DWIDTH 8 0
BBX 7 7 0 0
BITMAP
78
3C
00
FE
10
28
44
ENDCHAR
STARTCHAR U+B989
ENCODING 47497
SWIDTH 1142 0
DWIDTH 8 0
BBX 7 7 0 0
BITMAP
78
3C
00
FE
38
44
38
ENDCHAR
STARTCHAR U+B98A
ENCODING 47498
SWIDTH 1142 0
DWIDTH 8 0
BBX 7 7 0 0
BITMAP
78
3C
00
FE
7C
10
6C
ENDCHAR
STARTCHAR U+B98D
ENCODING 47501
SWIDTH 1142 0
DWIDTH 8 0
BBX 7 7 0 0
BITMAP
78
3C
00
FE
7C
78
7C
ENDCHAR
STARTCHAR U+B98E
ENCODING 47502
SWIDTH 1142 0
DWIDTH 8 0
BBX 7 7 0 0
BITMAP
78
3C
00
FE
7C
28
7C
ENDCHAR
STARTCHAR U+B9AC
ENCODING 47532
SWIDTH 1142 0
DWIDTH 8 0
BBX 6 7 0 0
BITMAP
F4
14
F4
84
F4
04
04
ENDCHAR
STARTCHAR U+B9AD
ENCODING 47533
SWIDTH 1142 0
DWIDTH 8 0
BBX 6 7 0 0
BITMAP
E4
64
74
00
7C
04
04
ENDCHAR
STARTCHAR U+B9B0
ENCODING 47536
SWIDTH 1142 0
DWIDTH 8 0
BBX 6 7 0 0
BITMAP
E4
64
74
04
40
40
7C
ENDCHAR
STARTCHAR U+B9B4
ENCODING 47540
SWIDTH 1142 0
DWIDTH 8 0
BBX 6 7 0 0
BITMAP
E4
64
74
00
78
10
3C
ENDCHAR
STARTCHAR U+B9BC
ENCODING 47548
SWIDTH 1142 0
DWIDTH 8 0
BBX 6 7 0 0
BITMAP
E4
64
74
00
7C
44
7C
ENDCHAR
STARTCHAR U+B9BD
ENCODING 47549
SWIDTH 1142 0
DWIDTH 8 0
BBX 6 7 0 0
BITMAP
E4
64
74
00
44
7C
7C
ENDCHAR
STARTCHAR U+B9BF
ENCODING 47551
SWIDTH 1142 0
DWIDTH 8 0
BBX 6 7 0 0
BITMAP
E4
64
74
04
10
28
44
ENDCHAR
STARTCHAR U+B9C1
ENCODING 47553
SWIDTH 1142 0
DWIDTH 8 0
BBX 6 7 0 0
BITMAP
E4
64
74
00
38
44
38
ENDCHAR
STARTCHAR U+B9C8
ENCODING 47560
SWIDTH 1142 0
DWIDTH 8 0
BBX 7 7 0 0
BITMAP
F4
94
96
94
F4
04
04
ENDCHAR
STARTCHAR U+B9C9
ENCODING 47561
SWIDTH 1142 0
DWIDTH 8 0
BBX 7 7 0 0
BITMAP
F4
96
F4
00
7C
04
04
ENDCHAR
STARTCHAR U+B9CC
ENCODING 47564
SWIDTH 1142 0
DWIDTH 8 0
BBX 7 7 0 0
BITMAP
F4
96
F4
04
40
40
7C
ENDCHAR
STARTCHAR U+B9CE
ENCODING 47566
SWIDTH 1142 0
DWIDTH 8 0
BBX 7 7 0 0
BITMAP
F4
96
F4
00
44
4E
74
ENDCHAR
STARTCHAR U+B9CF
ENCODING 47567
SWIDTH 1142 0
DWIDTH 8 0
BBX 7 7 0 0
BITMAP
F4
96
F4
00
7C
40
7C
ENDCHAR
STARTCHAR U+B9D0
ENCODING 47568
SWIDTH 1142 0
DWIDTH 8 0
BBX 7 7 0 0
BITMAP
F4
96
F4
00
78
10
3C
ENDCHAR
STARTCHAR U+B9D1
ENCODING 47569
SWIDTH 1142 0
DWIDTH 8 0
BBX 7 7 0 0
BITMAP
F4
96
F4
00
DC
44
64
ENDCHAR
STARTCHAR U+B9D2
ENCODING 47570
SWIDTH 1142 0
DWIDTH 8 0
BBX 7 7 0 0
BITMAP
F4
96
F4
00
DC
54
7C
ENDCHAR
STARTCHAR U+B9D8
ENCODING 47576
SWIDTH 1142 0
DWIDTH 8 0
BBX 7 7 0 0
BITMAP
F4
96
F4
00
7C
44
7C
ENDCHAR
STARTCHAR U+B9D9
ENCODING 47577
SWIDTH 1142 0
DWIDTH 8 0
BBX 7 7 0 0
BITMAP
F4
96
F4
00
44
7C
7C
ENDCHAR
STARTCHAR U+B9DB
ENCODING 47579
SWIDTH 1142 0
DWIDTH 8 0
BBX 7 7 0 0
BITMAP
F4
96
F4
04
10
28
44
ENDCHAR
STARTCHAR U+B9DD
ENCODING 47581
SWIDTH 1142 0
DWIDTH 8 0
BBX 7 7 0 0
BITMAP
F4
96
F4
00
38
44
38
ENDCHAR
STARTCHAR U+B9DE
ENCODING 47582
SWIDTH 1142 0
DWIDTH 8 0
BBX 7 7 0 0
BITMAP
F4
96
F4
00
7C
10
6C
ENDCHAR
STARTCHAR U+B9E1
ENCODING 47585
SWIDTH 1142 0
DWIDTH 8 0
BBX 7 7 0 0
BITMAP
F4
96
F4
00
7C
78
7C
ENDCHAR
STARTCHAR U+B9E3
ENCODING 47587
SWIDTH 1142 0
DWIDTH 8 0
BBX 7 7 0 0
BITMAP
F4
96
F4
10
7C
28
10
ENDCHAR
STARTCHAR U+B9E4
ENCODING 47588
SWIDTH 1142 0
DWIDTH 8 0
BBX 7 7 0 0
BITMAP
EA
AA
AE
AA
EA
0A
0A
ENDCHAR
STARTCHAR U+B9E5
ENCODING 47589
SWIDTH 1142 0
DWIDTH 8 0
BBX 7 7 0 0
BITMAP
EA
AE
EA
00
7E
02
02
ENDCHAR
STARTCHAR U+B9E8
ENCODING 47592
SWIDTH 1142 0
DWIDTH 8 0
BBX 7 7 0 0
BITMAP
EA
AE
EA
0A
40
40
7E
ENDCHAR
STARTCHAR U+B9EC
ENCODING 47596
SWIDTH 1142 0
DWIDTH 8 0
BBX 7 7 0 0
BITMAP
EA
AE
EA
00
7C
18
3E
ENDCHAR
STARTCHAR U+B9F4
ENCODING 47604
SWIDTH 1142 0
DWIDTH 8 0
BBX 7 7 0 0
BITMAP
EA
AE
EA
00
7E
42
7E
ENDCHAR
STARTCHAR U+B9F5
ENCODING 47605
SWIDTH 1142 0
DWIDTH 8 0
BBX 7 7 0 0
BITMAP
EA
AE
EA
00
42
7E
7E
ENDCHAR
STARTCHAR U+B9F7
ENCODING 47607
SWIDTH 1142 0
DWIDTH 8 0
BBX 7 7 0 0
BITMAP
EA
AE
EA
00
08
14
62
ENDCHAR
STARTCHAR U+B9F8
ENCODING 47608
SWIDTH 1142 0
DWIDTH 8 0
BBX 7 7 0 0
BITMAP
EA
AE
EA
00
14
2C
52
ENDCHAR
STARTCHAR U+B9F9
ENCODING 47609
SWIDTH 1142 0
DWIDTH 8 0
BBX 7 7 0 0
BITMAP
EA
AE
EA
00
3C
42
3C
ENDCHAR
STARTCHAR U+B9FA
ENCODING 47610
SWIDTH 1142 0
DWIDTH 8 0
BBX 7 7 0 0
BITMAP
EA
AE
EA
00
7E
18
66
ENDCHAR
STARTCHAR U+BA00
ENCODING 47616
SWIDTH 1142 0
DWIDTH 8 0
BBX 7 7 0 0
BITMAP
F4
96
94
96
F4
04
04
ENDCHAR
STARTCHAR U+BA01
ENCODING 47617
SWIDTH 1142 0
DWIDTH 8 0
BBX 7 7 0 0
BITMAP
F6
94
F6
04
7C
04
04
ENDCHAR
STARTCHAR U+BA08
ENCODING 47624
SWIDTH 1142 0
DWIDTH 8 0
BBX 7 7 0 0
BITMAP
F6
94
F6
04
78
10
3C
ENDCHAR
STARTCHAR U+BA15
ENCODING 47637
SWIDTH 1142 0
DWIDTH 8 0
BBX 7 7 0 0
BITMAP
F6
94
F6
04
38
44
38
ENDCHAR
STARTCHAR U+BA38
ENCODING 47672
SWIDTH 1142 0
DWIDTH 8 0
BBX 6 7 0 0
BITMAP
F4
94
9C
94
F4
04
04
ENDCHAR
STARTCHAR U+BA39
ENCODING 47673
SWIDTH 1142 0
DWIDTH 8 0
BBX 6 7 0 0
BITMAP
F4
9C
F4
00
7C
04
04
ENDCHAR
STARTCHAR U+BA3C
ENCODING 47676
SWIDTH 1142 0
DWIDTH 8 0
BBX 6 7 0 0
BITMAP
F4
9C
F4
04
40
40
7C
ENDCHAR
STARTCHAR U+BA40
ENCODING 47680
SWIDTH 1142 0
DWIDTH 8 0
BBX 6 7 0 0
BITMAP
F4
9C
F4
00
78
10
3C
ENDCHAR
STARTCHAR U+BA42
ENCODING 47682
SWIDTH 1142 0
DWIDTH 8 0
BBX 6 7 0 0
BITMAP
F4
9C
F4
00
DC
54
7C
ENDCHAR
STARTCHAR U+BA48
ENCODING 47688
SWIDTH 1142 0
DWIDTH 8 0
BBX 6 7 0 0
BITMAP
F4
9C
F4
00
7C
44
7C
ENDCHAR
STARTCHAR U+BA49
ENCODING 47689
SWIDTH 1142 0
DWIDTH 8 0
BBX 6 7 0 0
BITMAP
F4
9C
F4
00
44
7C
7C
ENDCHAR
STARTCHAR U+BA4B
ENCODING 47691
SWIDTH 1142 0
DWIDTH 8 0
BBX 6 7 0 0
BITMAP
F4
9C
F4
00
10
28
44
ENDCHAR
STARTCHAR U+BA4D
ENCODING 47693
SWIDTH 1142 0
DWIDTH 8 0
BBX 6 7 0 0
BITMAP
F4
9C
F4
00
38
44
38
ENDCHAR
STARTCHAR U+BA4E
ENCODING 47694
SWIDTH 1142 0
DWIDTH 8 0
BBX 6 7 0 0
BITMAP
F4
9C
F4
00
7C
10
6C
ENDCHAR
STARTCHAR U+BA53
ENCODING 47699
SWIDTH 1142 0
DWIDTH 8 0
BBX 6 7 0 0
BITMAP
F4
9C
F4
10
7C
28
10
ENDCHAR
STARTCHAR U+BA54
ENCODING 47700
SWIDTH 1142 0
DWIDTH 8 0
BBX 7 7 0 0
BITMAP
EA
AA
BA
AA
EA
0A
0A
ENDCHAR
STARTCHAR U+BA55
ENCODING 47701
SWIDTH 1142 0
DWIDTH 8 0
BBX 7 7 0 0
BITMAP
EA
BA
EA
00
7E
02
02
ENDCHAR
STARTCHAR U+BA58
ENCODING 47704
SWIDTH 1142 0
DWIDTH 8 0
BBX 7 7 0 0
BITMAP
EA
BA
EA
0A
40
40
7E
ENDCHAR
STARTCHAR U+BA5C
ENCODING 47708
SWIDTH 1142 0
DWIDTH 8 0
BBX 7 7 0 0
BITMAP
EA
BA
EA
00
7C
18
3E
ENDCHAR
STARTCHAR U+BA64
ENCODING 47716
SWIDTH 1142 0
DWIDTH 8 0
BBX 7 7 0 0
BITMAP
EA
BA
EA
00
7E
42
7E
ENDCHAR
STARTCHAR U+BA65
ENCODING 47717
SWIDTH 1142 0
DWIDTH 8 0
BBX 7 7 0 0
BITMAP
EA
BA
EA
00
42
7E
7E
ENDCHAR
STARTCHAR U+BA67
ENCODING 47719
SWIDTH 1142 0
DWIDTH 8 0
BBX 7 7 0 0
BITMAP
EA
BA
EA
00
08
14
62
ENDCHAR
STARTCHAR U+BA68
ENCODING 47720
SWIDTH 1142 0
DWIDTH 8 0
BBX 7 7 0 0
BITMAP
EA
BA
EA
00
14
2C
52
ENDCHAR
STARTCHAR U+BA69
ENCODING 47721
SWIDTH 1142 0
DWIDTH 8 0
BBX 7 7 0 0
BITMAP
EA
BA
EA
00
3C
42
3C
ENDCHAR
STARTCHAR U+BA70
ENCODING 47728
SWIDTH 1142 0
DWIDTH 8 0
BBX 6 7 0 0
BITMAP
F4
9C
94
9C
F4
04
04
ENDCHAR
STARTCHAR U+BA71
ENCODING 47729
SWIDTH 1142 0
DWIDTH 8 0
BBX 6 7 0 0
BITMAP
EC
A4
EC
04
7C
04
04
ENDCHAR
STARTCHAR U+BA74
ENCODING 47732
SWIDTH 1142 0
DWIDTH 8 0
BBX 6 7 0 0
BITMAP
EC
A4
EC
04
40
40
7C
ENDCHAR
STARTCHAR U+BA78
ENCODING 47736
SWIDTH 1142 0
DWIDTH 8 0
BBX 6 7 0 0
BITMAP
EC
A4
EC
04
78
10
3C
ENDCHAR
STARTCHAR U+BA83
ENCODING 47747
SWIDTH 1142 0
DWIDTH 8 0
BBX 6 7 0 0
BITMAP
EC
A4
EC
04
10
28
44
ENDCHAR
STARTCHAR U+BA84
ENCODING 47748
SWIDTH 1142 0
DWIDTH 8 0
BBX 6 7 0 0
BITMAP
EC
A4
EC
04
14
28
54
ENDCHAR
STARTCHAR U+BA85
ENCODING 47749
SWIDTH 1142 0
DWIDTH 8 0
BBX 6 7 0 0
BITMAP
EC
A4
EC
04
38
44
38
ENDCHAR
STARTCHAR U+BA87
ENCODING 47751
SWIDTH 1142 0
DWIDTH 8 0
BBX 6 7 0 0
BITMAP
EC
A4
EC
14
7C
10
6C
ENDCHAR
STARTCHAR U+BA8C
ENCODING 47756
SWIDTH 1142 0
DWIDTH 8 0
BBX 7 7 0 0
BITMAP
EA
BA
AA
BA
EA
0A
0A
ENDCHAR
STARTCHAR U+BAA8
ENCODING 47784
SWIDTH 1142 0
DWIDTH 8 0
BBX 7 6 0 1
BITMAP
7C
44
44
7C
10
FE
ENDCHAR
STARTCHAR U+BAA9
ENCODING 47785
SWIDTH 1142 0
DWIDTH 8 0
BBX 7 7 0 0
BITMAP
7C
44
7C
10
FE
7C
04
ENDCHAR
STARTCHAR U+BAAB
ENCODING 47787
SWIDTH 1142 0
DWIDTH 8 0
BBX 7 7 0 0
BITMAP
7C
44
7C
10
FE
68
34
ENDCHAR
STARTCHAR U+BAAC
ENCODING 47788
SWIDTH 1142 0
DWIDTH 8 0
BBX 7 7 0 0
BITMAP
7C
44
7C
10
FE
40
7C
ENDCHAR
STARTCHAR U+BAB0
ENCODING 47792
SWIDTH 1142 0
DWIDTH 8 0
BBX 7 7 0 0
BITMAP
7C
44
7C
10
FE
70
1C
ENDCHAR
STARTCHAR U+BAB2
ENCODING 47794
SWIDTH 1142 0
DWIDTH 8 0
BBX 7 7 0 0
BITMAP
7C
44
7C
10
FE
6C
3C
ENDCHAR
STARTCHAR U+BAB8
ENCODING 47800
SWIDTH 1142 0
DWIDTH 8 0
BBX 7 7 0 0
BITMAP
7C
44
7C
10
FE
44
7C
ENDCHAR
STARTCHAR U+BAB9
ENCODING 47801
SWIDTH 1142 0
DWIDTH 8 0
BBX 7 7 0 0
BITMAP
7C
7C
10
FE
44
7C
7C
ENDCHAR
STARTCHAR U+BABB
ENCODING 47803
SWIDTH 1142 0
DWIDTH 8 0
BBX 7 7 0 0
BITMAP
7C
44
7C
10
FE
10
6C
ENDCHAR
STARTCHAR U+BABD
ENCODING 47805
SWIDTH 1142 0
DWIDTH 8 0
BBX 7 7 0 0
BITMAP
7C
44
7C
10
FE
44
38
ENDCHAR
STARTCHAR U+BAC4
ENCODING 47812
SWIDTH 1142 0
DWIDTH 8 0
BBX 7 7 0 0
BITMAP
F4
94
94
F6
44
F4
04
ENDCHAR
STARTCHAR U+BAC8
ENCODING 47816
SWIDTH 1142 0
DWIDTH 8 0
BBX 7 7 0 0
BITMAP
F4
94
F6
44
F4
40
7C
ENDCHAR
STARTCHAR U+BAD8
ENCODING 47832
SWIDTH 1142 0
DWIDTH 8 0
BBX 7 7 0 0
BITMAP
F4
94
F6
44
F4
28
54
ENDCHAR
STARTCHAR U+BAD9
ENCODING 47833
SWIDTH 1142 0
DWIDTH 8 0
BBX 7 7 0 0
BITMAP
F4
94
F6
44
FC
44
38
ENDCHAR
STARTCHAR U+BAFC
ENCODING 47868
SWIDTH 1142 0
DWIDTH 8 0
BBX 6 7 0 0
BITMAP
F4
94
94
F4
44
F4
04
ENDCHAR
STARTCHAR U+BB00
ENCODING 47872
SWIDTH 1142 0
DWIDTH 8 0
BBX 6 7 0 0
BITMAP
F4
94
F4
44
F4
40
7C
ENDCHAR
STARTCHAR U+BB04
ENCODING 47876
SWIDTH 1142 0
DWIDTH 8 0
BBX 6 7 0 0
BITMAP
F4
94
F4
44
F4
70
1C
ENDCHAR
STARTCHAR U+BB0D
ENCODING 47885
SWIDTH 1142 0
DWIDTH 8 0
BBX 6 7 0 0
BITMAP
F4
F4
44
F4
44
7C
7C
ENDCHAR
STARTCHAR U+BB0F
ENCODING 47887
SWIDTH 1142 0
DWIDTH 8 0
BBX 6 7 0 0
BITMAP
F4
94
F4
44
F4
10
6C
ENDCHAR
STARTCHAR U+BB11
ENCODING 47889
SWIDTH 1142 0
DWIDTH 8 0
BBX 6 7 0 0
BITMAP
F4
94
F4
44
FC
44
38
ENDCHAR
STARTCHAR U+BB18
ENCODING 47896
SWIDTH 1142 0
DWIDTH 8 0
BBX 7 6 0 1
BITMAP
7C
44
44
7C
28
FE
ENDCHAR
STARTCHAR U+BB1C
ENCODING 47900
SWIDTH 1142 0
DWIDTH 8 0
BBX 7 7 0 0
BITMAP
7C
44
7C
28
FE
40
7C
ENDCHAR
STARTCHAR U+BB20
ENCODING 47904
SWIDTH 1142 0
DWIDTH 8 0
BBX 7 7 0 0
BITMAP
7C
44
7C
28
FE
70
1C
ENDCHAR
STARTCHAR U+BB29
ENCODING 47913
SWIDTH 1142 0
DWIDTH 8 0
BBX 7 7 0 0
BITMAP
7C
7C
28
FE
44
7C
7C
ENDCHAR
STARTCHAR U+BB2B
ENCODING 47915
SWIDTH 1142 0
DWIDTH 8 0
BBX 7 7 0 0
BITMAP
7C
44
7C
28
FE
10
6C
ENDCHAR
STARTCHAR U+BB34
ENCODING 47924
SWIDTH 1142 0
DWIDTH 8 0
BBX 7 7 0 0
BITMAP
7C
44
7C
00
FE
10
10
ENDCHAR
STARTCHAR U+BB35
ENCODING 47925
SWIDTH 1142 0
DWIDTH 8 0
BBX 7 7 0 0
BITMAP
7C
44
7C
FE
10
7C
04
ENDCHAR
STARTCHAR U+BB36
ENCODING 47926
SWIDTH 1142 0
DWIDTH 8 0
BBX 7 7 0 0
BITMAP
7C
44
7C
FE
10
7C
14
ENDCHAR
STARTCHAR U+BB38
ENCODING 47928
SWIDTH 1142 0
DWIDTH 8 0
BBX 7 7 0 0
BITMAP
7C
44
7C
FE
10
40
7C
ENDCHAR
STARTCHAR U+BB3B
ENCODING 47931
SWIDTH 1142 0
DWIDTH 8 0
BBX 7 7 0 0
BITMAP
7C
44
FE
10
7C
40
7C
ENDCHAR
STARTCHAR U+BB3C
ENCODING 47932
SWIDTH 1142 0
DWIDTH 8 0
BBX 7 7 0 0
BITMAP
7C
44
7C
FE
10
70
1C
ENDCHAR
STARTCHAR U+BB3D
ENCODING 47933
SWIDTH 1142 0
DWIDTH 8 0
BBX 7 7 0 0
BITMAP
7C
44
7C
FE
10
CC
64
ENDCHAR
STARTCHAR U+BB3E
ENCODING 47934
SWIDTH 1142 0
DWIDTH 8 0
BBX 7 7 0 0
BITMAP
7C
44
7C
FE
10
CC
6C
ENDCHAR
STARTCHAR U+BB44
ENCODING 47940
SWIDTH 1142 0
DWIDTH 8 0
BBX 7 7 0 0
BITMAP
7C
44
FE
10
7C
44
7C
ENDCHAR
STARTCHAR U+BB45
ENCODING 47941
SWIDTH 1142 0
DWIDTH 8 0
BBX 7 7 0 0
BITMAP
7C
44
FE
10
44
7C
7C
ENDCHAR
STARTCHAR U+BB47
ENCODING 47943
SWIDTH 1142 0
DWIDTH 8 0
BBX 7 7 0 0
BITMAP
7C
44
7C
FE
10
10
6C
ENDCHAR
STARTCHAR U+BB49
ENCODING 47945
SWIDTH 1142 0
DWIDTH 8 0
BBX 7 7 0 0
BITMAP
7C
44
FE
10
38
44
38
ENDCHAR
STARTCHAR U+BB4D
ENCODING 47949
SWIDTH 1142 0
DWIDTH 8 0
BBX 7 7 0 0
BITMAP
7C
44
FE
10
7C
78
7C
ENDCHAR
STARTCHAR U+BB4F
ENCODING 47951
SWIDTH 1142 0
DWIDTH 8 0
BBX 7 7 0 0
BITMAP
7C
44
FE
10
7C
28
10
ENDCHAR
STARTCHAR U+BB50
ENCODING 47952
SWIDTH 1142 0
DWIDTH 8 0
BBX 6 7 0 0
BITMAP
F4
94
F4
04
F4
4C
44
ENDCHAR
STARTCHAR U+BB54
ENCODING 47956
SWIDTH 1142 0
DWIDTH 8 0
BBX 6 7 0 0
BITMAP
E4
A4
F4
2C
40
40
7C
ENDCHAR
STARTCHAR U+BB58
ENCODING 47960
SWIDTH 1142 0
DWIDTH 8 0
BBX 6 7 0 0
BITMAP
E4
A4
F4
2C
78
10
3C
ENDCHAR
STARTCHAR U+BB61
ENCODING 47969
SWIDTH 1142 0
DWIDTH 8 0
BBX 6 7 0 0
BITMAP
E4
A4
F4
2C
44
7C
7C
ENDCHAR
STARTCHAR U+BB63
ENCODING 47971
SWIDTH 1142 0
DWIDTH 8 0
BBX 6 7 0 0
BITMAP
E4
A4
F4
2C
10
28
44
ENDCHAR
STARTCHAR U+BB6C
ENCODING 47980
SWIDTH 1142 0
DWIDTH 8 0
BBX 7 7 0 0
BITMAP
EA
AA
EA
0A
EA
5A
4A
ENDCHAR
STARTCHAR U+BB88
ENCODING 48008
SWIDTH 1142 0
DWIDTH 8 0
BBX 6 7 0 0
BITMAP
E4
A4
E4
04
F4
44
44
ENDCHAR
STARTCHAR U+BB8C
ENCODING 48012
SWIDTH 1142 0
DWIDTH 8 0
BBX 6 7 0 0
BITMAP
E4
A4
F4
24
40
40
7C
ENDCHAR
STARTCHAR U+BB90
ENCODING 48016
SWIDTH 1142 0
DWIDTH 8 0
BBX 6 7 0 0
BITMAP
E4
A4
F4
24
78
10
3C
ENDCHAR
STARTCHAR U+BBA4
ENCODING 48036
SWIDTH 1142 0
DWIDTH 8 0
BBX 7 7 0 0
BITMAP
7C
44
7C
00
FE
28
28
ENDCHAR
STARTCHAR U+BBA8
ENCODING 48040
SWIDTH 1142 0
DWIDTH 8 0
BBX 7 7 0 0
BITMAP
7C
44
7C
FE
28
40
7C
ENDCHAR
STARTCHAR U+BBAC
ENCODING 48044
SWIDTH 1142 0
DWIDTH 8 0
BBX 7 7 0 0
BITMAP
7C
44
7C
FE
28
70
1C
ENDCHAR
STARTCHAR U+BBB4
ENCODING 48052
SWIDTH 1142 0
DWIDTH 8 0
BBX 7 7 0 0
BITMAP
7C
44
FE
28
7C
44
7C
ENDCHAR
STARTCHAR U+BBB7
ENCODING 48055
SWIDTH 1142 0
DWIDTH 8 0
BBX 7 7 0 0
BITMAP
7C
44
FE
28
10
28
44
ENDCHAR
STARTCHAR U+BBC0
ENCODING 48064
SWIDTH 1142 0
DWIDTH 8 0
BBX 7 6 0 1
BITMAP
7C
44
44
7C
00
FE
ENDCHAR
STARTCHAR U+BBC4
ENCODING 48068
SWIDTH 1142 0
DWIDTH 8 0
BBX 7 7 0 0
BITMAP
7C
44
7C
FE
00
40
7C
ENDCHAR
STARTCHAR U+BBC8
ENCODING 48072
SWIDTH 1142 0
DWIDTH 8 0
BBX 7 7 0 0
BITMAP
7C
44
7C
FE
78
10
3C
ENDCHAR
STARTCHAR U+BBD0
ENCODING 48080
SWIDTH 1142 0
DWIDTH 8 0
BBX 7 7 0 0
BITMAP
7C
44
7C
FE
7C
44
7C
ENDCHAR
STARTCHAR U+BBD3
ENCODING 48083
SWIDTH 1142 0
DWIDTH 8 0
BBX 7 7 0 0
BITMAP
7C
44
7C
FE
10
28
44
ENDCHAR
STARTCHAR U+BBF8
ENCODING 48120
SWIDTH 1142 0
DWIDTH 8 0
BBX 6 7 0 0
BITMAP
F4
94
94
94
F4
04
04
ENDCHAR
STARTCHAR U+BBF9
ENCODING 48121
SWIDTH 1142 0
DWIDTH 8 0
BBX 6 7 0 0
BITMAP
F4
94
F4
00
7C
04
04
ENDCHAR
STARTCHAR U+BBFC
ENCODING 48124
SWIDTH 1142 0
DWIDTH 8 0
BBX 6 7 0 0
BITMAP
F4
94
F4
04
40
40
7C
ENDCHAR
STARTCHAR U+BBFF
ENCODING 48127
SWIDTH 1142 0
DWIDTH 8 0
BBX 6 7 0 0
BITMAP
F4
94
F4
00
7C
40
7C
ENDCHAR
STARTCHAR U+BC00
ENCODING 48128
SWIDTH 1142 0
DWIDTH 8 0
BBX 6 7 0 0
BITMAP
F4
94
F4
00
78
10
3C
ENDCHAR
STARTCHAR U+BC02
ENCODING 48130
SWIDTH 1142 0
DWIDTH 8 0
BBX 6 7 0 0
BITMAP
F4
94
F4
00
DC
54
7C
ENDCHAR
STARTCHAR U+BC08
ENCODING 48136
SWIDTH 1142 0
DWIDTH 8 0
BBX 6 7 0 0
BITMAP
F4
94
F4
00
7C
44
7C
ENDCHAR
STARTCHAR U+BC09
ENCODING 48137
SWIDTH 1142 0
DWIDTH 8 0
BBX 6 7 0 0
BITMAP
F4
94
F4
00
44
7C
7C
ENDCHAR
STARTCHAR U+BC0B
ENCODING 48139
SWIDTH 1142 0
DWIDTH 8 0
BBX 6 7 0 0
BITMAP
F4
94
F4
04
10
28
44
ENDCHAR
STARTCHAR U+BC0C
ENCODING 48140
SWIDTH 1142 0
DWIDTH 8 0
BBX 6 7 0 0
BITMAP
F4
94
F4
00
14
28
54
ENDCHAR
STARTCHAR U+BC0D
ENCODING 48141
SWIDTH 1142 0
DWIDTH 8 0
BBX 6 7 0 0
BITMAP
F4
94
F4
00
38
44
38
ENDCHAR
STARTCHAR U+BC0F
ENCODING 48143
SWIDTH 1142 0
DWIDTH 8 0
BBX 6 7 0 0
BITMAP
F4
94
F4
10
7C
10
6C
ENDCHAR
STARTCHAR U+BC11
ENCODING 48145
SWIDTH 1142 0
DWIDTH 8 0
BBX 6 7 0 0
BITMAP
F4
94
F4
00
7C
78
7C
ENDCHAR
STARTCHAR U+BC14
ENCODING 48148
SWIDTH 1142 0
DWIDTH 8 0
BBX 7 7 0 0
BITMAP
94
F4
96
94
F4
04
04
ENDCHAR
STARTCHAR U+BC15
ENCODING 48149
SWIDTH 1142 0
DWIDTH 8 0
BBX 7 7 0 0
BITMAP
94
F6
F4
00
7C
04
04
ENDCHAR
STARTCHAR U+BC16
ENCODING 48150
SWIDTH 1142 0
DWIDTH 8 0
BBX 7 7 0 0
BITMAP
94
F6
F4
00
7C
14
14
ENDCHAR
STARTCHAR U+BC17
ENCODING 48151
SWIDTH 1142 0
DWIDTH 8 0
BBX 7 7 0 0
BITMAP
94
F6
F4
00
E8
28
34
ENDCHAR
STARTCHAR U+BC18
ENCODING 48152
SWIDTH 1142 0
DWIDTH 8 0
BBX 7 7 0 0
BITMAP
94
F6
F4
04
40
40
7C
ENDCHAR
STARTCHAR U+BC1B
ENCODING 48155
SWIDTH 1142 0
DWIDTH 8 0
BBX 7 7 0 0
BITMAP
94
F6
F4
00
7C
40
7C
ENDCHAR
STARTCHAR U+BC1C
ENCODING 48156
SWIDTH 1142 0
DWIDTH 8 0
BBX 7 7 0 0
BITMAP
94
F6
F4
00
78
10
3C
ENDCHAR
STARTCHAR U+BC1D
ENCODING 48157
SWIDTH 1142 0
DWIDTH 8 0
BBX 7 7 0 0
BITMAP
94
F6
F4
00
DC
44
64
ENDCHAR
STARTCHAR U+BC1E
ENCODING 48158
SWIDTH 1142 0
DWIDTH 8 0
BBX 7 7 0 0
BITMAP
94
F6
F4
00
DC
54
7C
ENDCHAR
STARTCHAR U+BC1F
ENCODING 48159
SWIDTH 1142 0
DWIDTH 8 0
BBX 7 7 0 0
BITMAP
94
F6
F4
00
D4
5C
7C
ENDCHAR
STARTCHAR U+BC24
ENCODING 48164
SWIDTH 1142 0
DWIDTH 8 0
BBX 7 7 0 0
BITMAP
94
F6
F4
00
7C
44
7C
ENDCHAR
STARTCHAR U+BC25
ENCODING 48165
SWIDTH 1142 0
DWIDTH 8 0
BBX 7 7 0 0
BITMAP
94
F6
F4
00
44
7C
7C
ENDCHAR
STARTCHAR U+BC27
ENCODING 48167
SWIDTH 1142 0
DWIDTH 8 0
BBX 7 7 0 0
BITMAP
94
F6
F4
04
10
28
44
ENDCHAR
STARTCHAR U+BC29
ENCODING 48169
SWIDTH 1142 0
DWIDTH 8 0
BBX 7 7 0 0
BITMAP
94
F6
F4
00
38
44
38
ENDCHAR
STARTCHAR U+BC2D
ENCODING 48173
SWIDTH 1142 0
DWIDTH 8 0
BBX 7 7 0 0
BITMAP
94
F6
F4
00
7C
78
7C
ENDCHAR
STARTCHAR U+BC30
ENCODING 48176
SWIDTH 1142 0
DWIDTH 8 0
BBX 7 7 0 0
BITMAP
AA
EA
AE
AA
EA
0A
0A
ENDCHAR
STARTCHAR U+BC31
ENCODING 48177
SWIDTH 1142 0
DWIDTH 8 0
BBX 7 7 0 0
BITMAP
AA
EE
EA
00
7E
02
02
ENDCHAR
STARTCHAR U+BC34
ENCODING 48180
SWIDTH 1142 0
DWIDTH 8 0
BBX 7 7 0 0
BITMAP
AA
EE
EA
0A
40
40
7E
ENDCHAR
STARTCHAR U+BC38
ENCODING 48184
SWIDTH 1142 0
DWIDTH 8 0
BBX 7 7 0 0
BITMAP
AA
EE
EA
00
7C
18
3E
ENDCHAR
STARTCHAR U+BC40
ENCODING 48192
SWIDTH 1142 0
DWIDTH 8 0
BBX 7 7 0 0
BITMAP
AA
EE
EA
00
7E
42
7E
ENDCHAR
STARTCHAR U+BC41
ENCODING 48193
SWIDTH 1142 0
DWIDTH 8 0
BBX 7 7 0 0
BITMAP
AA
EE
EA
00
42
7E
7E
ENDCHAR
STARTCHAR U+BC43
ENCODING 48195
SWIDTH 1142 0
DWIDTH 8 0
BBX 7 7 0 0
BITMAP
AA
EE
EA
00
08
14
62
ENDCHAR
STARTCHAR U+BC44
ENCODING 48196
SWIDTH 1142 0
DWIDTH 8 0
BBX 7 7 0 0
BITMAP
AA
EE
EA
00
14
2C
52
ENDCHAR
STARTCHAR U+BC45
ENCODING 48197
SWIDTH 1142 0
DWIDTH 8 0
BBX 7 7 0 0
BITMAP
AA
EE
EA
00
3C
42
3C
ENDCHAR
STARTCHAR U+BC49
ENCODING 48201
SWIDTH 1142 0
DWIDTH 8 0
BBX 7 7 0 0
BITMAP
AA
EE
EA
00
7E
7C
7E
ENDCHAR
STARTCHAR U+BC4C
ENCODING 48204
SWIDTH 1142 0
DWIDTH 8 0
BBX 7 7 0 0
BITMAP
94
F6
94
96
F4
04
04
ENDCHAR
STARTCHAR U+BC4D
ENCODING 48205
SWIDTH 1142 0
DWIDTH 8 0
BBX 7 7 0 0
BITMAP
A6
E4
E6
04
7C
04
04
ENDCHAR
STARTCHAR U+BC50
ENCODING 48208
SWIDTH 1142 0
DWIDTH 8 0
BBX 7 7 0 0
BITMAP
A6
E4
E6
04
40
40
7C
ENDCHAR
STARTCHAR U+BC5D
ENCODING 48221
SWIDTH 1142 0
DWIDTH 8 0
BBX 7 7 0 0
BITMAP
A6
E4
E6
04
44
7C
7C
ENDCHAR
STARTCHAR U+BC84
ENCODING 48260
SWIDTH 1142 0
DWIDTH 8 0
BBX 6 7 0 0
BITMAP
94
F4
9C
94
F4
04
04
ENDCHAR
STARTCHAR U+BC85
ENCODING 48261
SWIDTH 1142 0
DWIDTH 8 0
BBX 6 7 0 0
BITMAP
94
FC
F4
00
7C
04
04
ENDCHAR
STARTCHAR U+BC88
ENCODING 48264
SWIDTH 1142 0
DWIDTH 8 0
BBX 6 7 0 0
BITMAP
94
FC
F4
04
40
40
7C
ENDCHAR
STARTCHAR U+BC8B
ENCODING 48267
SWIDTH 1142 0
DWIDTH 8 0
BBX 6 7 0 0
BITMAP
94
FC
F4
00
7C
40
7C
ENDCHAR
STARTCHAR U+BC8C
ENCODING 48268
SWIDTH 1142 0
DWIDTH 8 0
BBX 6 7 0 0
BITMAP
94
FC
F4
00
78
10
3C
ENDCHAR
STARTCHAR U+BC8E
ENCODING 48270
SWIDTH 1142 0
DWIDTH 8 0
BBX 6 7 0 0
BITMAP
94
FC
F4
00
DC
54
7C
ENDCHAR
STARTCHAR U+BC94
ENCODING 48276
SWIDTH 1142 0
DWIDTH 8 0
BBX 6 7 0 0
BITMAP
94
FC
F4
00
7C
44
7C
ENDCHAR
STARTCHAR U+BC95
ENCODING 48277
SWIDTH 1142 0
DWIDTH 8 0
BBX 6 7 0 0
BITMAP
94
FC
F4
00
44
7C
7C
ENDCHAR
STARTCHAR U+BC97
ENCODING 48279
SWIDTH 1142 0
DWIDTH 8 0
BBX 6 7 0 0
BITMAP
94
FC
F4
04
10
28
44
ENDCHAR
STARTCHAR U+BC99
ENCODING 48281
SWIDTH 1142 0
DWIDTH 8 0
BBX 6 7 0 0
BITMAP
94
FC
F4
00
38
44
38
ENDCHAR
STARTCHAR U+BC9A
ENCODING 48282
SWIDTH 1142 0
DWIDTH 8 0
BBX 6 7 0 0
BITMAP
94
FC
F4
00
7C
10
6C
ENDCHAR
STARTCHAR U+BCA0
ENCODING 48288
SWIDTH 1142 0
DWIDTH 8 0
BBX 7 7 0 0
BITMAP
AA
EA
BA
AA
EA
0A
0A
ENDCHAR
STARTCHAR U+BCA1
ENCODING 48289
SWIDTH 1142 0
DWIDTH 8 0
BBX 7 7 0 0
BITMAP
AA
FA
EA
00
7E
02
02
ENDCHAR
STARTCHAR U+BCA4
ENCODING 48292
SWIDTH 1142 0
DWIDTH 8 0
BBX 7 7 0 0
BITMAP
AA
FA
EA
00
40
40
7E
ENDCHAR
STARTCHAR U+BCA7
ENCODING 48295
SWIDTH 1142 0
DWIDTH 8 0
BBX 7 7 0 0
BITMAP
AA
FA
EA
00
7E
40
7E
ENDCHAR
STARTCHAR U+BCA8
ENCODING 48296
SWIDTH 1142 0
DWIDTH 8 0
BBX 7 7 0 0
BITMAP
AA
FA
EA
00
7C
18
3E
ENDCHAR
STARTCHAR U+BCB0
ENCODING 48304
SWIDTH 1142 0
DWIDTH 8 0
BBX 7 7 0 0
BITMAP
AA
FA
EA
00
7E
42
7E
ENDCHAR
STARTCHAR U+BCB1
ENCODING 48305
SWIDTH 1142 0
DWIDTH 8 0
BBX 7 7 0 0
BITMAP
AA
FA
EA
00
42
7E
7E
ENDCHAR
STARTCHAR U+BCB3
ENCODING 48307
SWIDTH 1142 0
DWIDTH 8 0
BBX 7 7 0 0
BITMAP
AA
FA
EA
00
08
14
62
ENDCHAR
STARTCHAR U+BCB4
ENCODING 48308
SWIDTH 1142 0
DWIDTH 8 0
BBX 7 7 0 0
BITMAP
AA
FA
EA
00
14
2C
52
ENDCHAR
STARTCHAR U+BCB5
ENCODING 48309
SWIDTH 1142 0
DWIDTH 8 0
BBX 7 7 0 0
BITMAP
AA
FA
EA
00
3C
42
3C
ENDCHAR
STARTCHAR U+BCBC
ENCODING 48316
SWIDTH 1142 0
DWIDTH 8 0
BBX 6 7 0 0
BITMAP
94
9C
F4
9C
F4
04
04
ENDCHAR
STARTCHAR U+BCBD
ENCODING 48317
SWIDTH 1142 0
DWIDTH 8 0
BBX 6 7 0 0
BITMAP
AC
E4
EC
04
7C
04
04
ENDCHAR
STARTCHAR U+BCC0
ENCODING 48320
SWIDTH 1142 0
DWIDTH 8 0
BBX 6 7 0 0
BITMAP
94
FC
F4
04
40
40
7C
ENDCHAR
STARTCHAR U+BCC4
ENCODING 48324
SWIDTH 1142 0
DWIDTH 8 0
BBX 6 7 0 0
BITMAP
94
FC
F4
00
78
10
3C
ENDCHAR
STARTCHAR U+BCCD
ENCODING 48333
SWIDTH 1142 0
DWIDTH 8 0
BBX 6 7 0 0
BITMAP
94
FC
F4
00
44
7C
7C
ENDCHAR
STARTCHAR U+BCCF
ENCODING 48335
SWIDTH 1142 0
DWIDTH 8 0
BBX 6 7 0 0
BITMAP
94
FC
F4
00
10
28
44
ENDCHAR
STARTCHAR U+BCD0
ENCODING 48336
SWIDTH 1142 0
DWIDTH 8 0
BBX 6 7 0 0
BITMAP
94
FC
F4
00
14
28
54
ENDCHAR
STARTCHAR U+BCD1
ENCODING 48337
SWIDTH 1142 0
DWIDTH 8 0
BBX 6 7 0 0
BITMAP
94
FC
F4
00
38
44
38
ENDCHAR
STARTCHAR U+BCD5
ENCODING 48341
SWIDTH 1142 0
DWIDTH 8 0
BBX 6 7 0 0
BITMAP
AC
E4
EC
04
7C
78
7C
ENDCHAR
STARTCHAR U+BCD8
ENCODING 48344
SWIDTH 1142 0
DWIDTH 8 0
BBX 7 7 0 0
BITMAP
AA
FA
AA
BA
EA
0A
0A
ENDCHAR
STARTCHAR U+BCDC
ENCODING 48348
SWIDTH 1142 0
DWIDTH 8 0
BBX 7 7 0 0
BITMAP
BA
EA
FA
0A
40
40
7E
ENDCHAR
STARTCHAR U+BCF4
ENCODING 48372
SWIDTH 1142 0
DWIDTH 8 0
BBX 7 6 0 1
BITMAP
44
7C
44
7C
10
FE
ENDCHAR
STARTCHAR U+BCF5
ENCODING 48373
SWIDTH 1142 0
DWIDTH 8 0
BBX 7 7 0 0
BITMAP
44
7C
7C
10
FE
7C
04
ENDCHAR
STARTCHAR U+BCF6
ENCODING 48374
SWIDTH 1142 0
DWIDTH 8 0
BBX 7 7 0 0
BITMAP
44
7C
7C
10
FE
7C
14
ENDCHAR
STARTCHAR U+BCF8
ENCODING 48376
SWIDTH 1142 0
DWIDTH 8 0
BBX 7 7 0 0
BITMAP
44
7C
7C
10
FE
40
7C
ENDCHAR
STARTCHAR U+BCFC
ENCODING 48380
SWIDTH 1142 0
DWIDTH 8 0
BBX 7 7 0 0
BITMAP
44
7C
7C
10
FE
70
1C
ENDCHAR
STARTCHAR U+BD04
ENCODING 48388
SWIDTH 1142 0
DWIDTH 8 0
BBX 7 7 0 0
BITMAP
44
7C
7C
10
FE
44
7C
ENDCHAR
STARTCHAR U+BD05
ENCODING 48389
SWIDTH 1142 0
DWIDTH 8 0
BBX 7 7 0 0
BITMAP
44
7C
10
FE
44
7C
7C
ENDCHAR
STARTCHAR U+BD07
ENCODING 48391
SWIDTH 1142 0
DWIDTH 8 0
BBX 7 7 0 0
BITMAP
44
7C
7C
10
FE
10
6C
ENDCHAR
STARTCHAR U+BD09
ENCODING 48393
SWIDTH 1142 0
DWIDTH 8 0
BBX 7 7 0 0
BITMAP
44
7C
7C
10
FE
44
38
ENDCHAR
STARTCHAR U+BD10
ENCODING 48400
SWIDTH 1142 0
DWIDTH 8 0
BBX 7 7 0 0
BITMAP
94
F4
94
F6
44
F4
04
ENDCHAR
STARTCHAR U+BD14
ENCODING 48404
SWIDTH 1142 0
DWIDTH 8 0
BBX 7 7 0 0
BITMAP
94
F4
F6
44
F4
40
7C
ENDCHAR
STARTCHAR U+BD24
ENCODING 48420
SWIDTH 1142 0
DWIDTH 8 0
BBX 7 7 0 0
BITMAP
94
F4
F6
24
FC
28
54
ENDCHAR
STARTCHAR U+BD2C
ENCODING 48428
SWIDTH 1142 0
DWIDTH 8 0
BBX 7 7 0 0
BITMAP
AA
EA
EA
4E
4A
FA
0A
ENDCHAR
STARTCHAR U+BD40
ENCODING 48448
SWIDTH 1142 0
DWIDTH 8 0
BBX 7 7 0 0
BITMAP
AA
EA
EE
4A
FA
14
6A
ENDCHAR
STARTCHAR U+BD48
ENCODING 48456
SWIDTH 1142 0
DWIDTH 8 0
BBX 6 7 0 0
BITMAP
94
F4
94
F4
44
F4
04
ENDCHAR
STARTCHAR U+BD49
ENCODING 48457
SWIDTH 1142 0
DWIDTH 8 0
BBX 6 7 0 0
BITMAP
94
F4
F4
44
F4
7C
04
ENDCHAR
STARTCHAR U+BD4C
ENCODING 48460
SWIDTH 1142 0
DWIDTH 8 0
BBX 6 7 0 0
BITMAP
94
F4
F4
44
F4
40
7C
ENDCHAR
STARTCHAR U+BD50
ENCODING 48464
SWIDTH 1142 0
DWIDTH 8 0
BBX 6 7 0 0
BITMAP
94
F4
F4
44
F4
70
1C
ENDCHAR
STARTCHAR U+BD58
ENCODING 48472
SWIDTH 1142 0
DWIDTH 8 0
BBX 6 7 0 0
BITMAP
94
F4
F4
44
FC
44
7C
ENDCHAR
STARTCHAR U+BD59
ENCODING 48473
SWIDTH 1142 0
DWIDTH 8 0
BBX 6 7 0 0
BITMAP
94
F4
44
F4
44
7C
7C
ENDCHAR
STARTCHAR U+BD64
ENCODING 48484
SWIDTH 1142 0
DWIDTH 8 0
BBX 7 6 0 1
BITMAP
44
7C
44
7C
28
FE
ENDCHAR
STARTCHAR U+BD68
ENCODING 48488
SWIDTH 1142 0
DWIDTH 8 0
BBX 7 7 0 0
BITMAP
44
7C
7C
28
FE
40
7C
ENDCHAR
STARTCHAR U+BD80
ENCODING 48512
SWIDTH 1142 0
DWIDTH 8 0
BBX 7 7 0 0
BITMAP
44
7C
7C
00
FE
10
10
ENDCHAR
STARTCHAR U+BD81
ENCODING 48513
SWIDTH 1142 0
DWIDTH 8 0
BBX 7 7 0 0
BITMAP
44
7C
7C
FE
10
7C
04
ENDCHAR
STARTCHAR U+BD84
ENCODING 48516
SWIDTH 1142 0
DWIDTH 8 0
BBX 7 7 0 0
BITMAP
44
7C
7C
FE
10
40
7C
ENDCHAR
STARTCHAR U+BD87
ENCODING 48519
SWIDTH 1142 0
DWIDTH 8 0
BBX 7 7 0 0
BITMAP
44
7C
FE
10
7C
40
7C
ENDCHAR
STARTCHAR U+BD88
ENCODING 48520
SWIDTH 1142 0
DWIDTH 8 0
BBX 7 7 0 0
BITMAP
44
7C
7C
FE
10
70
1C
ENDCHAR
STARTCHAR U+BD89
ENCODING 48521
SWIDTH 1142 0
DWIDTH 8 0
BBX 7 7 0 0
BITMAP
44
7C
7C
FE
10
CC
64
ENDCHAR
STARTCHAR U+BD8A
ENCODING 48522
SWIDTH 1142 0
DWIDTH 8 0
BBX 7 7 0 0
BITMAP
44
7C
7C
FE
10
CC
6C
ENDCHAR
STARTCHAR U+BD90
ENCODING 48528
SWIDTH 1142 0
DWIDTH 8 0
BBX 7 7 0 0
BITMAP
44
7C
FE
10
7C
44
7C
ENDCHAR
STARTCHAR U+BD91
ENCODING 48529
SWIDTH 1142 0
DWIDTH 8 0
BBX 7 7 0 0
BITMAP
44
7C
FE
10
44
7C
7C
ENDCHAR
STARTCHAR U+BD93
ENCODING 48531
SWIDTH 1142 0
DWIDTH 8 0
BBX 7 7 0 0
BITMAP
44
7C
7C
FE
10
10
6C
ENDCHAR
STARTCHAR U+BD95
ENCODING 48533
SWIDTH 1142 0
DWIDTH 8 0
BBX 7 7 0 0
BITMAP
44
7C
FE
10
38
44
38
ENDCHAR
STARTCHAR U+BD99
ENCODING 48537
SWIDTH 1142 0
DWIDTH 8 0
BBX 7 7 0 0
BITMAP
44
7C
FE
10
7C
78
7C
ENDCHAR
STARTCHAR U+BD9A
ENCODING 48538
SWIDTH 1142 0
DWIDTH 8 0
BBX 7 7 0 0
BITMAP
44
7C
FE
10
7C
28
7C
ENDCHAR
STARTCHAR U+BD9C
ENCODING 48540
SWIDTH 1142 0
DWIDTH 8 0
BBX 6 7 0 0
BITMAP
94
F4
F4
04
F4
4C
44
ENDCHAR
STARTCHAR U+BDA4
ENCODING 48548
SWIDTH 1142 0
DWIDTH 8 0
BBX 6 7 0 0
BITMAP
A4
EC
A4
F4
24
70
1C
ENDCHAR
STARTCHAR U+BDB0
ENCODING 48560
SWIDTH 1142 0
DWIDTH 8 0
BBX 6 7 0 0
BITMAP
A4
EC
A4
F4
24
28
54
ENDCHAR
STARTCHAR U+BDB8
ENCODING 48568
SWIDTH 1142 0
DWIDTH 8 0
BBX 7 7 0 0
BITMAP
AA
EA
EA
0A
EA
5A
4A
ENDCHAR
STARTCHAR U+BDD4
ENCODING 48596
SWIDTH 1142 0
DWIDTH 8 0
BBX 6 7 0 0
BITMAP
94
F4
F4
04
F4
44
44
ENDCHAR
STARTCHAR U+BDD5
ENCODING 48597
SWIDTH 1142 0
DWIDTH 8 0
BBX 6 7 0 0
BITMAP
A4
E4
A4
F4
24
7C
04
ENDCHAR
STARTCHAR U+BDD8
ENCODING 48600
SWIDTH 1142 0
DWIDTH 8 0
BBX 6 7 0 0
BITMAP
A4
E4
E4
F4
24
40
7C
ENDCHAR
STARTCHAR U+BDDC
ENCODING 48604
SWIDTH 1142 0
DWIDTH 8 0
BBX 6 7 0 0
BITMAP
A4
E4
E4
F4
24
70
1C
ENDCHAR
STARTCHAR U+BDE9
ENCODING 48617
SWIDTH 1142 0
DWIDTH 8 0
BBX 6 7 0 0
BITMAP
A4
E4
F4
24
38
44
38
ENDCHAR
STARTCHAR U+BDF0
ENCODING 48624
SWIDTH 1142 0
DWIDTH 8 0
BBX 7 7 0 0
BITMAP
44
7C
7C
00
FE
28
28
ENDCHAR
STARTCHAR U+BDF4
ENCODING 48628
SWIDTH 1142 0
DWIDTH 8 0
BBX 7 7 0 0
BITMAP
44
7C
7C
FE
28
40
7C
ENDCHAR
STARTCHAR U+BDF8
ENCODING 48632
SWIDTH 1142 0
DWIDTH 8 0
BBX 7 7 0 0
BITMAP
44
7C
7C
FE
28
70
1C
ENDCHAR
STARTCHAR U+BE00
ENCODING 48640
SWIDTH 1142 0
DWIDTH 8 0
BBX 7 7 0 0
BITMAP
44
7C
FE
28
7C
44
7C
ENDCHAR
STARTCHAR U+BE03
ENCODING 48643
SWIDTH 1142 0
DWIDTH 8 0
BBX 7 7 0 0
BITMAP
44
7C
7C
FE
28
10
6C
ENDCHAR
STARTCHAR U+BE05
ENCODING 48645
SWIDTH 1142 0
DWIDTH 8 0
BBX 7 7 0 0
BITMAP
44
7C
FE
28
38
44
38
ENDCHAR
STARTCHAR U+BE0C
ENCODING 48652
SWIDTH 1142 0
DWIDTH 8 0
BBX 7 6 0 1
BITMAP
44
7C
44
7C
00
FE
ENDCHAR
STARTCHAR U+BE0D
ENCODING 48653
SWIDTH 1142 0
DWIDTH 8 0
BBX 7 7 0 0
BITMAP
44
7C
7C
FE
7C
04
04
ENDCHAR
STARTCHAR U+BE10
ENCODING 48656
SWIDTH 1142 0
DWIDTH 8 0
BBX 7 7 0 0
BITMAP
44
7C
7C
FE
40
40
7C
ENDCHAR
STARTCHAR U+BE14
ENCODING 48660
SWIDTH 1142 0
DWIDTH 8 0
BBX 7 7 0 0
BITMAP
44
7C
7C
FE
78
10
3C
ENDCHAR
STARTCHAR U+BE1C
ENCODING 48668
SWIDTH 1142 0
DWIDTH 8 0
BBX 7 7 0 0
BITMAP
44
7C
7C
FE
7C
44
7C
ENDCHAR
STARTCHAR U+BE1D
ENCODING 48669
SWIDTH 1142 0
DWIDTH 8 0
BBX 7 7 0 0
BITMAP
44
7C
7C
FE
44
7C
7C
ENDCHAR
STARTCHAR U+BE1F
ENCODING 48671
SWIDTH 1142 0
DWIDTH 8 0
BBX 7 7 0 0
BITMAP
44
7C
7C
FE
10
28
44
ENDCHAR
STARTCHAR U+BE44
ENCODING 48708
SWIDTH 1142 0
DWIDTH 8 0
BBX 6 7 0 0
BITMAP
94
F4
94
94
F4
04
04
ENDCHAR
STARTCHAR U+BE45
ENCODING 48709
SWIDTH 1142 0
DWIDTH 8 0
BBX 6 7 0 0
BITMAP
94
F4
F4
00
7C
04
04
ENDCHAR
STARTCHAR U+BE48
ENCODING 48712
SWIDTH 1142 0
DWIDTH 8 0
BBX 6 7 0 0
BITMAP
94
F4
F4
04
40
40
7C
ENDCHAR
STARTCHAR U+BE4C
ENCODING 48716
SWIDTH 1142 0
DWIDTH 8 0
BBX 6 7 0 0
BITMAP
94
F4
F4
00
78
10
3C
ENDCHAR
STARTCHAR U+BE4E
ENCODING 48718
SWIDTH 1142 0
DWIDTH 8 0
BBX 6 7 0 0
BITMAP
94
F4
F4
00
DC
54
7C
ENDCHAR
STARTCHAR U+BE54
ENCODING 48724
SWIDTH 1142 0
DWIDTH 8 0
BBX 6 7 0 0
BITMAP
94
F4
F4
00
7C
44
7C
ENDCHAR
STARTCHAR U+BE55
ENCODING 48725
SWIDTH 1142 0
DWIDTH 8 0
BBX 6 7 0 0
BITMAP
94
F4
F4
00
44
7C
7C
ENDCHAR
STARTCHAR U+BE57
ENCODING 48727
SWIDTH 1142 0
DWIDTH 8 0
BBX 6 7 0 0
BITMAP
94
F4
F4
04
10
28
44
ENDCHAR
STARTCHAR U+BE59
ENCODING 48729
SWIDTH 1142 0
DWIDTH 8 0
BBX 6 7 0 0
BITMAP
94
F4
F4
00
38
44
38
ENDCHAR
STARTCHAR U+BE5A
ENCODING 48730
SWIDTH 1142 0
DWIDTH 8 0
BBX 6 7 0 0
BITMAP
94
F4
F4
00
7C
10
6C
ENDCHAR
STARTCHAR U+BE5B
ENCODING 48731
SWIDTH 1142 0
DWIDTH 8 0
BBX 6 7 0 0
BITMAP
94
F4
F4
10
7C
10
6C
ENDCHAR
STARTCHAR U+BE60
ENCODING 48736
SWIDTH 1142 0
DWIDTH 8 0
BBX 7 7 0 0
BITMAP
AC
AC
FE
AC
FC
04
04
ENDCHAR
STARTCHAR U+BE61
ENCODING 48737
SWIDTH 1142 0
DWIDTH 8 0
BBX 7 7 0 0
BITMAP
AC
FE
FC
00
7C
04
04
ENDCHAR
STARTCHAR U+BE64
ENCODING 48740
SWIDTH 1142 0
DWIDTH 8 0
BBX 7 7 0 0
BITMAP
AC
FE
FC
00
40
40
7C
ENDCHAR
STARTCHAR U+BE68
ENCODING 48744
SWIDTH 1142 0
DWIDTH 8 0
BBX 7 7 0 0
BITMAP
AC
FE
FC
00
78
10
3C
ENDCHAR
STARTCHAR U+BE6A
ENCODING 48746
SWIDTH 1142 0
DWIDTH 8 0
BBX 7 7 0 0
BITMAP
AC
FE
FC
00
DC
54
7C
ENDCHAR
STARTCHAR U+BE70
ENCODING 48752
SWIDTH 1142 0
DWIDTH 8 0
BBX 7 7 0 0
BITMAP
AC
FE
FC
00
7C
44
7C
ENDCHAR
STARTCHAR U+BE71
ENCODING 48753
SWIDTH 1142 0
DWIDTH 8 0
BBX 7 7 0 0
BITMAP
AC
FE
FC
00
44
7C
7C
ENDCHAR
STARTCHAR U+BE73
ENCODING 48755
SWIDTH 1142 0
DWIDTH 8 0
BBX 7 7 0 0
BITMAP
AC
FE
FC
00
10
28
44
ENDCHAR
STARTCHAR U+BE74
ENCODING 48756
SWIDTH 1142 0
DWIDTH 8 0
BBX 7 7 0 0
BITMAP
AC
FE
FC
00
14
28
54
ENDCHAR
STARTCHAR U+BE75
ENCODING 48757
SWIDTH 1142 0
DWIDTH 8 0
BBX 7 7 0 0
BITMAP
AC
FE
FC
00
38
44
38
ENDCHAR
STARTCHAR U+BE7B
ENCODING 48763
SWIDTH 1142 0
DWIDTH 8 0
BBX 7 7 0 0
BITMAP
AC
FE
FC
10
7C
28
10
ENDCHAR
STARTCHAR U+BE7C
ENCODING 48764
SWIDTH 1142 0
DWIDTH 8 0
BBX 7 7 0 0
BITMAP
AE
AE
FE
AE
FE
06
06
ENDCHAR
STARTCHAR U+BE7D
ENCODING 48765
SWIDTH 1142 0
DWIDTH 8 0
BBX 7 7 0 0
BITMAP
AE
FE
FE
00
7E
02
02
ENDCHAR
STARTCHAR U+BE80
ENCODING 48768
SWIDTH 1142 0
DWIDTH 8 0
BBX 7 7 0 0
BITMAP
AE
FE
FE
06
40
40
7E
ENDCHAR
STARTCHAR U+BE84
ENCODING 48772
SWIDTH 1142 0
DWIDTH 8 0
BBX 7 7 0 0
BITMAP
AE
FE
FE
00
7C
18
3E
ENDCHAR
STARTCHAR U+BE8C
ENCODING 48780
SWIDTH 1142 0
DWIDTH 8 0
BBX 7 7 0 0
BITMAP
AE
FE
FE
00
7E
42
7E
ENDCHAR
STARTCHAR U+BE8D
ENCODING 48781
SWIDTH 1142 0
DWIDTH 8 0
BBX 7 7 0 0
BITMAP
AE
FE
FE
00
42
7E
7E
ENDCHAR
STARTCHAR U+BE8F
ENCODING 48783
SWIDTH 1142 0
DWIDTH 8 0
BBX 7 7 0 0
BITMAP
AE
FE
FE
00
08
14
62
ENDCHAR
STARTCHAR U+BE90
ENCODING 48784
SWIDTH 1142 0
DWIDTH 8 0
BBX 7 7 0 0
BITMAP
AE
FE
FE
00
14
2C
52
ENDCHAR
STARTCHAR U+BE91
ENCODING 48785
SWIDTH 1142 0
DWIDTH 8 0
BBX 7 7 0 0
BITMAP
AE
FE
FE
00
3C
42
3C
ENDCHAR
STARTCHAR U+BE98
ENCODING 48792
SWIDTH 1142 0
DWIDTH 8 0
BBX 7 7 0 0
BITMAP
AC
AE
FC
AE
FC
04
04
ENDCHAR
STARTCHAR U+BE99
ENCODING 48793
SWIDTH 1142 0
DWIDTH 8 0
BBX 7 7 0 0
BITMAP
AE
FC
FE
04
7C
04
04
ENDCHAR
STARTCHAR U+BEA8
ENCODING 48808
SWIDTH 1142 0
DWIDTH 8 0
BBX 7 7 0 0
BITMAP
AE
FC
FE
04
7C
44
7C
ENDCHAR
STARTCHAR U+BED0
ENCODING 48848
SWIDTH 1142 0
DWIDTH 8 0
BBX 7 7 0 0
BITMAP
AA
AA
FE
AA
FA
02
02
ENDCHAR
STARTCHAR U+BED1
ENCODING 48849
SWIDTH 1142 0
DWIDTH 8 0
BBX 7 7 0 0
BITMAP
AA
FE
FA
00
7E
02
02
ENDCHAR
STARTCHAR U+BED4
ENCODING 48852
SWIDTH 1142 0
DWIDTH 8 0
BBX 7 7 0 0
BITMAP
AA
FE
FA
02
40
40
7E
ENDCHAR
STARTCHAR U+BED7
ENCODING 48855
SWIDTH 1142 0
DWIDTH 8 0
BBX 7 7 0 0
BITMAP
AA
FE
FA
00
7E
40
7E
ENDCHAR
STARTCHAR U+BED8
ENCODING 48856
SWIDTH 1142 0
DWIDTH 8 0
BBX 7 7 0 0
BITMAP
AA
FE
FA
00
7C
18
3E
ENDCHAR
STARTCHAR U+BEE0
ENCODING 48864
SWIDTH 1142 0
DWIDTH 8 0
BBX 7 7 0 0
BITMAP
AA
FE
FA
00
7E
42
7E
ENDCHAR
STARTCHAR U+BEE3
ENCODING 48867
SWIDTH 1142 0
DWIDTH 8 0
BBX 7 7 0 0
BITMAP
AA
FE
FA
02
08
14
62
ENDCHAR
STARTCHAR U+BEE4
ENCODING 48868
SWIDTH 1142 0
DWIDTH 8 0
BBX 7 7 0 0
BITMAP
AA
FE
FA
00
14
2C
52
ENDCHAR
STARTCHAR U+BEE5
ENCODING 48869
SWIDTH 1142 0
DWIDTH 8 0
BBX 7 7 0 0
BITMAP
AA
FE
FA
00
3C
42
3C
ENDCHAR
STARTCHAR U+BEEC
ENCODING 48876
SWIDTH 1142 0
DWIDTH 8 0
BBX 7 7 0 0
BITMAP
AE
AE
FE
AE
FE
06
06
ENDCHAR
STARTCHAR U+BF01
ENCODING 48897
SWIDTH 1142 0
DWIDTH 8 0
BBX 7 7 0 0
BITMAP
AE
FE
FE
00
3C
42
3C
ENDCHAR
STARTCHAR U+BF08
ENCODING 48904
SWIDTH 1142 0
DWIDTH 8 0
BBX 7 7 0 0
BITMAP
AA
AE
FA
AE
FA
02
02
ENDCHAR
STARTCHAR U+BF09
ENCODING 48905
SWIDTH 1142 0
DWIDTH 8 0
BBX 7 7 0 0
BITMAP
AE
FA
FE
02
7E
02
02
ENDCHAR
STARTCHAR U+BF18
ENCODING 48920
SWIDTH 1142 0
DWIDTH 8 0
BBX 7 7 0 0
BITMAP
AE
FA
FE
02
7E
42
7E
ENDCHAR
STARTCHAR U+BF19
ENCODING 48921
SWIDTH 1142 0
DWIDTH 8 0
BBX 7 7 0 0
BITMAP
AE
FA
FE
02
42
7E
7E
ENDCHAR
STARTCHAR U+BF1B
ENCODING 48923
SWIDTH 1142 0
DWIDTH 8 0
BBX 7 7 0 0
BITMAP
AE
FA
FE
02
08
14
62
ENDCHAR
STARTCHAR U+BF1C
ENCODING 48924
SWIDTH 1142 0
DWIDTH 8 0
BBX 7 7 0 0
BITMAP
AE
FA
FE
02
14
2C
52
ENDCHAR
STARTCHAR U+BF1D
ENCODING 48925
SWIDTH 1142 0
DWIDTH 8 0
BBX 7 7 0 0
BITMAP
AE
FA
FE
02
3C
42
3C
ENDCHAR
STARTCHAR U+BF40
ENCODING 48960
SWIDTH 1142 0
DWIDTH 8 0
BBX 7 6 0 1
BITMAP
54
7C
54
7C
10
FE
ENDCHAR
STARTCHAR U+BF41
ENCODING 48961
SWIDTH 1142 0
DWIDTH 8 0
BBX 7 7 0 0
BITMAP
54
7C
7C
10
FE
7C
04
ENDCHAR
STARTCHAR U+BF44
ENCODING 48964
SWIDTH 1142 0
DWIDTH 8 0
BBX 7 7 0 0
BITMAP
54
7C
7C
10
FE
40
7C
ENDCHAR
STARTCHAR U+BF48
ENCODING 48968
SWIDTH 1142 0
DWIDTH 8 0
BBX 7 7 0 0
BITMAP
54
7C
7C
10
FE
70
1C
ENDCHAR
STARTCHAR U+BF50
ENCODING 48976
SWIDTH 1142 0
DWIDTH 8 0
BBX 7 7 0 0
BITMAP
54
7C
7C
10
FE
44
7C
ENDCHAR
STARTCHAR U+BF51
ENCODING 48977
SWIDTH 1142 0
DWIDTH 8 0
BBX 7 7 0 0
BITMAP
54
7C
10
FE
44
7C
7C
ENDCHAR
STARTCHAR U+BF55
ENCODING 48981
SWIDTH 1142 0
DWIDTH 8 0
BBX 7 7 0 0
BITMAP
54
7C
7C
10
FE
44
38
ENDCHAR
STARTCHAR U+BF94
ENCODING 49044
SWIDTH 1142 0
DWIDTH 8 0
BBX 7 7 0 0
BITMAP
AA
FA
AA
FA
22
FE
02
ENDCHAR
STARTCHAR U+BFB0
ENCODING 49072
SWIDTH 1142 0
DWIDTH 8 0
BBX 7 6 0 1
BITMAP
54
7C
54
7C
28
FE
ENDCHAR
STARTCHAR U+BFC5
ENCODING 49093
SWIDTH 1142 0
DWIDTH 8 0
BBX 7 7 0 0
BITMAP
54
7C
7C
28
FE
44
38
ENDCHAR
STARTCHAR U+BFCC
ENCODING 49100
SWIDTH 1142 0
DWIDTH 8 0
BBX 7 7 0 0
BITMAP
54
7C
7C
00
FE
10
10
ENDCHAR
STARTCHAR U+BFCD
ENCODING 49101
SWIDTH 1142 0
DWIDTH 8 0
BBX 7 7 0 0
BITMAP
54
7C
7C
FE
10
7C
04
ENDCHAR
STARTCHAR U+BFD0
ENCODING 49104
SWIDTH 1142 0
DWIDTH 8 0
BBX 7 7 0 0
BITMAP
54
7C
7C
FE
50
40
7C
ENDCHAR
STARTCHAR U+BFD4
ENCODING 49108
SWIDTH 1142 0
DWIDTH 8 0
BBX 7 7 0 0
BITMAP
54
7C
7C
FE
10
70
1C
ENDCHAR
STARTCHAR U+BFDC
ENCODING 49116
SWIDTH 1142 0
DWIDTH 8 0
BBX 7 7 0 0
BITMAP
54
7C
FE
10
7C
44
7C
ENDCHAR
STARTCHAR U+BFDF
ENCODING 49119
SWIDTH 1142 0
DWIDTH 8 0
BBX 7 7 0 0
BITMAP
54
7C
7C
FE
10
10
6C
ENDCHAR
STARTCHAR U+BFE1
ENCODING 49121
SWIDTH 1142 0
DWIDTH 8 0
BBX 7 7 0 0
BITMAP
54
7C
FE
10
38
44
38
ENDCHAR
STARTCHAR U+C03C
ENCODING 49212
SWIDTH 1142 0
DWIDTH 8 0
BBX 7 7 0 0
BITMAP
54
7C
7C
00
FE
28
28
ENDCHAR
STARTCHAR U+C051
ENCODING 49233
SWIDTH 1142 0
DWIDTH 8 0
BBX 7 7 0 0
BITMAP
54
7C
FE
28
38
44
38
ENDCHAR
STARTCHAR U+C058
ENCODING 49240
SWIDTH 1142 0
DWIDTH 8 0
BBX 7 6 0 1
BITMAP
54
7C
54
7C
00
FE
ENDCHAR
STARTCHAR U+C05C
ENCODING 49244
SWIDTH 1142 0
DWIDTH 8 0
BBX 7 7 0 0
BITMAP
54
7C
7C
FE
40
40
7C
ENDCHAR
STARTCHAR U+C060
ENCODING 49248
SWIDTH 1142 0
DWIDTH 8 0
BBX 7 7 0 0
BITMAP
54
7C
7C
FE
78
10
3C
ENDCHAR
STARTCHAR U+C068
ENCODING 49256
SWIDTH 1142 0
DWIDTH 8 0
BBX 7 7 0 0
BITMAP
54
7C
7C
FE
7C
44
7C
ENDCHAR
STARTCHAR U+C069
ENCODING 49257
SWIDTH 1142 0
DWIDTH 8 0
BBX 7 7 0 0
BITMAP
54
7C
7C
FE
44
7C
7C
ENDCHAR
STARTCHAR U+C090
ENCODING 49296
SWIDTH 1142 0
DWIDTH 8 0
BBX 7 7 0 0
BITMAP
AA
AA
FA
AA
FA
02
02
ENDCHAR
STARTCHAR U+C091
ENCODING 49297
SWIDTH 1142 0
DWIDTH 8 0
BBX 7 7 0 0
BITMAP
AA
FA
FA
00
7E
02
02
ENDCHAR
STARTCHAR U+C094
ENCODING 49300
SWIDTH 1142 0
DWIDTH 8 0
BBX 7 7 0 0
BITMAP
AA
FA
FA
00
40
40
7E
ENDCHAR
STARTCHAR U+C098
ENCODING 49304
SWIDTH 1142 0
DWIDTH 8 0
BBX 7 7 0 0
BITMAP
AA
FA
FA
00
7C
18
3E
ENDCHAR
STARTCHAR U+C0A0
ENCODING 49312
SWIDTH 1142 0
DWIDTH 8 0
BBX 7 7 0 0
BITMAP
AA
FA
FA
00
7E
42
7E
ENDCHAR
STARTCHAR U+C0A1
ENCODING 49313
SWIDTH 1142 0
DWIDTH 8 0
BBX 7 7 0 0
BITMAP
AA
FA
FA
00
42
7E
7E
ENDCHAR
STARTCHAR U+C0A3
ENCODING 49315
SWIDTH 1142 0
DWIDTH 8 0
BBX 7 7 0 0
BITMAP
AA
FA
FA
00
08
14
62
ENDCHAR
STARTCHAR U+C0A5
ENCODING 49317
SWIDTH 1142 0
DWIDTH 8 0
BBX 7 7 0 0
BITMAP
AA
FA
FA
00
3C
42
3C
ENDCHAR
STARTCHAR U+C0AC
ENCODING 49324
SWIDTH 1142 0
DWIDTH 8 0
BBX 7 7 0 0
BITMAP
24
24
46
A4
94
04
04
ENDCHAR
STARTCHAR U+C0AD
ENCODING 49325
SWIDTH 1142 0
DWIDTH 8 0
BBX 7 7 0 0
BITMAP
24
46
B4
00
7C
04
04
ENDCHAR
STARTCHAR U+C0AF
ENCODING 49327
SWIDTH 1142 0
DWIDTH 8 0
BBX 7 7 0 0
BITMAP
24
46
B4
00
74
14
1A
ENDCHAR
STARTCHAR U+C0B0
ENCODING 49328
SWIDTH 1142 0
DWIDTH 8 0
BBX 7 7 0 0
BITMAP
24
46
B4
04
40
40
7C
ENDCHAR
STARTCHAR U+C0B3
ENCODING 49331
SWIDTH 1142 0
DWIDTH 8 0
BBX 7 7 0 0
BITMAP
24
46
B4
00
7C
40
7C
ENDCHAR
STARTCHAR U+C0B4
ENCODING 49332
SWIDTH 1142 0
DWIDTH 8 0
BBX 7 7 0 0
BITMAP
24
46
B4
00
78
10
3C
ENDCHAR
STARTCHAR U+C0B5
ENCODING 49333
SWIDTH 1142 0
DWIDTH 8 0
BBX 7 7 0 0
BITMAP
24
46
B4
00
DC
44
64
ENDCHAR
STARTCHAR U+C0B6
ENCODING 49334
SWIDTH 1142 0
DWIDTH 8 0
BBX 7 7 0 0
BITMAP
24
46
B4
00
DC
54
7C
ENDCHAR
STARTCHAR U+C0BC
ENCODING 49340
SWIDTH 1142 0
DWIDTH 8 0
BBX 7 7 0 0
BITMAP
24
46
B4
00
7C
44
7C
ENDCHAR
STARTCHAR U+C0BD
ENCODING 49341
SWIDTH 1142 0
DWIDTH 8 0
BBX 7 7 0 0
BITMAP
24
46
B4
00
44
7C
7C
ENDCHAR
STARTCHAR U+C0BF
ENCODING 49343
SWIDTH 1142 0
DWIDTH 8 0
BBX 7 7 0 0
BITMAP
24
46
B4
04
10
28
44
ENDCHAR
STARTCHAR U+C0C0
ENCODING 49344
SWIDTH 1142 0
DWIDTH 8 0
BBX 7 7 0 0
BITMAP
24
46
B4
00
14
28
54
ENDCHAR
STARTCHAR U+C0C1
ENCODING 49345
SWIDTH 1142 0
DWIDTH 8 0
BBX 7 7 0 0
BITMAP
24
46
B4
00
38
44
38
ENDCHAR
STARTCHAR U+C0C5
ENCODING 49349
SWIDTH 1142 0
DWIDTH 8 0
BBX 7 7 0 0
BITMAP
24
46
B4
00
7C
78
7C
ENDCHAR
STARTCHAR U+C0C8
ENCODING 49352
SWIDTH 1142 0
DWIDTH 8 0
BBX 7 7 0 0
BITMAP
4A
4A
AE
AA
AA
0A
0A
ENDCHAR
STARTCHAR U+C0C9
ENCODING 49353
SWIDTH 1142 0
DWIDTH 8 0
BBX 7 7 0 0
BITMAP
2A
4E
AA
00
7E
02
02
ENDCHAR
STARTCHAR U+C0CC
ENCODING 49356
SWIDTH 1142 0
DWIDTH 8 0
BBX 7 7 0 0
BITMAP
2A
4E
AA
0A
40
40
7E
ENDCHAR
STARTCHAR U+C0D0
ENCODING 49360
SWIDTH 1142 0
DWIDTH 8 0
BBX 7 7 0 0
BITMAP
2A
4E
AA
00
7C
18
3E
ENDCHAR
STARTCHAR U+C0D8
ENCODING 49368
SWIDTH 1142 0
DWIDTH 8 0
BBX 7 7 0 0
BITMAP
2A
4E
AA
00
7E
42
7E
ENDCHAR
STARTCHAR U+C0D9
ENCODING 49369
SWIDTH 1142 0
DWIDTH 8 0
BBX 7 7 0 0
BITMAP
2A
4E
AA
00
42
7E
7E
ENDCHAR
STARTCHAR U+C0DB
ENCODING 49371
SWIDTH 1142 0
DWIDTH 8 0
BBX 7 7 0 0
BITMAP
2A
4E
AA
00
08
14
62
ENDCHAR
STARTCHAR U+C0DC
ENCODING 49372
SWIDTH 1142 0
DWIDTH 8 0
BBX 7 7 0 0
BITMAP
2A
4E
AA
00
14
2C
52
ENDCHAR
STARTCHAR U+C0DD
ENCODING 49373
SWIDTH 1142 0
DWIDTH 8 0
BBX 7 7 0 0
BITMAP
2A
4E
AA
00
3C
42
3C
ENDCHAR
STARTCHAR U+C0E4
ENCODING 49380
SWIDTH 1142 0
DWIDTH 8 0
BBX 7 7 0 0
BITMAP
24
26
44
A6
94
04
04
ENDCHAR
STARTCHAR U+C0E5
ENCODING 49381
SWIDTH 1142 0
DWIDTH 8 0
BBX 7 7 0 0
BITMAP
24
46
B4
00
7C
04
04
ENDCHAR
STARTCHAR U+C0E8
ENCODING 49384
SWIDTH 1142 0
DWIDTH 8 0
BBX 7 7 0 0
BITMAP
24
46
B4
00
40
40
7C
ENDCHAR
STARTCHAR U+C0EC
ENCODING 49388
SWIDTH 1142 0
DWIDTH 8 0
BBX 7 7 0 0
BITMAP
24
46
B4
00
78
10
3C
ENDCHAR
STARTCHAR U+C0F4
ENCODING 49396
SWIDTH 1142 0
DWIDTH 8 0
BBX 7 7 0 0
BITMAP
24
46
B4
00
7C
44
7C
ENDCHAR
STARTCHAR U+C0F5
ENCODING 49397
SWIDTH 1142 0
DWIDTH 8 0
BBX 7 7 0 0
BITMAP
24
46
B4
00
44
7C
7C
ENDCHAR
STARTCHAR U+C0F7
ENCODING 49399
SWIDTH 1142 0
DWIDTH 8 0
BBX 7 7 0 0
BITMAP
24
46
B4
00
10
28
44
ENDCHAR
STARTCHAR U+C0F9
ENCODING 49401
SWIDTH 1142 0
DWIDTH 8 0
BBX 7 7 0 0
BITMAP
24
46
B4
00
38
44
38
ENDCHAR
STARTCHAR U+C100
ENCODING 49408
SWIDTH 1142 0
DWIDTH 8 0
BBX 7 7 0 0
BITMAP
4A
4E
AA
AE
AA
0A
0A
ENDCHAR
STARTCHAR U+C104
ENCODING 49412
SWIDTH 1142 0
DWIDTH 8 0
BBX 7 7 0 0
BITMAP
2E
4A
AE
0A
40
40
7E
ENDCHAR
STARTCHAR U+C108
ENCODING 49416
SWIDTH 1142 0
DWIDTH 8 0
BBX 7 7 0 0
BITMAP
2E
4A
AE
0A
7C
18
3E
ENDCHAR
STARTCHAR U+C110
ENCODING 49424
SWIDTH 1142 0
DWIDTH 8 0
BBX 7 7 0 0
BITMAP
2E
4A
AE
0A
7E
42
7E
ENDCHAR
STARTCHAR U+C115
ENCODING 49429
SWIDTH 1142 0
DWIDTH 8 0
BBX 7 7 0 0
BITMAP
2E
4A
AE
0A
3C
42
3C
ENDCHAR
STARTCHAR U+C11C
ENCODING 49436
SWIDTH 1142 0
DWIDTH 8 0
BBX 6 7 0 0
BITMAP
24
24
4C
A4
94
04
04
ENDCHAR
STARTCHAR U+C11D
ENCODING 49437
SWIDTH 1142 0
DWIDTH 8 0
BBX 6 7 0 0
BITMAP
24
4C
B4
00
7C
04
04
ENDCHAR
STARTCHAR U+C11E
ENCODING 49438
SWIDTH 1142 0
DWIDTH 8 0
BBX 6 7 0 0
BITMAP
24
4C
B4
00
7C
14
14
ENDCHAR
STARTCHAR U+C11F
ENCODING 49439
SWIDTH 1142 0
DWIDTH 8 0
BBX 6 7 0 0
BITMAP
24
4C
B4
00
E8
28
34
ENDCHAR
STARTCHAR U+C120
ENCODING 49440
SWIDTH 1142 0
DWIDTH 8 0
BBX 6 7 0 0
BITMAP
24
4C
B4
04
40
40
7C
ENDCHAR
STARTCHAR U+C123
ENCODING 49443
SWIDTH 1142 0
DWIDTH 8 0
BBX 6 7 0 0
BITMAP
24
4C
B4
00
7C
40
7C
ENDCHAR
STARTCHAR U+C124
ENCODING 49444
SWIDTH 1142 0
DWIDTH 8 0
BBX 6 7 0 0
BITMAP
24
4C
B4
00
78
10
3C
ENDCHAR
STARTCHAR U+C126
ENCODING 49446
SWIDTH 1142 0
DWIDTH 8 0
BBX 6 7 0 0
BITMAP
24
4C
B4
00
DC
54
7C
ENDCHAR
STARTCHAR U+C127
ENCODING 49447
SWIDTH 1142 0
DWIDTH 8 0
BBX 6 7 0 0
BITMAP
24
4C
B4
00
D4
5C
7C
ENDCHAR
STARTCHAR U+C12C
ENCODING 49452
SWIDTH 1142 0
DWIDTH 8 0
BBX 6 7 0 0
BITMAP
24
4C
B4
00
7C
44
7C
ENDCHAR
STARTCHAR U+C12D
ENCODING 49453
SWIDTH 1142 0
DWIDTH 8 0
BBX 6 7 0 0
BITMAP
24
4C
B4
00
44
7C
7C
ENDCHAR
STARTCHAR U+C12F
ENCODING 49455
SWIDTH 1142 0
DWIDTH 8 0
BBX 6 7 0 0
BITMAP
24
4C
B4
04
10
28
44
ENDCHAR
STARTCHAR U+C130
ENCODING 49456
SWIDTH 1142 0
DWIDTH 8 0
BBX 6 7 0 0
BITMAP
24
4C
B4
00
14
28
54
ENDCHAR
STARTCHAR U+C131
ENCODING 49457
SWIDTH 1142 0
DWIDTH 8 0
BBX 6 7 0 0
BITMAP
24
4C
B4
00
38
44
38
ENDCHAR
STARTCHAR U+C136
ENCODING 49462
SWIDTH 1142 0
DWIDTH 8 0
BBX 6 7 0 0
BITMAP
24
4C
B4
00
7C
28
7C
ENDCHAR
STARTCHAR U+C138
ENCODING 49464
SWIDTH 1142 0
DWIDTH 8 0
BBX 7 7 0 0
BITMAP
4A
4A
BA
AA
AA
0A
0A
ENDCHAR
STARTCHAR U+C139
ENCODING 49465
SWIDTH 1142 0
DWIDTH 8 0
BBX 7 7 0 0
BITMAP
2A
5A
AA
00
7E
02
02
ENDCHAR
STARTCHAR U+C13C
ENCODING 49468
SWIDTH 1142 0
DWIDTH 8 0
BBX 7 7 0 0
BITMAP
2A
5A
AA
0A
40
40
7E
ENDCHAR
STARTCHAR U+C140
ENCODING 49472
SWIDTH 1142 0
DWIDTH 8 0
BBX 7 7 0 0
BITMAP
2A
5A
AA
00
7C
18
3E
ENDCHAR
STARTCHAR U+C148
ENCODING 49480
SWIDTH 1142 0
DWIDTH 8 0
BBX 7 7 0 0
BITMAP
2A
5A
AA
00
7E
42
7E
ENDCHAR
STARTCHAR U+C149
ENCODING 49481
SWIDTH 1142 0
DWIDTH 8 0
BBX 7 7 0 0
BITMAP
2A
5A
AA
00
42
7E
7E
ENDCHAR
STARTCHAR U+C14B
ENCODING 49483
SWIDTH 1142 0
DWIDTH 8 0
BBX 7 7 0 0
BITMAP
2A
5A
AA
00
08
14
62
ENDCHAR
STARTCHAR U+C14C
ENCODING 49484
SWIDTH 1142 0
DWIDTH 8 0
BBX 7 7 0 0
BITMAP
2A
5A
AA
00
14
2C
52
ENDCHAR
STARTCHAR U+C14D
ENCODING 49485
SWIDTH 1142 0
DWIDTH 8 0
BBX 7 7 0 0
BITMAP
2A
5A
AA
00
3C
42
3C
ENDCHAR
STARTCHAR U+C154
ENCODING 49492
SWIDTH 1142 0
DWIDTH 8 0
BBX 6 7 0 0
BITMAP
44
4C
A4
AC
A4
04
04
ENDCHAR
STARTCHAR U+C155
ENCODING 49493
SWIDTH 1142 0
DWIDTH 8 0
BBX 6 7 0 0
BITMAP
2C
44
AC
04
7C
04
04
ENDCHAR
STARTCHAR U+C158
ENCODING 49496
SWIDTH 1142 0
DWIDTH 8 0
BBX 6 7 0 0
BITMAP
2C
44
AC
04
40
40
7C
ENDCHAR
STARTCHAR U+C15C
ENCODING 49500
SWIDTH 1142 0
DWIDTH 8 0
BBX 6 7 0 0
BITMAP
2C
44
AC
04
78
10
3C
ENDCHAR
STARTCHAR U+C164
ENCODING 49508
SWIDTH 1142 0
DWIDTH 8 0
BBX 6 7 0 0
BITMAP
2C
44
AC
04
7C
44
7C
ENDCHAR
STARTCHAR U+C165
ENCODING 49509
SWIDTH 1142 0
DWIDTH 8 0
BBX 6 7 0 0
BITMAP
2C
44
AC
04
44
7C
7C
ENDCHAR
STARTCHAR U+C167
ENCODING 49511
SWIDTH 1142 0
DWIDTH 8 0
BBX 6 7 0 0
BITMAP
2C
44
AC
04
10
28
44
ENDCHAR
STARTCHAR U+C168
ENCODING 49512
SWIDTH 1142 0
DWIDTH 8 0
BBX 6 7 0 0
BITMAP
2C
44
AC
04
14
28
54
ENDCHAR
STARTCHAR U+C169
ENCODING 49513
SWIDTH 1142 0
DWIDTH 8 0
BBX 6 7 0 0
BITMAP
2C
44
AC
04
38
44
38
ENDCHAR
STARTCHAR U+C170
ENCODING 49520
SWIDTH 1142 0
DWIDTH 8 0
BBX 7 7 0 0
BITMAP
4A
5A
AA
BA
AA
0A
0A
ENDCHAR
STARTCHAR U+C174
ENCODING 49524
SWIDTH 1142 0
DWIDTH 8 0
BBX 7 7 0 0
BITMAP
5A
AA
BA
0A
40
40
7E
ENDCHAR
STARTCHAR U+C178
ENCODING 49528
SWIDTH 1142 0
DWIDTH 8 0
BBX 7 7 0 0
BITMAP
5A
AA
BA
0A
7C
18
3E
ENDCHAR
STARTCHAR U+C185
ENCODING 49541
SWIDTH 1142 0
DWIDTH 8 0
BBX 7 7 0 0
BITMAP
5A
AA
BA
0A
3C
42
3C
ENDCHAR
STARTCHAR U+C18C
ENCODING 49548
SWIDTH 1142 0
DWIDTH 8 0
BBX 7 6 0 1
BITMAP
08
10
28
54
10
FE
ENDCHAR
STARTCHAR U+C18D
ENCODING 49549
SWIDTH 1142 0
DWIDTH 8 0
BBX 7 7 0 0
BITMAP
10
6C
10
FE
7C
04
04
ENDCHAR
STARTCHAR U+C18E
ENCODING 49550
SWIDTH 1142 0
DWIDTH 8 0
BBX 7 7 0 0
BITMAP
10
6C
10
FE
7C
14
14
ENDCHAR
STARTCHAR U+C190
ENCODING 49552
SWIDTH 1142 0
DWIDTH 8 0
BBX 7 7 0 0
BITMAP
10
6C
10
FE
40
40
7C
ENDCHAR
STARTCHAR U+C194
ENCODING 49556
SWIDTH 1142 0
DWIDTH 8 0
BBX 7 7 0 0
BITMAP
10
6C
10
FE
78
10
3C
ENDCHAR
STARTCHAR U+C196
ENCODING 49558
SWIDTH 1142 0
DWIDTH 8 0
BBX 7 7 0 0
BITMAP
10
6C
10
FE
DC
54
7C
ENDCHAR
STARTCHAR U+C19C
ENCODING 49564
SWIDTH 1142 0
DWIDTH 8 0
BBX 7 7 0 0
BITMAP
10
6C
10
FE
7C
44
7C
ENDCHAR
STARTCHAR U+C19D
ENCODING 49565
SWIDTH 1142 0
DWIDTH 8 0
BBX 7 7 0 0
BITMAP
10
6C
10
FE
44
7C
7C
ENDCHAR
STARTCHAR U+C19F
ENCODING 49567
SWIDTH 1142 0
DWIDTH 8 0
BBX 7 7 0 0
BITMAP
10
6C
10
FE
10
28
44
ENDCHAR
STARTCHAR U+C1A1
ENCODING 49569
SWIDTH 1142 0
DWIDTH 8 0
BBX 7 7 0 0
BITMAP
10
6C
10
FE
38
44
38
ENDCHAR
STARTCHAR U+C1A5
ENCODING 49573
SWIDTH 1142 0
DWIDTH 8 0
BBX 7 7 0 0
BITMAP
10
6C
10
FE
7C
78
7C
ENDCHAR
STARTCHAR U+C1A8
ENCODING 49576
SWIDTH 1142 0
DWIDTH 8 0
BBX 7 7 0 0
BITMAP
24
44
B4
06
24
FC
04
ENDCHAR
STARTCHAR U+C1A9
ENCODING 49577
SWIDTH 1142 0
DWIDTH 8 0
BBX 7 7 0 0
BITMAP
44
B4
46
F4
7C
04
04
ENDCHAR
STARTCHAR U+C1AC
ENCODING 49580
SWIDTH 1142 0
DWIDTH 8 0
BBX 7 7 0 0
BITMAP
44
B4
46
F4
00
40
7C
ENDCHAR
STARTCHAR U+C1B0
ENCODING 49584
SWIDTH 1142 0
DWIDTH 8 0
BBX 7 7 0 0
BITMAP
44
B4
46
F4
78
10
3C
ENDCHAR
STARTCHAR U+C1BD
ENCODING 49597
SWIDTH 1142 0
DWIDTH 8 0
BBX 7 7 0 0
BITMAP
44
B4
46
F4
38
44
38
ENDCHAR
STARTCHAR U+C1C4
ENCODING 49604
SWIDTH 1142 0
DWIDTH 8 0
BBX 7 7 0 0
BITMAP
2A
4A
AA
0E
4A
FA
0A
ENDCHAR
STARTCHAR U+C1C8
ENCODING 49608
SWIDTH 1142 0
DWIDTH 8 0
BBX 7 7 0 0
BITMAP
4A
AA
4E
EA
40
40
7E
ENDCHAR
STARTCHAR U+C1CC
ENCODING 49612
SWIDTH 1142 0
DWIDTH 8 0
BBX 7 7 0 0
BITMAP
4A
AA
4E
EA
7C
18
3E
ENDCHAR
STARTCHAR U+C1D4
ENCODING 49620
SWIDTH 1142 0
DWIDTH 8 0
BBX 7 7 0 0
BITMAP
4A
AA
4E
EA
7E
42
7E
ENDCHAR
STARTCHAR U+C1D7
ENCODING 49623
SWIDTH 1142 0
DWIDTH 8 0
BBX 7 7 0 0
BITMAP
4A
AA
4E
EA
08
14
62
ENDCHAR
STARTCHAR U+C1D8
ENCODING 49624
SWIDTH 1142 0
DWIDTH 8 0
BBX 7 7 0 0
BITMAP
4A
AA
4E
EA
14
2C
52
ENDCHAR
STARTCHAR U+C1E0
ENCODING 49632
SWIDTH 1142 0
DWIDTH 8 0
BBX 6 7 0 0
BITMAP
24
44
B4
04
24
FC
04
ENDCHAR
STARTCHAR U+C1E4
ENCODING 49636
SWIDTH 1142 0
DWIDTH 8 0
BBX 6 7 0 0
BITMAP
44
B4
44
F4
40
40
7C
ENDCHAR
STARTCHAR U+C1E8
ENCODING 49640
SWIDTH 1142 0
DWIDTH 8 0
BBX 6 7 0 0
BITMAP
44
B4
44
F4
78
10
3C
ENDCHAR
STARTCHAR U+C1F0
ENCODING 49648
SWIDTH 1142 0
DWIDTH 8 0
BBX 6 7 0 0
BITMAP
44
B4
44
F4
7C
44
7C
ENDCHAR
STARTCHAR U+C1F1
ENCODING 49649
SWIDTH 1142 0
DWIDTH 8 0
BBX 6 7 0 0
BITMAP
44
B4
44
F4
44
7C
7C
ENDCHAR
STARTCHAR U+C1F3
ENCODING 49651
SWIDTH 1142 0
DWIDTH 8 0
BBX 6 7 0 0
BITMAP
44
B4
44
F4
10
28
44
ENDCHAR
STARTCHAR U+C1FC
ENCODING 49660
SWIDTH 1142 0
DWIDTH 8 0
BBX 7 6 0 1
BITMAP
08
10
28
44
28
FE
ENDCHAR
STARTCHAR U+C1FD
ENCODING 49661
SWIDTH 1142 0
DWIDTH 8 0
BBX 7 7 0 0
BITMAP
10
6C
28
FE
00
7C
04
ENDCHAR
STARTCHAR U+C200
ENCODING 49664
SWIDTH 1142 0
DWIDTH 8 0
BBX 7 7 0 0
BITMAP
10
6C
28
FE
00
40
7C
ENDCHAR
STARTCHAR U+C204
ENCODING 49668
SWIDTH 1142 0
DWIDTH 8 0
BBX 7 7 0 0
BITMAP
10
6C
28
FE
78
10
3C
ENDCHAR
STARTCHAR U+C20C
ENCODING 49676
SWIDTH 1142 0
DWIDTH 8 0
BBX 7 7 0 0
BITMAP
10
6C
28
FE
7C
44
7C
ENDCHAR
STARTCHAR U+C20D
ENCODING 49677
SWIDTH 1142 0
DWIDTH 8 0
BBX 7 7 0 0
BITMAP
10
6C
28
FE
44
7C
7C
ENDCHAR
STARTCHAR U+C20F
ENCODING 49679
SWIDTH 1142 0
DWIDTH 8 0
BBX 7 7 0 0
BITMAP
10
6C
28
FE
10
28
44
ENDCHAR
STARTCHAR U+C211
ENCODING 49681
SWIDTH 1142 0
DWIDTH 8 0
BBX 7 7 0 0
BITMAP
10
6C
28
FE
38
44
38
ENDCHAR
STARTCHAR U+C218
ENCODING 49688
SWIDTH 1142 0
DWIDTH 8 0
BBX 7 7 0 0
BITMAP
10
28
44
00
FE
10
10
ENDCHAR
STARTCHAR U+C219
ENCODING 49689
SWIDTH 1142 0
DWIDTH 8 0
BBX 7 7 0 0
BITMAP
10
6C
00
FE
10
7C
04
ENDCHAR
STARTCHAR U+C21C
ENCODING 49692
SWIDTH 1142 0
DWIDTH 8 0
BBX 7 7 0 0
BITMAP
10
6C
00
FE
50
40
7C
ENDCHAR
STARTCHAR U+C21F
ENCODING 49695
SWIDTH 1142 0
DWIDTH 8 0
BBX 7 7 0 0
BITMAP
10
6C
FE
10
7C
40
7C
ENDCHAR
STARTCHAR U+C220
ENCODING 49696
SWIDTH 1142 0
DWIDTH 8 0
BBX 7 7 0 0
BITMAP
10
6C
FE
10
78
10
3C
ENDCHAR
STARTCHAR U+C228
ENCODING 49704
SWIDTH 1142 0
DWIDTH 8 0
BBX 7 7 0 0
BITMAP
10
6C
FE
10
7C
44
7C
ENDCHAR
STARTCHAR U+C229
ENCODING 49705
SWIDTH 1142 0
DWIDTH 8 0
BBX 7 7 0 0
BITMAP
10
6C
FE
10
44
7C
7C
ENDCHAR
STARTCHAR U+C22B
ENCODING 49707
SWIDTH 1142 0
DWIDTH 8 0
BBX 7 7 0 0
BITMAP
10
6C
00
FE
10
10
6C
ENDCHAR
STARTCHAR U+C22D
ENCODING 49709
SWIDTH 1142 0
DWIDTH 8 0
BBX 7 7 0 0
BITMAP
10
6C
FE
10
38
44
38
ENDCHAR
STARTCHAR U+C22F
ENCODING 49711
SWIDTH 1142 0
DWIDTH 8 0
BBX 7 7 0 0
BITMAP
10
6C
FE
10
7C
10
6C
ENDCHAR
STARTCHAR U+C231
ENCODING 49713
SWIDTH 1142 0
DWIDTH 8 0
BBX 7 7 0 0
BITMAP
10
6C
FE
10
7C
78
7C
ENDCHAR
STARTCHAR U+C232
ENCODING 49714
SWIDTH 1142 0
DWIDTH 8 0
BBX 7 7 0 0
BITMAP
10
6C
FE
10
7C
28
7C
ENDCHAR
STARTCHAR U+C234
ENCODING 49716
SWIDTH 1142 0
DWIDTH 8 0
BBX 6 7 0 0
BITMAP
24
44
B4
04
F4
4C
44
ENDCHAR
STARTCHAR U+C248
ENCODING 49736
SWIDTH 1142 0
DWIDTH 8 0
BBX 6 7 0 0
BITMAP
44
AC
F4
44
14
28
54
ENDCHAR
STARTCHAR U+C250
ENCODING 49744
SWIDTH 1142 0
DWIDTH 8 0
BBX 7 7 0 0
BITMAP
4A
4A
AA
0A
EA
5A
4A
ENDCHAR
STARTCHAR U+C251
ENCODING 49745
SWIDTH 1142 0
DWIDTH 8 0
BBX 7 7 0 0
BITMAP
46
AE
F6
26
7E
02
02
ENDCHAR
STARTCHAR U+C254
ENCODING 49748
SWIDTH 1142 0
DWIDTH 8 0
BBX 7 7 0 0
BITMAP
46
AE
F6
26
40
40
7E
ENDCHAR
STARTCHAR U+C258
ENCODING 49752
SWIDTH 1142 0
DWIDTH 8 0
BBX 7 7 0 0
BITMAP
46
AE
F6
26
7C
18
3E
ENDCHAR
STARTCHAR U+C260
ENCODING 49760
SWIDTH 1142 0
DWIDTH 8 0
BBX 7 7 0 0
BITMAP
46
AE
F6
26
7E
42
7E
ENDCHAR
STARTCHAR U+C265
ENCODING 49765
SWIDTH 1142 0
DWIDTH 8 0
BBX 7 7 0 0
BITMAP
46
AE
F6
26
3C
42
3C
ENDCHAR
STARTCHAR U+C26C
ENCODING 49772
SWIDTH 1142 0
DWIDTH 8 0
BBX 6 7 0 0
BITMAP
24
44
B4
04
F4
44
44
ENDCHAR
STARTCHAR U+C26D
ENCODING 49773
SWIDTH 1142 0
DWIDTH 8 0
BBX 6 7 0 0
BITMAP
44
A4
F4
24
7C
04
04
ENDCHAR
STARTCHAR U+C270
ENCODING 49776
SWIDTH 1142 0
DWIDTH 8 0
BBX 6 7 0 0
BITMAP
44
A4
F4
24
40
40
7C
ENDCHAR
STARTCHAR U+C274
ENCODING 49780
SWIDTH 1142 0
DWIDTH 8 0
BBX 6 7 0 0
BITMAP
44
A4
F4
24
78
10
3C
ENDCHAR
STARTCHAR U+C27C
ENCODING 49788
SWIDTH 1142 0
DWIDTH 8 0
BBX 6 7 0 0
BITMAP
44
A4
F4
24
7C
44
7C
ENDCHAR
STARTCHAR U+C27D
ENCODING 49789
SWIDTH 1142 0
DWIDTH 8 0
BBX 6 7 0 0
BITMAP
44
A4
F4
24
44
7C
7C
ENDCHAR
STARTCHAR U+C27F
ENCODING 49791
SWIDTH 1142 0
DWIDTH 8 0
BBX 6 7 0 0
BITMAP
44
A4
F4
24
10
28
44
ENDCHAR
STARTCHAR U+C281
ENCODING 49793
SWIDTH 1142 0
DWIDTH 8 0
BBX 6 7 0 0
BITMAP
44
A4
F4
24
38
44
38
ENDCHAR
STARTCHAR U+C288
ENCODING 49800
SWIDTH 1142 0
DWIDTH 8 0
BBX 7 7 0 0
BITMAP
10
28
44
00
FE
28
28
ENDCHAR
STARTCHAR U+C289
ENCODING 49801
SWIDTH 1142 0
DWIDTH 8 0
BBX 7 7 0 0
BITMAP
10
6C
00
FE
28
7C
04
ENDCHAR
STARTCHAR U+C290
ENCODING 49808
SWIDTH 1142 0
DWIDTH 8 0
BBX 7 7 0 0
BITMAP
10
6C
FE
28
78
10
3C
ENDCHAR
STARTCHAR U+C298
ENCODING 49816
SWIDTH 1142 0
DWIDTH 8 0
BBX 7 7 0 0
BITMAP
10
6C
FE
28
7C
44
7C
ENDCHAR
STARTCHAR U+C29B
ENCODING 49819
SWIDTH 1142 0
DWIDTH 8 0
BBX 7 7 0 0
BITMAP
10
6C
00
FE
28
10
6C
ENDCHAR
STARTCHAR U+C29D
ENCODING 49821
SWIDTH 1142 0
DWIDTH 8 0
BBX 7 7 0 0
BITMAP
10
6C
FE
28
38
44
38
ENDCHAR
STARTCHAR U+C2A4
ENCODING 49828
SWIDTH 1142 0
DWIDTH 8 0
BBX 7 6 0 1
BITMAP
08
10
28
44
00
FE
ENDCHAR
STARTCHAR U+C2A5
ENCODING 49829
SWIDTH 1142 0
DWIDTH 8 0
BBX 7 7 0 0
BITMAP
10
6C
00
FE
00
7C
04
ENDCHAR
STARTCHAR U+C2A8
ENCODING 49832
SWIDTH 1142 0
DWIDTH 8 0
BBX 7 7 0 0
BITMAP
10
6C
00
FE
00
40
7C
ENDCHAR
STARTCHAR U+C2AC
ENCODING 49836
SWIDTH 1142 0
DWIDTH 8 0
BBX 7 7 0 0
BITMAP
10
6C
00
FE
78
10
3C
ENDCHAR
STARTCHAR U+C2AD
ENCODING 49837
SWIDTH 1142 0
DWIDTH 8 0
BBX 7 7 0 0
BITMAP
10
6C
00
FE
DC
44
64
ENDCHAR
STARTCHAR U+C2B4
ENCODING 49844
SWIDTH 1142 0
DWIDTH 8 0
BBX 7 7 0 0
BITMAP
10
6C
00
FE
7C
44
7C
ENDCHAR
STARTCHAR U+C2B5
ENCODING 49845
SWIDTH 1142 0
DWIDTH 8 0
BBX 7 7 0 0
BITMAP
10
6C
00
FE
44
7C
7C
ENDCHAR
STARTCHAR U+C2B7
ENCODING 49847
SWIDTH 1142 0
DWIDTH 8 0
BBX 7 7 0 0
BITMAP
10
6C
00
FE
10
28
44
ENDCHAR
STARTCHAR U+C2B9
ENCODING 49849
SWIDTH 1142 0
DWIDTH 8 0
BBX 7 7 0 0
BITMAP
10
6C
00
FE
38
44
38
ENDCHAR
STARTCHAR U+C2DC
ENCODING 49884
SWIDTH 1142 0
DWIDTH 8 0
BBX 6 7 0 0
BITMAP
24
24
44
A4
94
04
04
ENDCHAR
STARTCHAR U+C2DD
ENCODING 49885
SWIDTH 1142 0
DWIDTH 8 0
BBX 6 7 0 0
BITMAP
24
44
B4
00
7C
04
04
ENDCHAR
STARTCHAR U+C2E0
ENCODING 49888
SWIDTH 1142 0
DWIDTH 8 0
BBX 6 7 0 0
BITMAP
24
44
B4
04
40
40
7C
ENDCHAR
STARTCHAR U+C2E3
ENCODING 49891
SWIDTH 1142 0
DWIDTH 8 0
BBX 6 7 0 0
BITMAP
24
44
B4
00
7C
40
7C
ENDCHAR
STARTCHAR U+C2E4
ENCODING 49892
SWIDTH 1142 0
DWIDTH 8 0
BBX 6 7 0 0
BITMAP
24
44
B4
00
78
10
3C
ENDCHAR
STARTCHAR U+C2EB
ENCODING 49899
SWIDTH 1142 0
DWIDTH 8 0
BBX 6 7 0 0
BITMAP
24
44
B4
00
C8
5C
68
ENDCHAR
STARTCHAR U+C2EC
ENCODING 49900
SWIDTH 1142 0
DWIDTH 8 0
BBX 6 7 0 0
BITMAP
24
44
B4
00
7C
44
7C
ENDCHAR
STARTCHAR U+C2ED
ENCODING 49901
SWIDTH 1142 0
DWIDTH 8 0
BBX 6 7 0 0
BITMAP
24
44
B4
00
44
7C
7C
ENDCHAR
STARTCHAR U+C2EF
ENCODING 49903
SWIDTH 1142 0
DWIDTH 8 0
BBX 6 7 0 0
BITMAP
24
44
B4
04
10
28
44
ENDCHAR
STARTCHAR U+C2F1
ENCODING 49905
SWIDTH 1142 0
DWIDTH 8 0
BBX 6 7 0 0
BITMAP
24
44
B4
00
38
44
38
ENDCHAR
STARTCHAR U+C2F6
ENCODING 49910
SWIDTH 1142 0
DWIDTH 8 0
BBX 6 7 0 0
BITMAP
24
44
B4
00
7C
28
7C
ENDCHAR
STARTCHAR U+C2F8
ENCODING 49912
SWIDTH 1142 0
DWIDTH 8 0
BBX 7 7 0 0
BITMAP
54
54
56
AC
AC
04
04
ENDCHAR
STARTCHAR U+C2F9
ENCODING 49913
SWIDTH 1142 0
DWIDTH 8 0
BBX 7 7 0 0
BITMAP
54
56
AC
00
7C
04
04
ENDCHAR
STARTCHAR U+C2FB
ENCODING 49915
SWIDTH 1142 0
DWIDTH 8 0
BBX 7 7 0 0
BITMAP
54
56
AC
00
E8
28
34
ENDCHAR
STARTCHAR U+C2FC
ENCODING 49916
SWIDTH 1142 0
DWIDTH 8 0
BBX 7 7 0 0
BITMAP
54
56
AC
04
40
40
7C
ENDCHAR
STARTCHAR U+C300
ENCODING 49920
SWIDTH 1142 0
DWIDTH 8 0
BBX 7 7 0 0
BITMAP
54
56
AC
00
78
10
3C
ENDCHAR
STARTCHAR U+C308
ENCODING 49928
SWIDTH 1142 0
DWIDTH 8 0
BBX 7 7 0 0
BITMAP
54
56
AC
00
7C
44
7C
ENDCHAR
STARTCHAR U+C309
ENCODING 49929
SWIDTH 1142 0
DWIDTH 8 0
BBX 7 7 0 0
BITMAP
54
56
AC
00
44
7C
7C
ENDCHAR
STARTCHAR U+C30C
ENCODING 49932
SWIDTH 1142 0
DWIDTH 8 0
BBX 7 7 0 0
BITMAP
54
56
AC
00
14
28
54
ENDCHAR
STARTCHAR U+C30D
ENCODING 49933
SWIDTH 1142 0
DWIDTH 8 0
BBX 7 7 0 0
BITMAP
54
56
AC
00
38
44
38
ENDCHAR
STARTCHAR U+C313
ENCODING 49939
SWIDTH 1142 0
DWIDTH 8 0
BBX 7 7 0 0
BITMAP
54
56
AC
10
7C
28
10
ENDCHAR
STARTCHAR U+C314
ENCODING 49940
SWIDTH 1142 0
DWIDTH 8 0
BBX 7 7 0 0
BITMAP
5A
5A
5E
AA
AA
0A
0A
ENDCHAR
STARTCHAR U+C315
ENCODING 49941
SWIDTH 1142 0
DWIDTH 8 0
BBX 7 7 0 0
BITMAP
5A
5E
AA
00
7E
02
02
ENDCHAR
STARTCHAR U+C318
ENCODING 49944
SWIDTH 1142 0
DWIDTH 8 0
BBX 7 7 0 0
BITMAP
5A
5E
AA
00
40
40
7E
ENDCHAR
STARTCHAR U+C31C
ENCODING 49948
SWIDTH 1142 0
DWIDTH 8 0
BBX 7 7 0 0
BITMAP
5A
5E
AA
00
7C
18
3E
ENDCHAR
STARTCHAR U+C324
ENCODING 49956
SWIDTH 1142 0
DWIDTH 8 0
BBX 7 7 0 0
BITMAP
5A
5E
AA
00
7E
42
7E
ENDCHAR
STARTCHAR U+C325
ENCODING 49957
SWIDTH 1142 0
DWIDTH 8 0
BBX 7 7 0 0
BITMAP
5A
5E
AA
00
42
7E
7E
ENDCHAR
STARTCHAR U+C328
ENCODING 49960
SWIDTH 1142 0
DWIDTH 8 0
BBX 7 7 0 0
BITMAP
5A
5E
AA
00
14
2C
52
ENDCHAR
STARTCHAR U+C329
ENCODING 49961
SWIDTH 1142 0
DWIDTH 8 0
BBX 7 7 0 0
BITMAP
5A
5E
AA
00
3C
42
3C
ENDCHAR
STARTCHAR U+C345
ENCODING 49989
SWIDTH 1142 0
DWIDTH 8 0
BBX 7 7 0 0
BITMAP
56
54
AE
04
38
44
38
ENDCHAR
STARTCHAR U+C368
ENCODING 50024
SWIDTH 1142 0
DWIDTH 8 0
BBX 7 7 0 0
BITMAP
52
52
56
AA
AA
02
02
ENDCHAR
STARTCHAR U+C369
ENCODING 50025
SWIDTH 1142 0
DWIDTH 8 0
BBX 7 7 0 0
BITMAP
52
56
AA
00
7E
02
02
ENDCHAR
STARTCHAR U+C36C
ENCODING 50028
SWIDTH 1142 0
DWIDTH 8 0
BBX 7 7 0 0
BITMAP
52
56
AA
02
40
40
7E
ENDCHAR
STARTCHAR U+C370
ENCODING 50032
SWIDTH 1142 0
DWIDTH 8 0
BBX 7 7 0 0
BITMAP
52
56
AA
00
7C
18
3E
ENDCHAR
STARTCHAR U+C372
ENCODING 50034
SWIDTH 1142 0
DWIDTH 8 0
BBX 7 7 0 0
BITMAP
52
56
AA
00
6E
2A
3E
ENDCHAR
STARTCHAR U+C378
ENCODING 50040
SWIDTH 1142 0
DWIDTH 8 0
BBX 7 7 0 0
BITMAP
52
56
AA
00
7E
42
7E
ENDCHAR
STARTCHAR U+C379
ENCODING 50041
SWIDTH 1142 0
DWIDTH 8 0
BBX 7 7 0 0
BITMAP
52
56
AA
00
42
7E
7E
ENDCHAR
STARTCHAR U+C37C
ENCODING 50044
SWIDTH 1142 0
DWIDTH 8 0
BBX 7 7 0 0
BITMAP
52
56
AA
00
14
2C
52
ENDCHAR
STARTCHAR U+C37D
ENCODING 50045
SWIDTH 1142 0
DWIDTH 8 0
BBX 7 7 0 0
BITMAP
52
56
AA
00
3C
42
3C
ENDCHAR
STARTCHAR U+C384
ENCODING 50052
SWIDTH 1142 0
DWIDTH 8 0
BBX 7 7 0 0
BITMAP
56
56
5E
AE
AE
06
06
ENDCHAR
STARTCHAR U+C388
ENCODING 50056
SWIDTH 1142 0
DWIDTH 8 0
BBX 7 7 0 0
BITMAP
5E
56
AE
00
40
40
7E
ENDCHAR
STARTCHAR U+C38C
ENCODING 50060
SWIDTH 1142 0
DWIDTH 8 0
BBX 7 7 0 0
BITMAP
5E
56
AE
00
7C
18
3E
ENDCHAR
STARTCHAR U+C3C0
ENCODING 50112
SWIDTH 1142 0
DWIDTH 8 0
BBX 7 7 0 0
BITMAP
5E
56
AE
06
40
40
7E
ENDCHAR
STARTCHAR U+C3D8
ENCODING 50136
SWIDTH 1142 0
DWIDTH 8 0
BBX 7 6 0 1
BITMAP
28
28
54
44
10
FE
ENDCHAR
STARTCHAR U+C3D9
ENCODING 50137
SWIDTH 1142 0
DWIDTH 8 0
BBX 7 7 0 0
BITMAP
28
54
10
FE
00
7C
04
ENDCHAR
STARTCHAR U+C3DC
ENCODING 50140
SWIDTH 1142 0
DWIDTH 8 0
BBX 7 7 0 0
BITMAP
28
54
10
FE
00
40
7C
ENDCHAR
STARTCHAR U+C3DF
ENCODING 50143
SWIDTH 1142 0
DWIDTH 8 0
BBX 7 7 0 0
BITMAP
28
54
10
FE
7C
40
7C
ENDCHAR
STARTCHAR U+C3E0
ENCODING 50144
SWIDTH 1142 0
DWIDTH 8 0
BBX 7 7 0 0
BITMAP
28
54
10
FE
78
10
3C
ENDCHAR
STARTCHAR U+C3E2
ENCODING 50146
SWIDTH 1142 0
DWIDTH 8 0
BBX 7 7 0 0
BITMAP
28
54
10
FE
DC
54
7C
ENDCHAR
STARTCHAR U+C3E8
ENCODING 50152
SWIDTH 1142 0
DWIDTH 8 0
BBX 7 7 0 0
BITMAP
28
54
10
FE
7C
44
7C
ENDCHAR
STARTCHAR U+C3E9
ENCODING 50153
SWIDTH 1142 0
DWIDTH 8 0
BBX 7 7 0 0
BITMAP
28
54
10
FE
44
7C
7C
ENDCHAR
STARTCHAR U+C3ED
ENCODING 50157
SWIDTH 1142 0
DWIDTH 8 0
BBX 7 7 0 0
BITMAP
28
54
10
FE
38
44
38
ENDCHAR
STARTCHAR U+C3F4
ENCODING 50164
SWIDTH 1142 0
DWIDTH 8 0
BBX 7 7 0 0
BITMAP
54
54
AC
06
24
FC
04
ENDCHAR
STARTCHAR U+C3F5
ENCODING 50165
SWIDTH 1142 0
DWIDTH 8 0
BBX 7 7 0 0
BITMAP
54
AC
26
FC
00
7C
04
ENDCHAR
STARTCHAR U+C3F8
ENCODING 50168
SWIDTH 1142 0
DWIDTH 8 0
BBX 7 7 0 0
BITMAP
54
AC
26
FC
00
40
7C
ENDCHAR
STARTCHAR U+C408
ENCODING 50184
SWIDTH 1142 0
DWIDTH 8 0
BBX 7 7 0 0
BITMAP
54
AC
26
FC
14
28
54
ENDCHAR
STARTCHAR U+C410
ENCODING 50192
SWIDTH 1142 0
DWIDTH 8 0
BBX 7 7 0 0
BITMAP
5A
5A
AA
0E
2A
FA
0A
ENDCHAR
STARTCHAR U+C424
ENCODING 50212
SWIDTH 1142 0
DWIDTH 8 0
BBX 7 7 0 0
BITMAP
5A
AA
2E
FA
14
2C
52
ENDCHAR
STARTCHAR U+C42C
ENCODING 50220
SWIDTH 1142 0
DWIDTH 8 0
BBX 6 7 0 0
BITMAP
54
54
AC
04
24
FC
04
ENDCHAR
STARTCHAR U+C430
ENCODING 50224
SWIDTH 1142 0
DWIDTH 8 0
BBX 6 7 0 0
BITMAP
54
AC
24
FC
40
40
7C
ENDCHAR
STARTCHAR U+C434
ENCODING 50228
SWIDTH 1142 0
DWIDTH 8 0
BBX 6 7 0 0
BITMAP
54
AC
24
FC
78
10
3C
ENDCHAR
STARTCHAR U+C43C
ENCODING 50236
SWIDTH 1142 0
DWIDTH 8 0
BBX 6 7 0 0
BITMAP
54
AC
24
FC
7C
44
7C
ENDCHAR
STARTCHAR U+C43D
ENCODING 50237
SWIDTH 1142 0
DWIDTH 8 0
BBX 6 7 0 0
BITMAP
54
AC
24
FC
44
7C
7C
ENDCHAR
STARTCHAR U+C448
ENCODING 50248
SWIDTH 1142 0
DWIDTH 8 0
BBX 7 6 0 1
BITMAP
28
28
54
00
28
FE
ENDCHAR
STARTCHAR U+C464
ENCODING 50276
SWIDTH 1142 0
DWIDTH 8 0
BBX 7 7 0 0
BITMAP
28
28
54
00
FE
10
10
ENDCHAR
STARTCHAR U+C465
ENCODING 50277
SWIDTH 1142 0
DWIDTH 8 0
BBX 7 7 0 0
BITMAP
28
54
00
FE
10
7C
04
ENDCHAR
STARTCHAR U+C468
ENCODING 50280
SWIDTH 1142 0
DWIDTH 8 0
BBX 7 7 0 0
BITMAP
28
54
00
FE
50
40
7C
ENDCHAR
STARTCHAR U+C46C
ENCODING 50284
SWIDTH 1142 0
DWIDTH 8 0
BBX 7 7 0 0
BITMAP
28
54
FE
10
78
10
3C
ENDCHAR
STARTCHAR U+C474
ENCODING 50292
SWIDTH 1142 0
DWIDTH 8 0
BBX 7 7 0 0
BITMAP
28
54
FE
10
7C
44
7C
ENDCHAR
STARTCHAR U+C475
ENCODING 50293
SWIDTH 1142 0
DWIDTH 8 0
BBX 7 7 0 0
BITMAP
28
54
FE
10
44
7C
7C
ENDCHAR
STARTCHAR U+C479
ENCODING 50297
SWIDTH 1142 0
DWIDTH 8 0
BBX 7 7 0 0
BITMAP
28
54
FE
10
38
44
38
ENDCHAR
STARTCHAR U+C480
ENCODING 50304
SWIDTH 1142 0
DWIDTH 8 0
BBX 6 7 0 0
BITMAP
54
54
AC
04
FC
24
2C
ENDCHAR
STARTCHAR U+C494
ENCODING 50324
SWIDTH 1142 0
DWIDTH 8 0
BBX 6 7 0 0
BITMAP
54
AC
04
FC
2C
28
54
ENDCHAR
STARTCHAR U+C49C
ENCODING 50332
SWIDTH 1142 0
DWIDTH 8 0
BBX 7 7 0 0
BITMAP
56
56
AE
06
FE
26
2E
ENDCHAR
STARTCHAR U+C4B8
ENCODING 50360
SWIDTH 1142 0
DWIDTH 8 0
BBX 6 7 0 0
BITMAP
54
54
AC
04
FC
24
24
ENDCHAR
STARTCHAR U+C4BC
ENCODING 50364
SWIDTH 1142 0
DWIDTH 8 0
BBX 6 7 0 0
BITMAP
54
AC
FC
24
40
40
7C
ENDCHAR
STARTCHAR U+C4E9
ENCODING 50409
SWIDTH 1142 0
DWIDTH 8 0
BBX 7 7 0 0
BITMAP
28
54
FE
28
38
44
38
ENDCHAR
STARTCHAR U+C4F0
ENCODING 50416
SWIDTH 1142 0
DWIDTH 8 0
BBX 7 6 0 1
BITMAP
28
28
54
54
00
FE
ENDCHAR
STARTCHAR U+C4F1
ENCODING 50417
SWIDTH 1142 0
DWIDTH 8 0
BBX 7 7 0 0
BITMAP
28
54
00
FE
00
7C
04
ENDCHAR
STARTCHAR U+C4F4
ENCODING 50420
SWIDTH 1142 0
DWIDTH 8 0
BBX 7 7 0 0
BITMAP
28
54
00
FE
00
40
7C
ENDCHAR
STARTCHAR U+C4F8
ENCODING 50424
SWIDTH 1142 0
DWIDTH 8 0
BBX 7 7 0 0
BITMAP
28
54
00
FE
78
10
3C
ENDCHAR
STARTCHAR U+C4FA
ENCODING 50426
SWIDTH 1142 0
DWIDTH 8 0
BBX 7 7 0 0
BITMAP
28
54
00
FE
DC
54
7C
ENDCHAR
STARTCHAR U+C4FF
ENCODING 50431
SWIDTH 1142 0
DWIDTH 8 0
BBX 7 7 0 0
BITMAP
28
54
00
FE
C8
5C
68
ENDCHAR
STARTCHAR U+C500
ENCODING 50432
SWIDTH 1142 0
DWIDTH 8 0
BBX 7 7 0 0
BITMAP
28
54
00
FE
7C
44
7C
ENDCHAR
STARTCHAR U+C501
ENCODING 50433
SWIDTH 1142 0
DWIDTH 8 0
BBX 7 7 0 0
BITMAP
28
54
00
FE
44
7C
7C
ENDCHAR
STARTCHAR U+C50C
ENCODING 50444
SWIDTH 1142 0
DWIDTH 8 0
BBX 6 7 0 0
BITMAP
54
54
AC
AC
04
FC
04
ENDCHAR
STARTCHAR U+C510
ENCODING 50448
SWIDTH 1142 0
DWIDTH 8 0
BBX 6 7 0 0
BITMAP
54
AC
04
FC
40
40
7C
ENDCHAR
STARTCHAR U+C514
ENCODING 50452
SWIDTH 1142 0
DWIDTH 8 0
BBX 6 7 0 0
BITMAP
54
AC
04
FC
78
10
3C
ENDCHAR
STARTCHAR U+C51C
ENCODING 50460
SWIDTH 1142 0
DWIDTH 8 0
BBX 6 7 0 0
BITMAP
54
AC
04
FC
7C
44
7C
ENDCHAR
STARTCHAR U+C528
ENCODING 50472
SWIDTH 1142 0
DWIDTH 8 0
BBX 7 7 0 0
BITMAP
52
52
52
AA
AA
02
02
ENDCHAR
STARTCHAR U+C529
ENCODING 50473
SWIDTH 1142 0
DWIDTH 8 0
BBX 7 7 0 0
BITMAP
52
52
AA
00
7E
02
02
ENDCHAR
STARTCHAR U+C52C
ENCODING 50476
SWIDTH 1142 0
DWIDTH 8 0
BBX 7 7 0 0
BITMAP
52
52
AA
02
40
40
7E
ENDCHAR
STARTCHAR U+C530
ENCODING 50480
SWIDTH 1142 0
DWIDTH 8 0
BBX 7 7 0 0
BITMAP
52
52
AA
00
7C
18
3E
ENDCHAR
STARTCHAR U+C538
ENCODING 50488
SWIDTH 1142 0
DWIDTH 8 0
BBX 7 7 0 0
BITMAP
52
52
AA
00
7E
42
7E
ENDCHAR
STARTCHAR U+C539
ENCODING 50489
SWIDTH 1142 0
DWIDTH 8 0
BBX 7 7 0 0
BITMAP
52
52
AA
00
42
7E
7E
ENDCHAR
STARTCHAR U+C53B
ENCODING 50491
SWIDTH 1142 0
DWIDTH 8 0
BBX 7 7 0 0
BITMAP
52
52
AA
02
08
14
62
ENDCHAR
STARTCHAR U+C53D
ENCODING 50493
SWIDTH 1142 0
DWIDTH 8 0
BBX 7 7 0 0
BITMAP
52
52
AA
00
3C
42
3C
ENDCHAR
STARTCHAR U+C544
ENCODING 50500
SWIDTH 1142 0
DWIDTH 8 0
BBX 7 7 0 0
BITMAP
64
94
96
94
64
04
04
ENDCHAR
ENDFONT
